<svg xmlns="http://www.w3.org/2000/svg" viewBox="0 0 480 480" width="480" height="480" data-t2g-scale="57.34367429024616" data-t2g-offset-x="40.0" data-t2g-offset-y="97.34367918196958" data-t2g-bbox-minx="-5.768650833537038" data-t2g-bbox-miny="-0.7556922180043842" data-t2g-canvas-size="480" font-family="PingFang SC, Source Han Sans SC, Noto Sans CJK SC, sans-serif" font-size="14.0"><rect width="100%" height="100%" fill="white"/><line data-id="OC" class="t2g-obj t2g-seg" x1="198.02" y1="339.32" x2="83.33" y2="140.68" stroke="#222" stroke-width="1.6"/><line data-id="OD" class="t2g-obj t2g-seg" x1="198.02" y1="339.32" x2="396.67" y2="224.63" stroke="#222" stroke-width="1.6"/><line x1="1330.80" y1="339.32" x2="-861.08" y2="339.32" stroke="#222" stroke-width="1.6" stroke-dasharray="5 4"/><circle data-id="A" class="t2g-obj t2g-point" cx="370.80" cy="339.32" r="3.0" fill="#222"/><text x="381.76" y="348.19" text-anchor="middle" fill="#222">A</text><circle data-id="O" class="t2g-obj t2g-point" cx="198.02" cy="339.32" r="3.0" fill="#222"/><text x="192.63" y="354.04" text-anchor="middle" fill="#222">O</text><circle data-id="B" class="t2g-obj t2g-point" cx="98.92" cy="339.32" r="3.0" fill="#222"/><text x="88.10" y="348.51" text-anchor="middle" fill="#222">B</text><circle data-id="C" class="t2g-obj t2g-point" cx="83.33" cy="140.68" r="3.0" fill="#222"/><text x="74.55" y="136.51" text-anchor="middle" fill="#222">C</text><circle data-id="D" class="t2g-obj t2g-point" cx="396.67" cy="224.63" r="3.0" fill="#222"/><text x="408.12" y="225.07" text-anchor="middle" fill="#222">D</text><polyline points="193.02,330.66 201.68,325.66 206.68,334.32" fill="none" stroke="#222" stroke-width="1.2"/><path d="M 222.02 339.32 A 24.00 24.00 0 0 0 186.02 318.54" fill="none" stroke="#888" stroke-width="1"/><text x="215.22" y="322.12" text-anchor="middle" fill="#555" font-style="italic">120°</text><text x="215.22" y="322.12" text-anchor="middle" fill="#555" font-style="italic">150°</text></svg>