<svg xmlns="http://www.w3.org/2000/svg" viewBox="0 0 480 480" width="480" height="480" data-t2g-scale="52.35602094240837" data-t2g-offset-x="40.0" data-t2g-offset-y="92.35602094240838" data-t2g-bbox-minx="-6.82" data-t2g-bbox-miny="-4.82" data-t2g-canvas-size="480" font-family="PingFang SC, Source Han Sans SC, Noto Sans CJK SC, sans-serif" font-size="14.0"><rect width="100%" height="100%" fill="white"/><polygon data-id="quad" class="t2g-obj t2g-poly" points="397.07,135.29 82.93,135.29 82.93,344.71 240.00,344.71" fill="none" stroke="#222" stroke-width="1.6"/><line data-id="AB" class="t2g-obj t2g-seg" x1="397.07" y1="135.29" x2="82.93" y2="135.29" stroke="#222" stroke-width="1.6"/><line data-id="BC" class="t2g-obj t2g-seg" x1="82.93" y1="135.29" x2="82.93" y2="344.71" stroke="#222" stroke-width="1.6"/><line data-id="CD" class="t2g-obj t2g-seg" x1="82.93" y1="344.71" x2="240.00" y2="344.71" stroke="#222" stroke-width="1.6"/><line data-id="DA" class="t2g-obj t2g-seg" x1="240.00" y1="344.71" x2="397.07" y2="135.29" stroke="#222" stroke-width="1.6"/><line data-id="EF" class="t2g-obj t2g-seg" x1="240.00" y1="135.29" x2="161.47" y2="344.71" stroke="#222" stroke-width="1.6"/><circle data-id="A" class="t2g-obj t2g-point" cx="397.07" cy="135.29" r="3.0" fill="#222"/><text x="407.66" y="133.64" text-anchor="middle" fill="#222">A</text><circle data-id="B" class="t2g-obj t2g-point" cx="82.93" cy="135.29" r="3.0" fill="#222"/><text x="73.96" y="131.32" text-anchor="middle" fill="#222">B</text><circle data-id="C" class="t2g-obj t2g-point" cx="82.93" cy="344.71" r="3.0" fill="#222"/><text x="73.96" y="356.68" text-anchor="middle" fill="#222">C</text><circle data-id="D" class="t2g-obj t2g-point" cx="240.00" cy="344.71" r="3.0" fill="#222"/><text x="244.21" y="359.95" text-anchor="middle" fill="#222">D</text><circle data-id="E" class="t2g-obj t2g-point" cx="240.00" cy="135.29" r="3.0" fill="#222"/><text x="244.21" y="128.05" text-anchor="middle" fill="#222">E</text><circle data-id="F" class="t2g-obj t2g-point" cx="161.47" cy="344.71" r="3.0" fill="#222"/><text x="157.25" y="359.95" text-anchor="middle" fill="#222">F</text><polyline points="92.93,135.29 92.93,145.29 82.93,145.29" fill="none" stroke="#222" stroke-width="1.2"/></svg>