<svg xmlns="http://www.w3.org/2000/svg" viewBox="0 0 480 480" width="480" height="480" data-t2g-scale="62.5" data-t2g-offset-x="102.5" data-t2g-offset-y="40.0" data-t2g-bbox-minx="-3.7" data-t2g-bbox-miny="-5.7" data-t2g-canvas-size="480" font-family="PingFang SC, Source Han Sans SC, Noto Sans CJK SC, sans-serif" font-size="14.0"><rect width="100%" height="100%" fill="white"/><polygon data-id="tri" class="t2g-obj t2g-poly" points="333.75,83.75 146.25,83.75 333.75,396.25" fill="none" stroke="#222" stroke-width="1.6"/><line data-id="AB" class="t2g-obj t2g-seg" x1="333.75" y1="83.75" x2="146.25" y2="83.75" stroke="#222" stroke-width="1.6"/><line data-id="BC" class="t2g-obj t2g-seg" x1="146.25" y1="83.75" x2="333.75" y2="396.25" stroke="#222" stroke-width="1.6"/><line data-id="CA" class="t2g-obj t2g-seg" x1="333.75" y1="396.25" x2="333.75" y2="83.75" stroke="#222" stroke-width="1.6"/><line data-id="BD" class="t2g-obj t2g-seg" x1="146.25" y1="83.75" x2="333.75" y2="183.75" stroke="#222" stroke-width="1.6"/><line data-id="CD" class="t2g-obj t2g-seg" x1="333.75" y1="396.25" x2="333.75" y2="183.75" stroke="#222" stroke-width="1.6"/><line x1="-583.19" y1="733.92" x2="1156.94" y2="-310.17" stroke="#222" stroke-width="1.6" stroke-dasharray="5 4"/><circle data-id="A" class="t2g-obj t2g-point" cx="333.75" cy="83.75" r="3.0" fill="#222"/><text x="339.07" y="76.99" text-anchor="middle" fill="#222">A</text><circle data-id="B" class="t2g-obj t2g-point" cx="146.25" cy="83.75" r="3.0" fill="#222"/><text x="137.18" y="79.89" text-anchor="middle" fill="#222">B</text><circle data-id="C" class="t2g-obj t2g-point" cx="333.75" cy="396.25" r="3.0" fill="#222"/><text x="337.02" y="411.80" text-anchor="middle" fill="#222">C</text><circle data-id="D" class="t2g-obj t2g-point" cx="333.75" cy="183.75" r="3.0" fill="#222"/><text x="345.41" y="184.90" text-anchor="middle" fill="#222">D</text><circle data-id="M" class="t2g-obj t2g-point" cx="240.00" cy="240.00" r="3.0" fill="#222"/><text x="232.06" y="253.00" text-anchor="middle" fill="#222">M</text><polyline points="323.75,83.75 323.75,93.75 333.75,93.75" fill="none" stroke="#222" stroke-width="1.2"/><line x1="241.41" y1="131.10" x2="238.59" y2="136.40" stroke="#222" stroke-width="1.2"/><line x1="330.75" y1="290.00" x2="336.75" y2="290.00" stroke="#222" stroke-width="1.2"/><text x="352.50" y="65.00" text-anchor="middle" fill="#555" font-style="italic">90°</text></svg>