<svg xmlns="http://www.w3.org/2000/svg" viewBox="0 0 480 480" width="480" height="480" data-t2g-scale="16.755521706016758" data-t2g-offset-x="40.00000000000003" data-t2g-offset-y="156.40694847694368" data-t2g-bbox-minx="-7.390909090909091" data-t2g-bbox-miny="-2.39090909090909" data-t2g-canvas-size="480" font-family="PingFang SC, Source Han Sans SC, Noto Sans CJK SC, sans-serif" font-size="14.0"><rect width="100%" height="100%" fill="white"/><polygon data-id="tri1" class="t2g-obj t2g-poly" points="163.84,283.53 80.06,283.53 130.33,196.47" fill="none" stroke="#222" stroke-width="1.6"/><polygon data-id="tri2" class="t2g-obj t2g-poly" points="163.84,283.53 226.00,227.36 130.33,196.47" fill="none" stroke="#222" stroke-width="1.6"/><line data-id="AB" class="t2g-obj t2g-seg" x1="163.84" y1="283.53" x2="80.06" y2="283.53" stroke="#222" stroke-width="1.6"/><line data-id="BC" class="t2g-obj t2g-seg" x1="80.06" y1="283.53" x2="130.33" y2="196.47" stroke="#222" stroke-width="1.6"/><line data-id="CA" class="t2g-obj t2g-seg" x1="130.33" y1="196.47" x2="163.84" y2="283.53" stroke="#222" stroke-width="1.6"/><line data-id="AE" class="t2g-obj t2g-seg" x1="163.84" y1="283.53" x2="226.00" y2="227.36" stroke="#222" stroke-width="1.6"/><line data-id="EF" class="t2g-obj t2g-seg" x1="226.00" y1="227.36" x2="130.33" y2="196.47" stroke="#222" stroke-width="1.6"/><line data-id="FA" class="t2g-obj t2g-seg" x1="130.33" y1="196.47" x2="163.84" y2="283.53" stroke="#222" stroke-width="1.6"/><circle data-id="A" class="t2g-obj t2g-point" cx="163.84" cy="283.53" r="3.0" fill="#222"/><text x="157.37" y="297.64" text-anchor="middle" fill="#222">A</text><circle data-id="B" class="t2g-obj t2g-point" cx="80.06" cy="283.53" r="3.0" fill="#222"/><text x="68.75" y="291.54" text-anchor="middle" fill="#222">B</text><circle data-id="C" class="t2g-obj t2g-point" cx="130.33" cy="196.47" r="3.0" fill="#222"/><text x="121.13" y="192.76" text-anchor="middle" fill="#222">C</text><circle data-id="E" class="t2g-obj t2g-point" cx="226.00" cy="227.36" r="3.0" fill="#222"/><text x="236.84" y="226.23" text-anchor="middle" fill="#222">E</text><circle data-id="F" class="t2g-obj t2g-point" cx="130.33" cy="196.47" r="3.0" fill="#222"/><text x="121.13" y="192.76" text-anchor="middle" fill="#222">F</text><circle data-id="D" class="t2g-obj t2g-point" cx="399.94" cy="283.53" r="3.0" fill="#222"/><text x="411.75" y="289.67" text-anchor="middle" fill="#222">D</text><line x1="121.95" y1="286.53" x2="121.95" y2="280.53" stroke="#222" stroke-width="1.2"/><line x1="192.91" y1="253.22" x2="196.93" y2="257.67" stroke="#222" stroke-width="1.2"/><line x1="101.60" y1="240.23" x2="106.79" y2="243.23" stroke="#222" stroke-width="1.2"/><line x1="103.60" y1="236.77" x2="108.79" y2="239.77" stroke="#222" stroke-width="1.2"/><line x1="179.14" y1="215.38" x2="180.99" y2="209.67" stroke="#222" stroke-width="1.2"/><line x1="175.34" y1="214.15" x2="177.18" y2="208.45" stroke="#222" stroke-width="1.2"/><path d="M 101.01 283.53 A 20.94 20.94 0 0 0 90.53 265.39" fill="none" stroke="#888" stroke-width="1"/><path d="M 210.46 241.40 A 20.94 20.94 0 0 1 206.07 220.93" fill="none" stroke="#888" stroke-width="1"/><text x="85.09" y="278.51" text-anchor="middle" fill="#555" font-style="italic">60°</text><text x="231.02" y="222.33" text-anchor="middle" fill="#555" font-style="italic">60°</text></svg>