<svg xmlns="http://www.w3.org/2000/svg" viewBox="0 0 480 480" width="480" height="480" data-t2g-scale="37.39895502610862" data-t2g-offset-x="123.47636776825787" data-t2g-offset-y="40.0" data-t2g-bbox-minx="-5.115692193816531" data-t2g-bbox-miny="-4.579793808954285" data-t2g-canvas-size="480" font-family="PingFang SC, Source Han Sans SC, Noto Sans CJK SC, sans-serif" font-size="14.0"><rect width="100%" height="100%" fill="white"/><polygon data-id="tri1" class="t2g-obj t2g-poly" points="314.80,268.72 165.20,268.72 240.00,398.27" fill="none" stroke="#222" stroke-width="1.6"/><polygon data-id="tri2" class="t2g-obj t2g-poly" points="240.00,398.27 183.90,301.11 296.10,301.11" fill="none" stroke="#222" stroke-width="1.6"/><line data-id="AB" class="t2g-obj t2g-seg" x1="314.80" y1="268.72" x2="165.20" y2="268.72" stroke="#222" stroke-width="1.6"/><line data-id="BC" class="t2g-obj t2g-seg" x1="165.20" y1="268.72" x2="240.00" y2="398.27" stroke="#222" stroke-width="1.6"/><line data-id="CA" class="t2g-obj t2g-seg" x1="240.00" y1="398.27" x2="314.80" y2="268.72" stroke="#222" stroke-width="1.6"/><line data-id="CD" class="t2g-obj t2g-seg" x1="240.00" y1="398.27" x2="183.90" y2="301.11" stroke="#222" stroke-width="1.6"/><line data-id="DE" class="t2g-obj t2g-seg" x1="183.90" y1="301.11" x2="296.10" y2="301.11" stroke="#222" stroke-width="1.6"/><line data-id="EC" class="t2g-obj t2g-seg" x1="296.10" y1="301.11" x2="240.00" y2="398.27" stroke="#222" stroke-width="1.6"/><line data-id="AD" class="t2g-obj t2g-seg" x1="314.80" y1="268.72" x2="183.90" y2="301.11" stroke="#222" stroke-width="1.6"/><line data-id="BE" class="t2g-obj t2g-seg" x1="165.20" y1="268.72" x2="296.10" y2="301.11" stroke="#222" stroke-width="1.6"/><circle data-id="A" class="t2g-obj t2g-point" cx="314.80" cy="268.72" r="3.0" fill="#222"/><text x="326.78" y="272.03" text-anchor="middle" fill="#222">A</text><circle data-id="B" class="t2g-obj t2g-point" cx="165.20" cy="268.72" r="3.0" fill="#222"/><text x="153.21" y="272.20" text-anchor="middle" fill="#222">B</text><circle data-id="C" class="t2g-obj t2g-point" cx="240.00" cy="398.27" r="3.0" fill="#222"/><text x="238.98" y="414.23" text-anchor="middle" fill="#222">C</text><circle data-id="D" class="t2g-obj t2g-point" cx="183.90" cy="301.11" r="3.0" fill="#222"/><text x="172.88" y="309.85" text-anchor="middle" fill="#222">D</text><circle data-id="E" class="t2g-obj t2g-point" cx="296.10" cy="301.11" r="3.0" fill="#222"/><text x="306.24" y="311.52" text-anchor="middle" fill="#222">E</text><circle data-id="F" class="t2g-obj t2g-point" cx="240.00" cy="287.23" r="3.0" fill="#222"/><text x="232.98" y="300.96" text-anchor="middle" fill="#222">F</text><line x1="240.00" y1="271.72" x2="240.00" y2="265.72" stroke="#222" stroke-width="1.2"/><line x1="205.20" y1="332.00" x2="200.00" y2="335.00" stroke="#222" stroke-width="1.2"/><line x1="274.80" y1="332.00" x2="280.00" y2="335.00" stroke="#222" stroke-width="1.2"/><line x1="210.35" y1="352.92" x2="215.55" y2="349.92" stroke="#222" stroke-width="1.2"/><line x1="208.35" y1="349.46" x2="213.55" y2="346.46" stroke="#222" stroke-width="1.2"/><line x1="238.00" y1="298.11" x2="238.00" y2="304.11" stroke="#222" stroke-width="1.2"/><line x1="242.00" y1="298.11" x2="242.00" y2="304.11" stroke="#222" stroke-width="1.2"/><line x1="271.65" y1="349.46" x2="266.45" y2="346.46" stroke="#222" stroke-width="1.2"/><line x1="269.65" y1="352.92" x2="264.45" y2="349.92" stroke="#222" stroke-width="1.2"/></svg>