<svg xmlns="http://www.w3.org/2000/svg" viewBox="0 0 480 480" width="480" height="480" data-t2g-scale="77.51937988735565" data-t2g-offset-x="40.0" data-t2g-offset-y="117.51938050921486" data-t2g-bbox-minx="-4.579999997451149" data-t2g-bbox-miny="-0.5800000008874647" data-t2g-canvas-size="480" font-family="PingFang SC, Source Han Sans SC, Noto Sans CJK SC, sans-serif" font-size="14.0"><rect width="100%" height="100%" fill="white"/><polygon data-id="tri1" class="t2g-obj t2g-poly" points="395.04,317.52 84.96,317.52 240.00,162.48" fill="none" stroke="#222" stroke-width="1.6"/><polygon data-id="tri2" class="t2g-obj t2g-poly" points="288.44,317.52 240.00,162.48 377.96,289.55" fill="none" stroke="#222" stroke-width="1.6"/><line data-id="AB" class="t2g-obj t2g-seg" x1="395.04" y1="317.52" x2="84.96" y2="317.52" stroke="#222" stroke-width="1.6"/><line data-id="BC" class="t2g-obj t2g-seg" x1="84.96" y1="317.52" x2="240.00" y2="162.48" stroke="#222" stroke-width="1.6"/><line data-id="CA" class="t2g-obj t2g-seg" x1="240.00" y1="162.48" x2="395.04" y2="317.52" stroke="#222" stroke-width="1.6"/><line data-id="CE" class="t2g-obj t2g-seg" x1="240.00" y1="162.48" x2="288.44" y2="317.52" stroke="#222" stroke-width="1.6"/><line data-id="ED" class="t2g-obj t2g-seg" x1="288.44" y1="317.52" x2="377.96" y2="289.55" stroke="#222" stroke-width="1.6"/><line data-id="DC" class="t2g-obj t2g-seg" x1="377.96" y1="289.55" x2="240.00" y2="162.48" stroke="#222" stroke-width="1.6"/><circle data-id="A" class="t2g-obj t2g-point" cx="395.04" cy="317.52" r="3.0" fill="#222"/><text x="406.50" y="325.08" text-anchor="middle" fill="#222">A</text><circle data-id="B" class="t2g-obj t2g-point" cx="84.96" cy="317.52" r="3.0" fill="#222"/><text x="73.17" y="323.76" text-anchor="middle" fill="#222">B</text><circle data-id="C" class="t2g-obj t2g-point" cx="240.00" cy="162.48" r="3.0" fill="#222"/><text x="236.40" y="155.03" text-anchor="middle" fill="#222">C</text><circle data-id="D" class="t2g-obj t2g-point" cx="377.96" cy="289.55" r="3.0" fill="#222"/><text x="389.91" y="294.58" text-anchor="middle" fill="#222">D</text><circle data-id="E" class="t2g-obj t2g-point" cx="288.44" cy="317.52" r="3.0" fill="#222"/><text x="291.94" y="333.00" text-anchor="middle" fill="#222">E</text><polyline points="247.07,169.55 240.00,176.62 232.93,169.55" fill="none" stroke="#222" stroke-width="1.2"/><polyline points="285.46,307.97 295.01,304.99 297.99,314.54" fill="none" stroke="#222" stroke-width="1.2"/><line x1="319.64" y1="237.88" x2="315.40" y2="242.12" stroke="#222" stroke-width="1.2"/><line x1="160.36" y1="237.88" x2="164.60" y2="242.12" stroke="#222" stroke-width="1.2"/><path d="M 257.65 178.74 A 24.00 24.00 0 0 1 247.16 185.39" fill="none" stroke="#888" stroke-width="1"/><text x="418.29" y="294.26" text-anchor="middle" fill="#555" font-style="italic">45°</text><text x="108.22" y="294.26" text-anchor="middle" fill="#555" font-style="italic">45°</text><text x="263.26" y="139.22" text-anchor="middle" fill="#555" font-style="italic">90°</text><text x="263.26" y="139.22" text-anchor="middle" fill="#555" font-style="italic">30°</text><text x="401.21" y="266.29" text-anchor="middle" fill="#555" font-style="italic">60°</text><text x="311.70" y="294.26" text-anchor="middle" fill="#555" font-style="italic">90°</text></svg>