<svg xmlns="http://www.w3.org/2000/svg" viewBox="0 0 480 480" width="480" height="480" data-t2g-scale="26.52519893899204" data-t2g-offset-x="40.0" data-t2g-offset-y="40.0" data-t2g-bbox-minx="-7.54" data-t2g-bbox-miny="-7.54" data-t2g-canvas-size="480" font-family="PingFang SC, Source Han Sans SC, Noto Sans CJK SC, sans-serif" font-size="14.0"><rect width="100%" height="100%" fill="white"/><line x1="80.85" y1="399.15" x2="80.85" y2="80.85" stroke="#e5e7eb" stroke-width="1"/><line x1="107.37" y1="399.15" x2="107.37" y2="80.85" stroke="#e5e7eb" stroke-width="1"/><line x1="133.90" y1="399.15" x2="133.90" y2="80.85" stroke="#e5e7eb" stroke-width="1"/><line x1="160.42" y1="399.15" x2="160.42" y2="80.85" stroke="#e5e7eb" stroke-width="1"/><line x1="186.95" y1="399.15" x2="186.95" y2="80.85" stroke="#e5e7eb" stroke-width="1"/><line x1="213.47" y1="399.15" x2="213.47" y2="80.85" stroke="#e5e7eb" stroke-width="1"/><line x1="240.00" y1="399.15" x2="240.00" y2="80.85" stroke="#e5e7eb" stroke-width="1"/><line x1="266.53" y1="399.15" x2="266.53" y2="80.85" stroke="#e5e7eb" stroke-width="1"/><line x1="293.05" y1="399.15" x2="293.05" y2="80.85" stroke="#e5e7eb" stroke-width="1"/><line x1="319.58" y1="399.15" x2="319.58" y2="80.85" stroke="#e5e7eb" stroke-width="1"/><line x1="346.10" y1="399.15" x2="346.10" y2="80.85" stroke="#e5e7eb" stroke-width="1"/><line x1="372.63" y1="399.15" x2="372.63" y2="80.85" stroke="#e5e7eb" stroke-width="1"/><line x1="399.15" y1="399.15" x2="399.15" y2="80.85" stroke="#e5e7eb" stroke-width="1"/><line x1="80.85" y1="399.15" x2="399.15" y2="399.15" stroke="#e5e7eb" stroke-width="1"/><line x1="80.85" y1="372.63" x2="399.15" y2="372.63" stroke="#e5e7eb" stroke-width="1"/><line x1="80.85" y1="346.10" x2="399.15" y2="346.10" stroke="#e5e7eb" stroke-width="1"/><line x1="80.85" y1="319.58" x2="399.15" y2="319.58" stroke="#e5e7eb" stroke-width="1"/><line x1="80.85" y1="293.05" x2="399.15" y2="293.05" stroke="#e5e7eb" stroke-width="1"/><line x1="80.85" y1="266.53" x2="399.15" y2="266.53" stroke="#e5e7eb" stroke-width="1"/><line x1="80.85" y1="240.00" x2="399.15" y2="240.00" stroke="#e5e7eb" stroke-width="1"/><line x1="80.85" y1="213.47" x2="399.15" y2="213.47" stroke="#e5e7eb" stroke-width="1"/><line x1="80.85" y1="186.95" x2="399.15" y2="186.95" stroke="#e5e7eb" stroke-width="1"/><line x1="80.85" y1="160.42" x2="399.15" y2="160.42" stroke="#e5e7eb" stroke-width="1"/><line x1="80.85" y1="133.90" x2="399.15" y2="133.90" stroke="#e5e7eb" stroke-width="1"/><line x1="80.85" y1="107.37" x2="399.15" y2="107.37" stroke="#e5e7eb" stroke-width="1"/><line x1="80.85" y1="80.85" x2="399.15" y2="80.85" stroke="#e5e7eb" stroke-width="1"/><line x1="80.85" y1="240.00" x2="399.15" y2="240.00" stroke="#9ca3af" stroke-width="1.4" marker-end="url(#t2g-arrow)"/><line x1="240.00" y1="399.15" x2="240.00" y2="80.85" stroke="#9ca3af" stroke-width="1.4" marker-end="url(#t2g-arrow)"/><defs><marker id="t2g-arrow" viewBox="0 0 10 10" refX="9" refY="5" markerUnits="strokeWidth" markerWidth="8" markerHeight="8" orient="auto"><path d="M0,0 L10,5 L0,10 Z" fill="#9ca3af"/></marker></defs><line x1="80.85" y1="236.00" x2="80.85" y2="244.00" stroke="#9ca3af" stroke-width="1"/><text x="80.85" y="256.00" text-anchor="middle" fill="#6b7280" font-size="11">-6</text><line x1="107.37" y1="236.00" x2="107.37" y2="244.00" stroke="#9ca3af" stroke-width="1"/><text x="107.37" y="256.00" text-anchor="middle" fill="#6b7280" font-size="11">-5</text><line x1="133.90" y1="236.00" x2="133.90" y2="244.00" stroke="#9ca3af" stroke-width="1"/><text x="133.90" y="256.00" text-anchor="middle" fill="#6b7280" font-size="11">-4</text><line x1="160.42" y1="236.00" x2="160.42" y2="244.00" stroke="#9ca3af" stroke-width="1"/><text x="160.42" y="256.00" text-anchor="middle" fill="#6b7280" font-size="11">-3</text><line x1="186.95" y1="236.00" x2="186.95" y2="244.00" stroke="#9ca3af" stroke-width="1"/><text x="186.95" y="256.00" text-anchor="middle" fill="#6b7280" font-size="11">-2</text><line x1="213.47" y1="236.00" x2="213.47" y2="244.00" stroke="#9ca3af" stroke-width="1"/><text x="213.47" y="256.00" text-anchor="middle" fill="#6b7280" font-size="11">-1</text><line x1="266.53" y1="236.00" x2="266.53" y2="244.00" stroke="#9ca3af" stroke-width="1"/><text x="266.53" y="256.00" text-anchor="middle" fill="#6b7280" font-size="11">1</text><line x1="293.05" y1="236.00" x2="293.05" y2="244.00" stroke="#9ca3af" stroke-width="1"/><text x="293.05" y="256.00" text-anchor="middle" fill="#6b7280" font-size="11">2</text><line x1="319.58" y1="236.00" x2="319.58" y2="244.00" stroke="#9ca3af" stroke-width="1"/><text x="319.58" y="256.00" text-anchor="middle" fill="#6b7280" font-size="11">3</text><line x1="346.10" y1="236.00" x2="346.10" y2="244.00" stroke="#9ca3af" stroke-width="1"/><text x="346.10" y="256.00" text-anchor="middle" fill="#6b7280" font-size="11">4</text><line x1="372.63" y1="236.00" x2="372.63" y2="244.00" stroke="#9ca3af" stroke-width="1"/><text x="372.63" y="256.00" text-anchor="middle" fill="#6b7280" font-size="11">5</text><line x1="399.15" y1="236.00" x2="399.15" y2="244.00" stroke="#9ca3af" stroke-width="1"/><text x="399.15" y="256.00" text-anchor="middle" fill="#6b7280" font-size="11">6</text><line x1="236.00" y1="399.15" x2="244.00" y2="399.15" stroke="#9ca3af" stroke-width="1"/><text x="232.00" y="403.15" text-anchor="end" fill="#6b7280" font-size="11">-6</text><line x1="236.00" y1="372.63" x2="244.00" y2="372.63" stroke="#9ca3af" stroke-width="1"/><text x="232.00" y="376.63" text-anchor="end" fill="#6b7280" font-size="11">-5</text><line x1="236.00" y1="346.10" x2="244.00" y2="346.10" stroke="#9ca3af" stroke-width="1"/><text x="232.00" y="350.10" text-anchor="end" fill="#6b7280" font-size="11">-4</text><line x1="236.00" y1="319.58" x2="244.00" y2="319.58" stroke="#9ca3af" stroke-width="1"/><text x="232.00" y="323.58" text-anchor="end" fill="#6b7280" font-size="11">-3</text><line x1="236.00" y1="293.05" x2="244.00" y2="293.05" stroke="#9ca3af" stroke-width="1"/><text x="232.00" y="297.05" text-anchor="end" fill="#6b7280" font-size="11">-2</text><line x1="236.00" y1="266.53" x2="244.00" y2="266.53" stroke="#9ca3af" stroke-width="1"/><text x="232.00" y="270.53" text-anchor="end" fill="#6b7280" font-size="11">-1</text><line x1="236.00" y1="213.47" x2="244.00" y2="213.47" stroke="#9ca3af" stroke-width="1"/><text x="232.00" y="217.47" text-anchor="end" fill="#6b7280" font-size="11">1</text><line x1="236.00" y1="186.95" x2="244.00" y2="186.95" stroke="#9ca3af" stroke-width="1"/><text x="232.00" y="190.95" text-anchor="end" fill="#6b7280" font-size="11">2</text><line x1="236.00" y1="160.42" x2="244.00" y2="160.42" stroke="#9ca3af" stroke-width="1"/><text x="232.00" y="164.42" text-anchor="end" fill="#6b7280" font-size="11">3</text><line x1="236.00" y1="133.90" x2="244.00" y2="133.90" stroke="#9ca3af" stroke-width="1"/><text x="232.00" y="137.90" text-anchor="end" fill="#6b7280" font-size="11">4</text><line x1="236.00" y1="107.37" x2="244.00" y2="107.37" stroke="#9ca3af" stroke-width="1"/><text x="232.00" y="111.37" text-anchor="end" fill="#6b7280" font-size="11">5</text><line x1="236.00" y1="80.85" x2="244.00" y2="80.85" stroke="#9ca3af" stroke-width="1"/><text x="232.00" y="84.85" text-anchor="end" fill="#6b7280" font-size="11">6</text><text x="409.15" y="244.00" text-anchor="start" fill="#9ca3af" font-size="13" font-style="italic">x</text><text x="240.00" y="72.85" text-anchor="middle" fill="#9ca3af" font-size="13" font-style="italic">y</text><text x="232.00" y="254.00" text-anchor="end" fill="#6b7280" font-size="11">O</text><polygon data-id="sq" class="t2g-obj t2g-poly" points="104.16,318.47 122.08,240.94 199.61,258.87 181.69,336.40" fill="none" stroke="#222" stroke-width="1.6"/><polygon data-id="tri" class="t2g-obj t2g-poly" points="246.83,160.18 339.75,211.39 301.34,281.09" fill="none" stroke="#222" stroke-width="1.6"/><line data-id="AB" class="t2g-obj t2g-seg" x1="104.16" y1="318.47" x2="122.08" y2="240.94" stroke="#222" stroke-width="1.6"/><line data-id="BC" class="t2g-obj t2g-seg" x1="122.08" y1="240.94" x2="199.61" y2="258.87" stroke="#222" stroke-width="1.6"/><line data-id="CD" class="t2g-obj t2g-seg" x1="199.61" y1="258.87" x2="181.69" y2="336.40" stroke="#222" stroke-width="1.6"/><line data-id="DA" class="t2g-obj t2g-seg" x1="181.69" y1="336.40" x2="104.16" y2="318.47" stroke="#222" stroke-width="1.6"/><line data-id="EF" class="t2g-obj t2g-seg" x1="246.83" y1="160.18" x2="339.75" y2="211.39" stroke="#222" stroke-width="1.6"/><line data-id="FG" class="t2g-obj t2g-seg" x1="339.75" y1="211.39" x2="301.34" y2="281.09" stroke="#222" stroke-width="1.6"/><line data-id="GE" class="t2g-obj t2g-seg" x1="301.34" y1="281.09" x2="246.83" y2="160.18" stroke="#222" stroke-width="1.6"/><circle data-id="O" class="t2g-obj t2g-point" cx="240.00" cy="240.00" r="3.0" fill="#222"/><text x="249.88" y="237.18" text-anchor="middle" fill="#222">O</text><circle data-id="A" class="t2g-obj t2g-point" cx="104.16" cy="318.47" r="3.0" fill="#222"/><text x="93.66" y="328.29" text-anchor="middle" fill="#222">A</text><circle data-id="B" class="t2g-obj t2g-point" cx="122.08" cy="240.94" r="3.0" fill="#222"/><text x="110.23" y="243.07" text-anchor="middle" fill="#222">B</text><circle data-id="C" class="t2g-obj t2g-point" cx="199.61" cy="258.87" r="3.0" fill="#222"/><text x="187.78" y="264.89" text-anchor="middle" fill="#222">C</text><circle data-id="D" class="t2g-obj t2g-point" cx="181.69" cy="336.40" r="3.0" fill="#222"/><text x="176.87" y="351.39" text-anchor="middle" fill="#222">D</text><circle data-id="E" class="t2g-obj t2g-point" cx="246.83" cy="160.18" r="3.0" fill="#222"/><text x="250.40" y="152.73" text-anchor="middle" fill="#222">E</text><circle data-id="F" class="t2g-obj t2g-point" cx="339.75" cy="211.39" r="3.0" fill="#222"/><text x="351.03" y="211.30" text-anchor="middle" fill="#222">F</text><circle data-id="G" class="t2g-obj t2g-point" cx="301.34" cy="281.09" r="3.0" fill="#222"/><text x="312.84" y="288.51" text-anchor="middle" fill="#222">G</text><polyline points="119.83,250.69 129.57,252.94 131.83,243.20" fill="none" stroke="#222" stroke-width="1.2"/><polyline points="189.87,256.62 187.62,266.36 197.36,268.61" fill="none" stroke="#222" stroke-width="1.2"/><line x1="110.20" y1="279.03" x2="116.04" y2="280.38" stroke="#222" stroke-width="1.2"/><line x1="161.52" y1="246.98" x2="160.17" y2="252.83" stroke="#222" stroke-width="1.2"/><line x1="193.57" y1="298.31" x2="187.73" y2="296.96" stroke="#222" stroke-width="1.2"/><line x1="142.25" y1="330.36" x2="143.60" y2="324.51" stroke="#222" stroke-width="1.2"/></svg>