<svg xmlns="http://www.w3.org/2000/svg" viewBox="0 0 480 480" width="480" height="480" data-t2g-scale="4.101984908937557" data-t2g-offset-x="51.631214713138974" data-t2g-offset-y="39.99999999999997" data-t2g-bbox-minx="-70.68044156328989" data-t2g-bbox-miny="-87.99630553481107" data-t2g-canvas-size="480" font-family="PingFang SC, Source Han Sans SC, Noto Sans CJK SC, sans-serif" font-size="14.0"><rect width="100%" height="100%" fill="white"/><polygon data-id="tri" class="t2g-obj t2g-poly" points="341.56,79.04 90.67,79.04 154.36,400.96" fill="none" stroke="#222" stroke-width="1.6"/><polygon data-id="sq1" class="t2g-obj t2g-poly" points="100.12,126.81 147.89,368.25 389.33,320.48 341.56,79.04" fill="none" stroke="#222" stroke-width="1.6"/><polygon data-id="sq2" class="t2g-obj t2g-poly" points="147.89,368.25 100.12,126.81 341.56,79.04 389.33,320.48" fill="none" stroke="#222" stroke-width="1.6"/><line data-id="AB" class="t2g-obj t2g-seg" x1="341.56" y1="79.04" x2="90.67" y2="79.04" stroke="#222" stroke-width="1.6"/><line data-id="BC" class="t2g-obj t2g-seg" x1="90.67" y1="79.04" x2="154.36" y2="400.96" stroke="#222" stroke-width="1.6"/><line data-id="CA" class="t2g-obj t2g-seg" x1="154.36" y1="400.96" x2="341.56" y2="79.04" stroke="#222" stroke-width="1.6"/><line data-id="AD" class="t2g-obj t2g-seg" x1="341.56" y1="79.04" x2="100.12" y2="126.81" stroke="#222" stroke-width="1.6"/><line data-id="EF" class="t2g-obj t2g-seg" x1="100.12" y1="126.81" x2="147.89" y2="368.25" stroke="#222" stroke-width="1.6"/><line data-id="FG" class="t2g-obj t2g-seg" x1="147.89" y1="368.25" x2="389.33" y2="320.48" stroke="#222" stroke-width="1.6"/><line data-id="GH" class="t2g-obj t2g-seg" x1="389.33" y1="320.48" x2="341.56" y2="79.04" stroke="#222" stroke-width="1.6"/><line data-id="HE" class="t2g-obj t2g-seg" x1="341.56" y1="79.04" x2="100.12" y2="126.81" stroke="#222" stroke-width="1.6"/><line data-id="GM" class="t2g-obj t2g-seg" x1="389.33" y1="320.48" x2="341.56" y2="79.04" stroke="#222" stroke-width="1.6"/><line data-id="MN" class="t2g-obj t2g-seg" x1="341.56" y1="79.04" x2="100.12" y2="126.81" stroke="#222" stroke-width="1.6"/><line data-id="NF" class="t2g-obj t2g-seg" x1="100.12" y1="126.81" x2="147.89" y2="368.25" stroke="#222" stroke-width="1.6"/><circle data-id="A" class="t2g-obj t2g-point" cx="341.56" cy="79.04" r="3.0" fill="#222"/><text x="351.11" y="75.77" text-anchor="middle" fill="#222">A</text><circle data-id="B" class="t2g-obj t2g-point" cx="90.67" cy="79.04" r="3.0" fill="#222"/><text x="81.44" y="75.38" text-anchor="middle" fill="#222">B</text><circle data-id="C" class="t2g-obj t2g-point" cx="154.36" cy="400.96" r="3.0" fill="#222"/><text x="151.41" y="416.59" text-anchor="middle" fill="#222">C</text><circle data-id="D" class="t2g-obj t2g-point" cx="100.12" cy="126.81" r="3.0" fill="#222"/><text x="89.26" y="125.72" text-anchor="middle" fill="#222">D</text><circle data-id="E" class="t2g-obj t2g-point" cx="100.12" cy="126.81" r="3.0" fill="#222"/><text x="89.26" y="125.72" text-anchor="middle" fill="#222">E</text><circle data-id="F" class="t2g-obj t2g-point" cx="147.89" cy="368.25" r="3.0" fill="#222"/><text x="144.11" y="383.64" text-anchor="middle" fill="#222">F</text><circle data-id="G" class="t2g-obj t2g-point" cx="389.33" cy="320.48" r="3.0" fill="#222"/><text x="398.73" y="331.94" text-anchor="middle" fill="#222">G</text><circle data-id="H" class="t2g-obj t2g-point" cx="341.56" cy="79.04" r="3.0" fill="#222"/><text x="351.11" y="75.77" text-anchor="middle" fill="#222">H</text><circle data-id="M" class="t2g-obj t2g-point" cx="341.56" cy="79.04" r="3.0" fill="#222"/><text x="351.11" y="75.77" text-anchor="middle" fill="#222">M</text><circle data-id="N" class="t2g-obj t2g-point" cx="100.12" cy="126.81" r="3.0" fill="#222"/><text x="89.26" y="125.72" text-anchor="middle" fill="#222">N</text><polyline points="145.95,358.44 155.76,356.50 157.70,366.31" fill="none" stroke="#222" stroke-width="1.2"/><polyline points="379.52,322.42 377.58,312.61 387.39,310.67" fill="none" stroke="#222" stroke-width="1.2"/><polyline points="145.95,358.44 155.76,356.50 157.70,366.31" fill="none" stroke="#222" stroke-width="1.2"/><line x1="126.95" y1="246.94" x2="121.06" y2="248.11" stroke="#222" stroke-width="1.2"/><line x1="268.03" y1="341.42" x2="269.19" y2="347.31" stroke="#222" stroke-width="1.2"/><line x1="362.50" y1="200.34" x2="368.39" y2="199.18" stroke="#222" stroke-width="1.2"/><line x1="221.42" y1="105.87" x2="220.26" y2="99.98" stroke="#222" stroke-width="1.2"/><line x1="126.56" y1="244.98" x2="120.67" y2="246.15" stroke="#222" stroke-width="1.2"/><line x1="127.34" y1="248.91" x2="121.45" y2="250.07" stroke="#222" stroke-width="1.2"/><line x1="223.39" y1="105.48" x2="222.22" y2="99.59" stroke="#222" stroke-width="1.2"/><line x1="219.46" y1="106.26" x2="218.30" y2="100.37" stroke="#222" stroke-width="1.2"/><line x1="362.89" y1="202.30" x2="368.78" y2="201.14" stroke="#222" stroke-width="1.2"/><line x1="362.11" y1="198.38" x2="368.00" y2="197.22" stroke="#222" stroke-width="1.2"/><line x1="266.06" y1="341.81" x2="267.23" y2="347.69" stroke="#222" stroke-width="1.2"/><line x1="269.99" y1="341.03" x2="271.15" y2="346.92" stroke="#222" stroke-width="1.2"/><text x="180.46" y="228.54" text-anchor="middle" fill="#555" font-style="italic">80</text><text x="229.44" y="146.38" text-anchor="middle" fill="#555" font-style="italic">60</text></svg>