<svg xmlns="http://www.w3.org/2000/svg" viewBox="0 0 480 480" width="480" height="480" data-t2g-scale="32.85555539710785" data-t2g-offset-x="67.21867404478797" data-t2g-offset-y="39.99999999999997" data-t2g-bbox-minx="-5.258816168739041" data-t2g-bbox-miny="-5.258816245235242" data-t2g-canvas-size="480" font-family="PingFang SC, Source Han Sans SC, Noto Sans CJK SC, sans-serif" font-size="14.0"><rect width="100%" height="100%" fill="white"/><circle data-id="circ" class="t2g-obj t2g-circle" cx="240.00" cy="267.22" r="131.42" fill="none" stroke="#222" stroke-width="1.6"/><line data-id="OA" class="t2g-obj t2g-seg" x1="240.00" y1="267.22" x2="371.42" y2="267.22" stroke="#222" stroke-width="1.6"/><line data-id="AB" class="t2g-obj t2g-seg" x1="371.42" y1="267.22" x2="305.71" y2="153.40" stroke="#222" stroke-width="1.6"/><line data-id="BC" class="t2g-obj t2g-seg" x1="305.71" y1="153.40" x2="174.29" y2="153.40" stroke="#222" stroke-width="1.6"/><line data-id="CD" class="t2g-obj t2g-seg" x1="174.29" y1="153.40" x2="108.58" y2="267.22" stroke="#222" stroke-width="1.6"/><line data-id="AC" class="t2g-obj t2g-seg" x1="371.42" y1="267.22" x2="174.29" y2="153.40" stroke="#222" stroke-width="1.6"/><line data-id="AE" class="t2g-obj t2g-seg" x1="371.42" y1="267.22" x2="240.00" y2="81.36" stroke="#222" stroke-width="1.6"/><line data-id="DE" class="t2g-obj t2g-seg" x1="108.58" y1="267.22" x2="240.00" y2="81.36" stroke="#222" stroke-width="1.6"/><line data-id="OE" class="t2g-obj t2g-seg" x1="240.00" y1="267.22" x2="240.00" y2="81.36" stroke="#222" stroke-width="1.6"/><line data-id="AG" class="t2g-obj t2g-seg" x1="371.42" y1="267.22" x2="240.00" y2="135.80" stroke="#222" stroke-width="1.6"/><line data-id="AH" class="t2g-obj t2g-seg" x1="371.42" y1="267.22" x2="240.00" y2="398.64" stroke="#222" stroke-width="1.6"/><circle data-id="O" class="t2g-obj t2g-point" cx="240.00" cy="267.22" r="3.0" fill="#222"/><text x="240.00" y="283.22" text-anchor="middle" fill="#222">O</text><circle data-id="A" class="t2g-obj t2g-point" cx="371.42" cy="267.22" r="3.0" fill="#222"/><text x="382.59" y="275.61" text-anchor="middle" fill="#222">A</text><circle data-id="B" class="t2g-obj t2g-point" cx="305.71" cy="153.40" r="3.0" fill="#222"/><text x="314.43" y="149.16" text-anchor="middle" fill="#222">B</text><circle data-id="C" class="t2g-obj t2g-point" cx="174.29" cy="153.40" r="3.0" fill="#222"/><text x="165.57" y="149.16" text-anchor="middle" fill="#222">C</text><circle data-id="D" class="t2g-obj t2g-point" cx="108.58" cy="267.22" r="3.0" fill="#222"/><text x="97.41" y="275.61" text-anchor="middle" fill="#222">D</text><circle data-id="E" class="t2g-obj t2g-point" cx="240.00" cy="81.36" r="3.0" fill="#222"/><text x="240.00" y="73.36" text-anchor="middle" fill="#222">E</text><circle data-id="G" class="t2g-obj t2g-point" cx="240.00" cy="135.80" r="3.0" fill="#222"/><text x="240.00" y="127.80" text-anchor="middle" fill="#222">G</text><circle data-id="H" class="t2g-obj t2g-point" cx="240.00" cy="398.64" r="3.0" fill="#222"/><text x="240.00" y="414.64" text-anchor="middle" fill="#222">H</text><line x1="305.71" y1="264.22" x2="305.71" y2="270.22" stroke="#222" stroke-width="1.2"/><line x1="335.97" y1="211.81" x2="341.16" y2="208.81" stroke="#222" stroke-width="1.2"/><line x1="240.00" y1="156.40" x2="240.00" y2="150.40" stroke="#222" stroke-width="1.2"/><line x1="144.03" y1="211.81" x2="138.84" y2="208.81" stroke="#222" stroke-width="1.2"/><line x1="304.42" y1="177.65" x2="309.32" y2="174.19" stroke="#222" stroke-width="1.2"/><line x1="302.11" y1="174.39" x2="307.01" y2="170.92" stroke="#222" stroke-width="1.2"/><line x1="273.09" y1="213.91" x2="276.09" y2="208.71" stroke="#222" stroke-width="1.2"/><line x1="269.62" y1="211.91" x2="272.62" y2="206.71" stroke="#222" stroke-width="1.2"/><line x1="170.68" y1="174.19" x2="175.58" y2="177.65" stroke="#222" stroke-width="1.2"/><line x1="172.99" y1="170.92" x2="177.89" y2="174.39" stroke="#222" stroke-width="1.2"/><line x1="306.42" y1="206.46" x2="310.66" y2="202.21" stroke="#222" stroke-width="1.2"/><line x1="303.59" y1="203.63" x2="307.83" y2="199.39" stroke="#222" stroke-width="1.2"/><line x1="300.76" y1="200.80" x2="305.00" y2="196.56" stroke="#222" stroke-width="1.2"/><line x1="310.66" y1="332.22" x2="306.42" y2="327.98" stroke="#222" stroke-width="1.2"/><line x1="307.83" y1="335.05" x2="303.59" y2="330.81" stroke="#222" stroke-width="1.2"/><line x1="305.00" y1="337.88" x2="300.76" y2="333.64" stroke="#222" stroke-width="1.2"/><line x1="237.00" y1="178.29" x2="243.00" y2="178.29" stroke="#222" stroke-width="1.2"/><line x1="237.00" y1="174.29" x2="243.00" y2="174.29" stroke="#222" stroke-width="1.2"/><line x1="237.00" y1="170.29" x2="243.00" y2="170.29" stroke="#222" stroke-width="1.2"/></svg>