<svg xmlns="http://www.w3.org/2000/svg" viewBox="0 0 480 480" width="480" height="480" data-t2g-scale="55.443903320943726" data-t2g-offset-x="40.0" data-t2g-offset-y="102.40424377374612" data-t2g-bbox-minx="-6.435676759431466" data-t2g-bbox-miny="-3.607249634685276" data-t2g-canvas-size="480" font-family="PingFang SC, Source Han Sans SC, Noto Sans CJK SC, sans-serif" font-size="14.0"><rect width="100%" height="100%" fill="white"/><polygon data-id="tri1" class="t2g-obj t2g-poly" points="396.82,177.60 83.18,177.60 240.00,334.41" fill="none" stroke="#222" stroke-width="1.6"/><polygon data-id="tri2" class="t2g-obj t2g-poly" points="184.56,177.60 240.00,334.41 275.10,145.59" fill="none" stroke="#222" stroke-width="1.6"/><line data-id="AB" class="t2g-obj t2g-seg" x1="396.82" y1="177.60" x2="83.18" y2="177.60" stroke="#222" stroke-width="1.6"/><line data-id="BC" class="t2g-obj t2g-seg" x1="83.18" y1="177.60" x2="240.00" y2="334.41" stroke="#222" stroke-width="1.6"/><line data-id="CA" class="t2g-obj t2g-seg" x1="240.00" y1="334.41" x2="396.82" y2="177.60" stroke="#222" stroke-width="1.6"/><line data-id="CE" class="t2g-obj t2g-seg" x1="240.00" y1="334.41" x2="184.56" y2="177.60" stroke="#222" stroke-width="1.6"/><line data-id="CD" class="t2g-obj t2g-seg" x1="240.00" y1="334.41" x2="275.10" y2="145.59" stroke="#222" stroke-width="1.6"/><line data-id="DE" class="t2g-obj t2g-seg" x1="275.10" y1="145.59" x2="184.56" y2="177.60" stroke="#222" stroke-width="1.6"/><circle data-id="A" class="t2g-obj t2g-point" cx="396.82" cy="177.60" r="3.0" fill="#222"/><text x="408.68" y="179.76" text-anchor="middle" fill="#222">A</text><circle data-id="B" class="t2g-obj t2g-point" cx="83.18" cy="177.60" r="3.0" fill="#222"/><text x="71.34" y="179.66" text-anchor="middle" fill="#222">B</text><circle data-id="C" class="t2g-obj t2g-point" cx="240.00" cy="334.41" r="3.0" fill="#222"/><text x="240.37" y="350.41" text-anchor="middle" fill="#222">C</text><circle data-id="D" class="t2g-obj t2g-point" cx="275.10" cy="145.59" r="3.0" fill="#222"/><text x="281.89" y="139.70" text-anchor="middle" fill="#222">D</text><circle data-id="E" class="t2g-obj t2g-point" cx="184.56" cy="177.60" r="3.0" fill="#222"/><text x="173.76" y="176.35" text-anchor="middle" fill="#222">E</text><polyline points="247.07,327.34 240.00,320.27 232.93,327.34" fill="none" stroke="#222" stroke-width="1.2"/><polyline points="187.89,187.02 197.32,183.69 193.98,174.26" fill="none" stroke="#222" stroke-width="1.2"/><line x1="316.29" y1="253.88" x2="320.53" y2="258.13" stroke="#222" stroke-width="1.2"/><line x1="163.71" y1="253.88" x2="159.47" y2="258.13" stroke="#222" stroke-width="1.2"/><path d="M 244.39 310.82 A 24.00 24.00 0 0 0 232.00 311.79" fill="none" stroke="#888" stroke-width="1"/><text x="413.45" y="160.96" text-anchor="middle" fill="#555" font-style="italic">45°</text><text x="99.81" y="160.96" text-anchor="middle" fill="#555" font-style="italic">45°</text><text x="256.63" y="317.78" text-anchor="middle" fill="#555" font-style="italic">30°</text><text x="291.73" y="128.95" text-anchor="middle" fill="#555" font-style="italic">60°</text></svg>