<svg xmlns="http://www.w3.org/2000/svg" viewBox="0 0 480 480" width="480" height="480" data-t2g-scale="48.04234483397343" data-t2g-offset-x="87.19211215746984" data-t2g-offset-y="40.0" data-t2g-bbox-minx="-5.4749974533258" data-t2g-bbox-miny="-7.439602316829366" data-t2g-canvas-size="480" font-family="PingFang SC, Source Han Sans SC, Noto Sans CJK SC, sans-serif" font-size="14.0"><rect width="100%" height="100%" fill="white"/><line data-id="AO" class="t2g-obj t2g-seg" x1="350.22" y1="82.58" x2="240.00" y2="240.00" stroke="#222" stroke-width="1.6"/><line data-id="OD" class="t2g-obj t2g-seg" x1="240.00" y1="240.00" x2="129.78" y2="397.42" stroke="#222" stroke-width="1.6"/><line data-id="BO" class="t2g-obj t2g-seg" x1="129.78" y1="82.58" x2="240.00" y2="240.00" stroke="#222" stroke-width="1.6"/><line data-id="OC" class="t2g-obj t2g-seg" x1="240.00" y1="240.00" x2="350.22" y2="397.42" stroke="#222" stroke-width="1.6"/><line data-id="AB" class="t2g-obj t2g-seg" x1="350.22" y1="82.58" x2="129.78" y2="82.58" stroke="#222" stroke-width="1.6"/><line data-id="CD" class="t2g-obj t2g-seg" x1="350.22" y1="397.42" x2="129.78" y2="397.42" stroke="#222" stroke-width="1.6"/><circle data-id="A" class="t2g-obj t2g-point" cx="350.22" cy="82.58" r="3.0" fill="#222"/><text x="357.11" y="76.75" text-anchor="middle" fill="#222">A</text><circle data-id="B" class="t2g-obj t2g-point" cx="129.78" cy="82.58" r="3.0" fill="#222"/><text x="122.89" y="76.75" text-anchor="middle" fill="#222">B</text><circle data-id="O" class="t2g-obj t2g-point" cx="240.00" cy="240.00" r="3.0" fill="#222"/><text x="240.00" y="244.00" text-anchor="middle" fill="#222">O</text><circle data-id="C" class="t2g-obj t2g-point" cx="350.22" cy="397.42" r="3.0" fill="#222"/><text x="357.11" y="411.25" text-anchor="middle" fill="#222">C</text><circle data-id="D" class="t2g-obj t2g-point" cx="129.78" cy="397.42" r="3.0" fill="#222"/><text x="122.89" y="411.25" text-anchor="middle" fill="#222">D</text><path d="M 253.77 220.34 A 24.00 24.00 0 0 0 226.23 220.34" fill="none" stroke="#888" stroke-width="1"/><text x="240.00" y="437.10" text-anchor="middle" fill="#555" font-style="italic">165米</text></svg>