<svg xmlns="http://www.w3.org/2000/svg" viewBox="0 0 480 480" width="480" height="480" data-t2g-scale="62.5" data-t2g-offset-x="102.5" data-t2g-offset-y="40.0" data-t2g-bbox-minx="-3.7" data-t2g-bbox-miny="-0.7" data-t2g-canvas-size="480" font-family="PingFang SC, Source Han Sans SC, Noto Sans CJK SC, sans-serif" font-size="14.0"><rect width="100%" height="100%" fill="white"/><polygon data-id="tri1" class="t2g-obj t2g-poly" points="333.75,396.25 240.00,233.87 146.25,396.25" fill="none" stroke="#222" stroke-width="1.6"/><polygon data-id="tri2" class="t2g-obj t2g-poly" points="146.25,396.25 208.75,288.00 271.25,396.25" fill="none" stroke="#222" stroke-width="1.6"/><line data-id="AC" class="t2g-obj t2g-seg" x1="333.75" y1="396.25" x2="146.25" y2="396.25" stroke="#222" stroke-width="1.6"/><line data-id="CE" class="t2g-obj t2g-seg" x1="146.25" y1="396.25" x2="271.25" y2="396.25" stroke="#222" stroke-width="1.6"/><line data-id="AB" class="t2g-obj t2g-seg" x1="333.75" y1="396.25" x2="240.00" y2="233.87" stroke="#222" stroke-width="1.6"/><line data-id="BC" class="t2g-obj t2g-seg" x1="240.00" y1="233.87" x2="146.25" y2="396.25" stroke="#222" stroke-width="1.6"/><line data-id="CD" class="t2g-obj t2g-seg" x1="146.25" y1="396.25" x2="208.75" y2="288.00" stroke="#222" stroke-width="1.6"/><line data-id="DE" class="t2g-obj t2g-seg" x1="208.75" y1="288.00" x2="271.25" y2="396.25" stroke="#222" stroke-width="1.6"/><line data-id="AD" class="t2g-obj t2g-seg" x1="333.75" y1="396.25" x2="208.75" y2="288.00" stroke="#222" stroke-width="1.6"/><line data-id="BE" class="t2g-obj t2g-seg" x1="240.00" y1="233.87" x2="271.25" y2="396.25" stroke="#222" stroke-width="1.6"/><line data-id="PQ" class="t2g-obj t2g-seg" x1="208.75" y1="288.00" x2="240.00" y2="233.87" stroke="#222" stroke-width="1.6"/><circle data-id="A" class="t2g-obj t2g-point" cx="333.75" cy="396.25" r="3.0" fill="#222"/><text x="341.41" y="409.48" text-anchor="middle" fill="#222">A</text><circle data-id="C" class="t2g-obj t2g-point" cx="146.25" cy="396.25" r="3.0" fill="#222"/><text x="137.74" y="408.71" text-anchor="middle" fill="#222">C</text><circle data-id="E" class="t2g-obj t2g-point" cx="271.25" cy="396.25" r="3.0" fill="#222"/><text x="273.80" y="411.98" text-anchor="middle" fill="#222">E</text><circle data-id="B" class="t2g-obj t2g-point" cx="240.00" cy="233.87" r="3.0" fill="#222"/><text x="238.22" y="226.00" text-anchor="middle" fill="#222">B</text><circle data-id="D" class="t2g-obj t2g-point" cx="208.75" cy="288.00" r="3.0" fill="#222"/><text x="196.89" y="290.18" text-anchor="middle" fill="#222">D</text><circle data-id="O" class="t2g-obj t2g-point" cx="258.75" cy="331.30" r="3.0" fill="#222"/><text x="261.79" y="346.91" text-anchor="middle" fill="#222">O</text><circle data-id="P" class="t2g-obj t2g-point" cx="208.75" cy="288.00" r="3.0" fill="#222"/><text x="196.89" y="290.18" text-anchor="middle" fill="#222">P</text><circle data-id="Q" class="t2g-obj t2g-point" cx="240.00" cy="233.87" r="3.0" fill="#222"/><text x="238.22" y="226.00" text-anchor="middle" fill="#222">Q</text><line x1="284.28" y1="316.56" x2="289.47" y2="313.56" stroke="#222" stroke-width="1.2"/><line x1="195.72" y1="316.56" x2="190.53" y2="313.56" stroke="#222" stroke-width="1.2"/><line x1="240.00" y1="399.25" x2="240.00" y2="393.25" stroke="#222" stroke-width="1.2"/><line x1="173.90" y1="342.36" x2="179.10" y2="345.36" stroke="#222" stroke-width="1.2"/><line x1="175.90" y1="338.89" x2="181.10" y2="341.89" stroke="#222" stroke-width="1.2"/><line x1="241.60" y1="338.89" x2="236.40" y2="341.89" stroke="#222" stroke-width="1.2"/><line x1="243.60" y1="342.36" x2="238.40" y2="345.36" stroke="#222" stroke-width="1.2"/><line x1="206.75" y1="393.25" x2="206.75" y2="399.25" stroke="#222" stroke-width="1.2"/><line x1="210.75" y1="393.25" x2="210.75" y2="399.25" stroke="#222" stroke-width="1.2"/></svg>