<svg xmlns="http://www.w3.org/2000/svg" viewBox="0 0 480 480" width="480" height="480" data-t2g-scale="51.95604680618924" data-t2g-offset-x="40.0" data-t2g-offset-y="112.06727691308434" data-t2g-bbox-minx="-6.873123356325352" data-t2g-bbox-miny="-0.8256917881777163" data-t2g-canvas-size="480" font-family="PingFang SC, Source Han Sans SC, Noto Sans CJK SC, sans-serif" font-size="14.0"><rect width="100%" height="100%" fill="white"/><polygon data-id="tri" class="t2g-obj t2g-poly" points="397.10,325.03 82.90,325.03 298.91,154.97" fill="none" stroke="#222" stroke-width="1.6"/><line data-id="AB" class="t2g-obj t2g-seg" x1="397.10" y1="325.03" x2="82.90" y2="325.03" stroke="#222" stroke-width="1.6"/><line data-id="BC" class="t2g-obj t2g-seg" x1="82.90" y1="325.03" x2="298.91" y2="154.97" stroke="#222" stroke-width="1.6"/><line data-id="CA" class="t2g-obj t2g-seg" x1="298.91" y1="154.97" x2="397.10" y2="325.03" stroke="#222" stroke-width="1.6"/><line data-id="BD" class="t2g-obj t2g-seg" x1="82.90" y1="325.03" x2="279.28" y2="257.01" stroke="#222" stroke-width="1.6"/><line data-id="CD" class="t2g-obj t2g-seg" x1="298.91" y1="154.97" x2="279.28" y2="257.01" stroke="#222" stroke-width="1.6"/><circle data-id="A" class="t2g-obj t2g-point" cx="397.10" cy="325.03" r="3.0" fill="#222"/><text x="408.05" y="333.95" text-anchor="middle" fill="#222">A</text><circle data-id="B" class="t2g-obj t2g-point" cx="82.90" cy="325.03" r="3.0" fill="#222"/><text x="71.50" y="332.77" text-anchor="middle" fill="#222">B</text><circle data-id="C" class="t2g-obj t2g-point" cx="298.91" cy="154.97" r="3.0" fill="#222"/><text x="302.48" y="147.51" text-anchor="middle" fill="#222">C</text><circle data-id="D" class="t2g-obj t2g-point" cx="279.28" cy="257.01" r="3.0" fill="#222"/><text x="289.67" y="255.01" text-anchor="middle" fill="#222">D</text><path d="M 373.10 325.03 A 24.00 24.00 0 0 1 385.10 304.25" fill="none" stroke="#888" stroke-width="1"/><text x="168.84" y="255.67" text-anchor="middle" fill="#555" font-style="italic">4</text><text x="307.46" y="209.52" text-anchor="middle" fill="#555" font-style="italic">2</text><text x="412.69" y="309.45" text-anchor="middle" fill="#555" font-style="italic">60°</text></svg>