<svg xmlns="http://www.w3.org/2000/svg" viewBox="0 0 480 480" width="480" height="480" data-t2g-scale="54.90520960049976" data-t2g-offset-x="59.59945909548449" data-t2g-offset-y="40.0" data-t2g-bbox-minx="-5.7856725658119235" data-t2g-bbox-miny="-3.999610614244621" data-t2g-canvas-size="480" font-family="PingFang SC, Source Han Sans SC, Noto Sans CJK SC, sans-serif" font-size="14.0"><rect width="100%" height="100%" fill="white"/><circle data-id="circ" class="t2g-obj t2g-circle" cx="240.00" cy="220.40" r="137.26" fill="none" stroke="#222" stroke-width="1.6"/><polygon data-id="tri" class="t2g-obj t2g-poly" points="377.26,220.40 102.74,220.40 166.96,396.86" fill="none" stroke="#222" stroke-width="1.6"/><line data-id="AB" class="t2g-obj t2g-seg" x1="377.26" y1="220.40" x2="102.74" y2="220.40" stroke="#222" stroke-width="1.6"/><line data-id="BC" class="t2g-obj t2g-seg" x1="102.74" y1="220.40" x2="166.96" y2="396.86" stroke="#222" stroke-width="1.6"/><line data-id="CA" class="t2g-obj t2g-seg" x1="166.96" y1="396.86" x2="377.26" y2="220.40" stroke="#222" stroke-width="1.6"/><line data-id="DE" class="t2g-obj t2g-seg" x1="134.85" y1="308.63" x2="191.56" y2="376.22" stroke="#222" stroke-width="1.6"/><circle data-id="A" class="t2g-obj t2g-point" cx="377.26" cy="220.40" r="3.0" fill="#222"/><text x="388.40" y="219.94" text-anchor="middle" fill="#222">A</text><circle data-id="B" class="t2g-obj t2g-point" cx="102.74" cy="220.40" r="3.0" fill="#222"/><text x="92.93" y="217.49" text-anchor="middle" fill="#222">B</text><circle data-id="C" class="t2g-obj t2g-point" cx="166.96" cy="396.86" r="3.0" fill="#222"/><text x="163.19" y="412.25" text-anchor="middle" fill="#222">C</text><circle data-id="O" class="t2g-obj t2g-point" cx="240.00" cy="220.40" r="3.0" fill="#222"/><text x="245.69" y="213.84" text-anchor="middle" fill="#222">O</text><circle data-id="D" class="t2g-obj t2g-point" cx="134.85" cy="308.63" r="3.0" fill="#222"/><text x="123.26" y="315.75" text-anchor="middle" fill="#222">D</text><circle data-id="E" class="t2g-obj t2g-point" cx="191.56" cy="376.22" r="3.0" fill="#222"/><text x="190.08" y="392.13" text-anchor="middle" fill="#222">E</text><line x1="240.00" y1="223.40" x2="240.00" y2="217.40" stroke="#222" stroke-width="1.2"/><line x1="270.19" y1="306.33" x2="274.04" y2="310.93" stroke="#222" stroke-width="1.2"/><path d="M 126.74 220.40 A 24.00 24.00 0 0 1 110.95 242.95" fill="none" stroke="#888" stroke-width="1"/></svg>