<svg xmlns="http://www.w3.org/2000/svg" viewBox="0 0 480 480" width="480" height="480" data-t2g-scale="62.22159152989112" data-t2g-offset-x="194.83550535347905" data-t2g-offset-y="40.0" data-t2g-bbox-minx="-0.7258653071389858" data-t2g-bbox-miny="-0.7258653071389858" data-t2g-canvas-size="480" font-family="PingFang SC, Source Han Sans SC, Noto Sans CJK SC, sans-serif" font-size="14.0"><rect width="100%" height="100%" fill="white"/><circle data-id="circ" class="t2g-obj t2g-circle" cx="240.00" cy="394.84" r="1.44" fill="none" stroke="#222" stroke-width="1.6"/><line data-id="OA" class="t2g-obj t2g-seg" x1="240.00" y1="394.84" x2="238.56" y2="394.84" stroke="#222" stroke-width="1.6"/><line data-id="AB" class="t2g-obj t2g-seg" x1="238.56" y1="394.84" x2="239.28" y2="393.59" stroke="#222" stroke-width="1.6"/><line data-id="BC" class="t2g-obj t2g-seg" x1="239.28" y1="393.59" x2="240.72" y2="393.59" stroke="#222" stroke-width="1.6"/><line data-id="CD" class="t2g-obj t2g-seg" x1="240.72" y1="393.59" x2="241.44" y2="394.84" stroke="#222" stroke-width="1.6"/><line data-id="AC" class="t2g-obj t2g-seg" x1="238.56" y1="394.84" x2="240.72" y2="393.59" stroke="#222" stroke-width="1.6"/><line data-id="AD" class="t2g-obj t2g-seg" x1="238.56" y1="394.84" x2="241.44" y2="394.84" stroke="#222" stroke-width="1.6"/><line data-id="AE" class="t2g-obj t2g-seg" x1="238.56" y1="394.84" x2="240.00" y2="392.80" stroke="#222" stroke-width="1.6"/><line data-id="DE" class="t2g-obj t2g-seg" x1="241.44" y1="394.84" x2="240.00" y2="392.80" stroke="#222" stroke-width="1.6"/><line data-id="OE" class="t2g-obj t2g-seg" x1="240.00" y1="394.84" x2="240.00" y2="392.80" stroke="#222" stroke-width="1.6"/><line data-id="AG" class="t2g-obj t2g-seg" x1="238.56" y1="394.84" x2="240.00" y2="396.27" stroke="#222" stroke-width="1.6"/><line data-id="AH" class="t2g-obj t2g-seg" x1="238.56" y1="394.84" x2="240.00" y2="396.27" stroke="#222" stroke-width="1.6"/><circle data-id="O" class="t2g-obj t2g-point" cx="240.00" cy="394.84" r="3.0" fill="#222"/><text x="240.00" y="410.84" text-anchor="middle" fill="#222">O</text><circle data-id="A" class="t2g-obj t2g-point" cx="238.56" cy="394.84" r="3.0" fill="#222"/><text x="238.07" y="410.83" text-anchor="middle" fill="#222">A</text><circle data-id="B" class="t2g-obj t2g-point" cx="239.28" cy="393.59" r="3.0" fill="#222"/><text x="239.02" y="409.59" text-anchor="middle" fill="#222">B</text><circle data-id="C" class="t2g-obj t2g-point" cx="240.72" cy="393.59" r="3.0" fill="#222"/><text x="240.98" y="409.59" text-anchor="middle" fill="#222">C</text><circle data-id="D" class="t2g-obj t2g-point" cx="241.44" cy="394.84" r="3.0" fill="#222"/><text x="241.93" y="410.83" text-anchor="middle" fill="#222">D</text><circle data-id="E" class="t2g-obj t2g-point" cx="240.00" cy="392.80" r="3.0" fill="#222"/><text x="240.00" y="408.80" text-anchor="middle" fill="#222">E</text><circle data-id="G" class="t2g-obj t2g-point" cx="240.00" cy="396.27" r="3.0" fill="#222"/><text x="240.00" y="412.27" text-anchor="middle" fill="#222">G</text><circle data-id="H" class="t2g-obj t2g-point" cx="240.00" cy="396.27" r="3.0" fill="#222"/><text x="240.00" y="412.27" text-anchor="middle" fill="#222">H</text><line x1="239.28" y1="397.84" x2="239.28" y2="391.84" stroke="#222" stroke-width="1.2"/><line x1="236.32" y1="392.71" x2="241.52" y2="395.71" stroke="#222" stroke-width="1.2"/><line x1="240.00" y1="390.59" x2="240.00" y2="396.59" stroke="#222" stroke-width="1.2"/><line x1="243.68" y1="392.71" x2="238.48" y2="395.71" stroke="#222" stroke-width="1.2"/><line x1="235.68" y1="393.72" x2="240.58" y2="397.18" stroke="#222" stroke-width="1.2"/><line x1="237.99" y1="390.45" x2="242.89" y2="393.92" stroke="#222" stroke-width="1.2"/><line x1="239.42" y1="397.18" x2="244.32" y2="393.72" stroke="#222" stroke-width="1.2"/><line x1="237.11" y1="393.92" x2="242.01" y2="390.45" stroke="#222" stroke-width="1.2"/><line x1="236.41" y1="392.62" x2="239.41" y2="397.81" stroke="#222" stroke-width="1.2"/><line x1="239.87" y1="390.62" x2="242.87" y2="395.81" stroke="#222" stroke-width="1.2"/><line x1="238.57" y1="390.60" x2="234.33" y2="394.85" stroke="#222" stroke-width="1.2"/><line x1="241.40" y1="393.43" x2="237.16" y2="397.68" stroke="#222" stroke-width="1.2"/><line x1="244.23" y1="396.26" x2="239.99" y2="400.50" stroke="#222" stroke-width="1.2"/><line x1="238.57" y1="390.60" x2="234.33" y2="394.85" stroke="#222" stroke-width="1.2"/><line x1="241.40" y1="393.43" x2="237.16" y2="397.68" stroke="#222" stroke-width="1.2"/><line x1="244.23" y1="396.26" x2="239.99" y2="400.50" stroke="#222" stroke-width="1.2"/><line x1="237.00" y1="397.82" x2="243.00" y2="397.82" stroke="#222" stroke-width="1.2"/><line x1="237.00" y1="393.82" x2="243.00" y2="393.82" stroke="#222" stroke-width="1.2"/><line x1="237.00" y1="389.82" x2="243.00" y2="389.82" stroke="#222" stroke-width="1.2"/></svg>