<svg xmlns="http://www.w3.org/2000/svg" viewBox="0 0 480 480" width="480" height="480" data-t2g-scale="75.06087575502292" data-t2g-offset-x="40.0" data-t2g-offset-y="117.5282893988925" data-t2g-bbox-minx="-4.732652298224974" data-t2g-bbox-miny="-0.5963556033812473" data-t2g-canvas-size="480" font-family="PingFang SC, Source Han Sans SC, Noto Sans CJK SC, sans-serif" font-size="14.0"><rect width="100%" height="100%" fill="white"/><line data-id="AB" class="t2g-obj t2g-seg" x1="395.24" y1="317.71" x2="94.99" y2="317.71" stroke="#222" stroke-width="1.6"/><line data-id="BC" class="t2g-obj t2g-seg" x1="94.99" y1="317.71" x2="385.01" y2="240.00" stroke="#222" stroke-width="1.6"/><line data-id="CD" class="t2g-obj t2g-seg" x1="385.01" y1="240.00" x2="84.76" y2="240.00" stroke="#222" stroke-width="1.6"/><line data-id="DE" class="t2g-obj t2g-seg" x1="84.76" y1="240.00" x2="374.78" y2="162.29" stroke="#222" stroke-width="1.6"/><line data-id="EF" class="t2g-obj t2g-seg" x1="374.78" y1="162.29" x2="114.76" y2="312.41" stroke="#222" stroke-width="1.6"/><circle data-id="A" class="t2g-obj t2g-point" cx="395.24" cy="317.71" r="3.0" fill="#222"/><text x="406.59" y="325.60" text-anchor="middle" fill="#222">A</text><circle data-id="B" class="t2g-obj t2g-point" cx="94.99" cy="317.71" r="3.0" fill="#222"/><text x="83.70" y="325.77" text-anchor="middle" fill="#222">B</text><circle data-id="C" class="t2g-obj t2g-point" cx="385.01" cy="240.00" r="3.0" fill="#222"/><text x="396.83" y="241.94" text-anchor="middle" fill="#222">C</text><circle data-id="D" class="t2g-obj t2g-point" cx="84.76" cy="240.00" r="3.0" fill="#222"/><text x="72.91" y="242.11" text-anchor="middle" fill="#222">D</text><circle data-id="E" class="t2g-obj t2g-point" cx="374.78" cy="162.29" r="3.0" fill="#222"/><text x="384.28" y="158.96" text-anchor="middle" fill="#222">E</text><circle data-id="F" class="t2g-obj t2g-point" cx="114.76" cy="312.41" r="3.0" fill="#222"/><text x="103.52" y="320.61" text-anchor="middle" fill="#222">F</text><line x1="245.12" y1="320.71" x2="245.12" y2="314.71" stroke="#222" stroke-width="1.2"/><line x1="239.22" y1="275.96" x2="240.78" y2="281.75" stroke="#222" stroke-width="1.2"/><line x1="234.88" y1="243.00" x2="234.88" y2="237.00" stroke="#222" stroke-width="1.2"/><line x1="228.99" y1="198.25" x2="230.55" y2="204.04" stroke="#222" stroke-width="1.2"/><line x1="246.27" y1="239.95" x2="243.27" y2="234.75" stroke="#222" stroke-width="1.2"/><path d="M 118.99 317.71 A 24.00 24.00 0 0 0 118.18 311.50" fill="none" stroke="#888" stroke-width="1"/><path d="M 361.82 246.21 A 24.00 24.00 0 0 1 361.01 240.00" fill="none" stroke="#888" stroke-width="1"/><path d="M 108.76 240.00 A 24.00 24.00 0 0 0 107.95 233.79" fill="none" stroke="#888" stroke-width="1"/><path d="M 351.59 168.50 A 24.00 24.00 0 0 0 353.99 174.29" fill="none" stroke="#888" stroke-width="1"/></svg>