<svg xmlns="http://www.w3.org/2000/svg" viewBox="0 0 480 480" width="480" height="480" data-t2g-scale="45.162199090430995" data-t2g-offset-x="40.00000000000003" data-t2g-offset-y="40.0" data-t2g-bbox-minx="-3.6361912695464036" data-t2g-bbox-miny="-4.7883717301091835" data-t2g-canvas-size="480" font-family="PingFang SC, Source Han Sans SC, Noto Sans CJK SC, sans-serif" font-size="14.0"><rect width="100%" height="100%" fill="white"/><circle data-id="circ" class="t2g-obj t2g-circle" cx="240.00" cy="240.00" r="157.65" fill="none" stroke="#222" stroke-width="1.6"/><polygon data-id="quad" class="t2g-obj t2g-poly" points="83.19,223.75 185.54,387.94 376.47,161.08 119.61,138.22" fill="none" stroke="#222" stroke-width="1.6"/><line data-id="AB" class="t2g-obj t2g-seg" x1="83.19" y1="223.75" x2="185.54" y2="387.94" stroke="#222" stroke-width="1.6"/><line data-id="BC" class="t2g-obj t2g-seg" x1="185.54" y1="387.94" x2="376.47" y2="161.08" stroke="#222" stroke-width="1.6"/><line data-id="CD" class="t2g-obj t2g-seg" x1="376.47" y1="161.08" x2="119.61" y2="138.22" stroke="#222" stroke-width="1.6"/><line data-id="DA" class="t2g-obj t2g-seg" x1="119.61" y1="138.22" x2="83.19" y2="223.75" stroke="#222" stroke-width="1.6"/><circle data-id="O" class="t2g-obj t2g-point" cx="204.22" cy="223.75" r="3.0" fill="#222"/><text x="215.69" y="224.22" text-anchor="middle" fill="#222">O</text><circle data-id="A" class="t2g-obj t2g-point" cx="83.19" cy="223.75" r="3.0" fill="#222"/><text x="71.20" y="227.40" text-anchor="middle" fill="#222">A</text><circle data-id="B" class="t2g-obj t2g-point" cx="185.54" cy="387.94" r="3.0" fill="#222"/><text x="184.92" y="403.93" text-anchor="middle" fill="#222">B</text><circle data-id="C" class="t2g-obj t2g-point" cx="376.47" cy="161.08" r="3.0" fill="#222"/><text x="387.76" y="161.01" text-anchor="middle" fill="#222">C</text><circle data-id="D" class="t2g-obj t2g-point" cx="119.61" cy="138.22" r="3.0" fill="#222"/><text x="111.91" y="133.02" text-anchor="middle" fill="#222">D</text><path d="M 92.30 202.37 A 23.24 23.24 0 0 1 95.48 243.47" fill="none" stroke="#888" stroke-width="1"/><text x="96.74" y="210.20" text-anchor="middle" fill="#555" font-style="italic">125°</text></svg>