<svg xmlns="http://www.w3.org/2000/svg" viewBox="0 0 480 480" width="480" height="480" data-t2g-scale="39.52569169960474" data-t2g-offset-x="39.99999999999997" data-t2g-offset-y="39.99999999999997" data-t2g-bbox-minx="-5.0600000000000005" data-t2g-bbox-miny="-5.0600000000000005" data-t2g-canvas-size="480" font-family="PingFang SC, Source Han Sans SC, Noto Sans CJK SC, sans-serif" font-size="14.0"><rect width="100%" height="100%" fill="white"/><circle data-id="circ" class="t2g-obj t2g-circle" cx="240.00" cy="240.00" r="158.10" fill="none" stroke="#222" stroke-width="1.6"/><polygon data-id="quad" class="t2g-obj t2g-poly" points="81.90,240.00 154.74,373.14 225.77,397.46 144.05,114.34" fill="none" stroke="#222" stroke-width="1.6"/><line data-id="AB" class="t2g-obj t2g-seg" x1="81.90" y1="240.00" x2="154.74" y2="373.14" stroke="#222" stroke-width="1.6"/><line data-id="BC" class="t2g-obj t2g-seg" x1="154.74" y1="373.14" x2="225.77" y2="397.46" stroke="#222" stroke-width="1.6"/><line data-id="CD" class="t2g-obj t2g-seg" x1="225.77" y1="397.46" x2="144.05" y2="114.34" stroke="#222" stroke-width="1.6"/><line data-id="DA" class="t2g-obj t2g-seg" x1="144.05" y1="114.34" x2="81.90" y2="240.00" stroke="#222" stroke-width="1.6"/><circle data-id="O" class="t2g-obj t2g-point" cx="240.00" cy="240.00" r="3.0" fill="#222"/><text x="250.87" y="238.93" text-anchor="middle" fill="#222">O</text><circle data-id="A" class="t2g-obj t2g-point" cx="81.90" cy="240.00" r="3.0" fill="#222"/><text x="70.67" y="239.76" text-anchor="middle" fill="#222">A</text><circle data-id="B" class="t2g-obj t2g-point" cx="154.74" cy="373.14" r="3.0" fill="#222"/><text x="153.01" y="389.02" text-anchor="middle" fill="#222">B</text><circle data-id="C" class="t2g-obj t2g-point" cx="225.77" cy="397.46" r="3.0" fill="#222"/><text x="230.73" y="412.39" text-anchor="middle" fill="#222">C</text><circle data-id="D" class="t2g-obj t2g-point" cx="144.05" cy="114.34" r="3.0" fill="#222"/><text x="142.16" y="106.49" text-anchor="middle" fill="#222">D</text><path d="M 92.54 218.49 A 24.00 24.00 0 0 1 93.42 261.06" fill="none" stroke="#888" stroke-width="1"/><text x="93.75" y="228.14" text-anchor="middle" fill="#555" font-style="italic">125°</text></svg>