<svg xmlns="http://www.w3.org/2000/svg" viewBox="0 0 480 480" width="480" height="480" data-t2g-scale="55.99104143337066" data-t2g-offset-x="40.0" data-t2g-offset-y="112.78835386338184" data-t2g-bbox-minx="-5.772" data-t2g-bbox-miny="-3.472" data-t2g-canvas-size="480" font-family="PingFang SC, Source Han Sans SC, Noto Sans CJK SC, sans-serif" font-size="14.0"><rect width="100%" height="100%" fill="white"/><circle data-id="circ" class="t2g-obj t2g-circle" cx="312.79" cy="240.00" r="83.99" fill="none" stroke="#222" stroke-width="1.6"/><polygon data-id="tri" class="t2g-obj t2g-poly" points="363.18,172.81 83.23,172.81 262.40,307.19" fill="none" stroke="#222" stroke-width="1.6"/><line data-id="AB" class="t2g-obj t2g-seg" x1="363.18" y1="172.81" x2="83.23" y2="172.81" stroke="#222" stroke-width="1.6"/><line data-id="BC" class="t2g-obj t2g-seg" x1="83.23" y1="172.81" x2="262.40" y2="307.19" stroke="#222" stroke-width="1.6"/><line data-id="CA" class="t2g-obj t2g-seg" x1="262.40" y1="307.19" x2="363.18" y2="172.81" stroke="#222" stroke-width="1.6"/><line data-id="CD" class="t2g-obj t2g-seg" x1="262.40" y1="307.19" x2="262.40" y2="172.81" stroke="#222" stroke-width="1.6"/><circle data-id="A" class="t2g-obj t2g-point" cx="363.18" cy="172.81" r="3.0" fill="#222"/><text x="374.40" y="172.56" text-anchor="middle" fill="#222">A</text><circle data-id="B" class="t2g-obj t2g-point" cx="83.23" cy="172.81" r="3.0" fill="#222"/><text x="71.54" y="174.10" text-anchor="middle" fill="#222">B</text><circle data-id="C" class="t2g-obj t2g-point" cx="262.40" cy="307.19" r="3.0" fill="#222"/><text x="263.11" y="323.17" text-anchor="middle" fill="#222">C</text><circle data-id="M" class="t2g-obj t2g-point" cx="312.79" cy="240.00" r="3.0" fill="#222"/><text x="323.61" y="249.19" text-anchor="middle" fill="#222">M</text><circle data-id="D" class="t2g-obj t2g-point" cx="262.40" cy="172.81" r="3.0" fill="#222"/><text x="264.05" y="164.92" text-anchor="middle" fill="#222">D</text><polyline points="268.40,299.19 260.40,293.19 254.40,301.19" fill="none" stroke="#222" stroke-width="1.2"/><text x="288.60" y="221.86" text-anchor="middle" fill="#555" font-style="italic">3</text><text x="197.00" y="207.75" text-anchor="middle" fill="#555" font-style="italic">4</text></svg>