<svg xmlns="http://www.w3.org/2000/svg" viewBox="0 0 480 480" width="480" height="480" data-t2g-scale="64.31812839041575" data-t2g-offset-x="40.0" data-t2g-offset-y="47.64024307587829" data-t2g-bbox-minx="-1.6095432190748045" data-t2g-bbox-miny="-5.299017541712843" data-t2g-canvas-size="480" font-family="PingFang SC, Source Han Sans SC, Noto Sans CJK SC, sans-serif" font-size="14.0"><rect width="100%" height="100%" fill="white"/><polygon data-id="poly1" class="t2g-obj t2g-poly" points="143.52,91.54 336.48,91.54 396.10,275.05 240.00,388.46 83.90,275.05" fill="none" stroke="#222" stroke-width="1.6"/><line data-id="AB" class="t2g-obj t2g-seg" x1="143.52" y1="91.54" x2="336.48" y2="91.54" stroke="#222" stroke-width="1.6"/><line data-id="BC" class="t2g-obj t2g-seg" x1="336.48" y1="91.54" x2="396.10" y2="275.05" stroke="#222" stroke-width="1.6"/><line data-id="CD" class="t2g-obj t2g-seg" x1="396.10" y1="275.05" x2="240.00" y2="388.46" stroke="#222" stroke-width="1.6"/><line data-id="DE" class="t2g-obj t2g-seg" x1="240.00" y1="388.46" x2="83.90" y2="275.05" stroke="#222" stroke-width="1.6"/><line data-id="EA" class="t2g-obj t2g-seg" x1="83.90" y1="275.05" x2="143.52" y2="91.54" stroke="#222" stroke-width="1.6"/><circle data-id="A" class="t2g-obj t2g-point" cx="143.52" cy="91.54" r="3.0" fill="#222"/><text x="136.47" y="85.83" text-anchor="middle" fill="#222">A</text><circle data-id="B" class="t2g-obj t2g-point" cx="336.48" cy="91.54" r="3.0" fill="#222"/><text x="343.53" y="85.83" text-anchor="middle" fill="#222">B</text><circle data-id="C" class="t2g-obj t2g-point" cx="396.10" cy="275.05" r="3.0" fill="#222"/><text x="407.52" y="282.76" text-anchor="middle" fill="#222">C</text><circle data-id="D" class="t2g-obj t2g-point" cx="240.00" cy="388.46" r="3.0" fill="#222"/><text x="240.00" y="404.46" text-anchor="middle" fill="#222">D</text><circle data-id="E" class="t2g-obj t2g-point" cx="83.90" cy="275.05" r="3.0" fill="#222"/><text x="72.48" y="282.76" text-anchor="middle" fill="#222">E</text><line x1="240.00" y1="88.54" x2="240.00" y2="94.54" stroke="#222" stroke-width="1.2"/><line x1="369.14" y1="182.37" x2="363.44" y2="184.22" stroke="#222" stroke-width="1.2"/><line x1="319.82" y1="334.18" x2="316.29" y2="329.33" stroke="#222" stroke-width="1.2"/><line x1="160.18" y1="334.18" x2="163.71" y2="329.33" stroke="#222" stroke-width="1.2"/><line x1="110.86" y1="182.37" x2="116.56" y2="184.22" stroke="#222" stroke-width="1.2"/><path d="M 136.11 114.36 A 24.00 24.00 0 0 0 167.52 91.54" fill="none" stroke="#888" stroke-width="1"/><path d="M 312.48 91.54 A 24.00 24.00 0 0 0 343.89 114.36" fill="none" stroke="#888" stroke-width="1"/><path d="M 388.69 252.22 A 24.00 24.00 0 0 0 376.69 289.15" fill="none" stroke="#888" stroke-width="1"/><path d="M 259.42 374.36 A 24.00 24.00 0 0 0 220.58 374.36" fill="none" stroke="#888" stroke-width="1"/><text x="240.00" y="56.81" text-anchor="middle" fill="#555" font-style="italic">3</text><text x="143.52" y="91.54" text-anchor="middle" fill="#555" font-style="italic">A</text><text x="336.48" y="91.54" text-anchor="middle" fill="#555" font-style="italic">B</text><text x="396.10" y="275.05" text-anchor="middle" fill="#555" font-style="italic">C</text><text x="240.00" y="388.46" text-anchor="middle" fill="#555" font-style="italic">D</text><text x="83.90" y="275.05" text-anchor="middle" fill="#555" font-style="italic">E</text></svg>