<svg xmlns="http://www.w3.org/2000/svg" viewBox="0 0 480 480" width="480" height="480" data-t2g-scale="44.15504295624772" data-t2g-offset-x="40.0" data-t2g-offset-y="40.0" data-t2g-bbox-minx="-7.029493951532913" data-t2g-bbox-miny="-7.081045766932057" data-t2g-canvas-size="480" font-family="PingFang SC, Source Han Sans SC, Noto Sans CJK SC, sans-serif" font-size="14.0"><rect width="100%" height="100%" fill="white"/><circle data-id="circ" class="t2g-obj t2g-circle" cx="240.00" cy="240.00" r="157.73" fill="none" stroke="#222" stroke-width="1.6"/><polygon data-id="tri" class="t2g-obj t2g-poly" points="350.39,127.34 129.61,127.34 182.60,386.91" fill="none" stroke="#222" stroke-width="1.6"/><line data-id="AB" class="t2g-obj t2g-seg" x1="350.39" y1="127.34" x2="129.61" y2="127.34" stroke="#222" stroke-width="1.6"/><line data-id="BC" class="t2g-obj t2g-seg" x1="129.61" y1="127.34" x2="182.60" y2="386.91" stroke="#222" stroke-width="1.6"/><line data-id="CA" class="t2g-obj t2g-seg" x1="182.60" y1="386.91" x2="350.39" y2="127.34" stroke="#222" stroke-width="1.6"/><line data-id="OD" class="t2g-obj t2g-seg" x1="240.00" y1="240.00" x2="240.00" y2="127.34" stroke="#222" stroke-width="1.6"/><line data-id="OE" class="t2g-obj t2g-seg" x1="240.00" y1="240.00" x2="156.11" y2="257.12" stroke="#222" stroke-width="1.6"/><line data-id="OF" class="t2g-obj t2g-seg" x1="240.00" y1="240.00" x2="266.49" y2="257.12" stroke="#222" stroke-width="1.6"/><line data-id="DE" class="t2g-obj t2g-seg" x1="240.00" y1="127.34" x2="156.11" y2="257.12" stroke="#222" stroke-width="1.6"/><line data-id="EF" class="t2g-obj t2g-seg" x1="156.11" y1="257.12" x2="266.49" y2="257.12" stroke="#222" stroke-width="1.6"/><line data-id="FD" class="t2g-obj t2g-seg" x1="266.49" y1="257.12" x2="240.00" y2="127.34" stroke="#222" stroke-width="1.6"/><circle data-id="A" class="t2g-obj t2g-point" cx="350.39" cy="127.34" r="3.0" fill="#222"/><text x="360.16" y="124.38" text-anchor="middle" fill="#222">A</text><circle data-id="B" class="t2g-obj t2g-point" cx="129.61" cy="127.34" r="3.0" fill="#222"/><text x="120.96" y="123.02" text-anchor="middle" fill="#222">B</text><circle data-id="C" class="t2g-obj t2g-point" cx="182.60" cy="386.91" r="3.0" fill="#222"/><text x="179.77" y="402.58" text-anchor="middle" fill="#222">C</text><circle data-id="O" class="t2g-obj t2g-point" cx="240.00" cy="240.00" r="3.0" fill="#222"/><text x="247.09" y="253.68" text-anchor="middle" fill="#222">O</text><circle data-id="D" class="t2g-obj t2g-point" cx="240.00" cy="127.34" r="3.0" fill="#222"/><text x="242.15" y="119.53" text-anchor="middle" fill="#222">D</text><circle data-id="E" class="t2g-obj t2g-point" cx="156.11" cy="257.12" r="3.0" fill="#222"/><text x="145.75" y="267.19" text-anchor="middle" fill="#222">E</text><circle data-id="F" class="t2g-obj t2g-point" cx="266.49" cy="257.12" r="3.0" fill="#222"/><text x="275.32" y="269.26" text-anchor="middle" fill="#222">F</text></svg>