<svg xmlns="http://www.w3.org/2000/svg" viewBox="0 0 480 480" width="480" height="480" data-t2g-scale="55.44390332094373" data-t2g-offset-x="40.0" data-t2g-offset-y="118.4095200273813" data-t2g-bbox-minx="-6.435676759431465" data-t2g-bbox-miny="-3.6072496346852754" data-t2g-canvas-size="480" font-family="PingFang SC, Source Han Sans SC, Noto Sans CJK SC, sans-serif" font-size="14.0"><rect width="100%" height="100%" fill="white"/><polygon data-id="tri1" class="t2g-obj t2g-poly" points="396.82,161.59 83.18,161.59 240.00,318.41" fill="none" stroke="#222" stroke-width="1.6"/><polygon data-id="tri2" class="t2g-obj t2g-poly" points="240.00,161.59 240.00,318.41 149.46,161.59" fill="none" stroke="#222" stroke-width="1.6"/><line data-id="AB" class="t2g-obj t2g-seg" x1="396.82" y1="161.59" x2="83.18" y2="161.59" stroke="#222" stroke-width="1.6"/><line data-id="BC" class="t2g-obj t2g-seg" x1="83.18" y1="161.59" x2="240.00" y2="318.41" stroke="#222" stroke-width="1.6"/><line data-id="CA" class="t2g-obj t2g-seg" x1="240.00" y1="318.41" x2="396.82" y2="161.59" stroke="#222" stroke-width="1.6"/><line data-id="CE" class="t2g-obj t2g-seg" x1="240.00" y1="318.41" x2="240.00" y2="161.59" stroke="#222" stroke-width="1.6"/><line data-id="CD" class="t2g-obj t2g-seg" x1="240.00" y1="318.41" x2="149.46" y2="161.59" stroke="#222" stroke-width="1.6"/><line data-id="DE" class="t2g-obj t2g-seg" x1="149.46" y1="161.59" x2="240.00" y2="161.59" stroke="#222" stroke-width="1.6"/><circle data-id="A" class="t2g-obj t2g-point" cx="396.82" cy="161.59" r="3.0" fill="#222"/><text x="408.63" y="163.47" text-anchor="middle" fill="#222">A</text><circle data-id="B" class="t2g-obj t2g-point" cx="83.18" cy="161.59" r="3.0" fill="#222"/><text x="71.48" y="162.94" text-anchor="middle" fill="#222">B</text><circle data-id="C" class="t2g-obj t2g-point" cx="240.00" cy="318.41" r="3.0" fill="#222"/><text x="241.71" y="334.29" text-anchor="middle" fill="#222">C</text><circle data-id="D" class="t2g-obj t2g-point" cx="149.46" cy="161.59" r="3.0" fill="#222"/><text x="138.45" y="160.82" text-anchor="middle" fill="#222">D</text><circle data-id="E" class="t2g-obj t2g-point" cx="240.00" cy="161.59" r="3.0" fill="#222"/><text x="246.00" y="155.20" text-anchor="middle" fill="#222">E</text><polyline points="247.07,311.34 240.00,304.27 232.93,311.34" fill="none" stroke="#222" stroke-width="1.2"/><polyline points="240.00,171.59 230.00,171.59 230.00,161.59" fill="none" stroke="#222" stroke-width="1.2"/><line x1="316.29" y1="237.88" x2="320.53" y2="242.12" stroke="#222" stroke-width="1.2"/><line x1="163.71" y1="237.88" x2="159.47" y2="242.12" stroke="#222" stroke-width="1.2"/><path d="M 228.00 297.62 A 24.00 24.00 0 0 1 240.00 294.41" fill="none" stroke="#888" stroke-width="1"/></svg>