<svg xmlns="http://www.w3.org/2000/svg" viewBox="0 0 480 480" width="480" height="480" data-t2g-scale="31.746031746031747" data-t2g-offset-x="55.87301587301587" data-t2g-offset-y="40.0" data-t2g-bbox-minx="-4.3" data-t2g-bbox-miny="-6.3" data-t2g-canvas-size="480" font-family="PingFang SC, Source Han Sans SC, Noto Sans CJK SC, sans-serif" font-size="14.0"><rect width="100%" height="100%" fill="white"/><line x1="97.14" y1="398.73" x2="97.14" y2="81.27" stroke="#e5e7eb" stroke-width="1"/><line x1="128.89" y1="398.73" x2="128.89" y2="81.27" stroke="#e5e7eb" stroke-width="1"/><line x1="160.63" y1="398.73" x2="160.63" y2="81.27" stroke="#e5e7eb" stroke-width="1"/><line x1="192.38" y1="398.73" x2="192.38" y2="81.27" stroke="#e5e7eb" stroke-width="1"/><line x1="224.13" y1="398.73" x2="224.13" y2="81.27" stroke="#e5e7eb" stroke-width="1"/><line x1="255.87" y1="398.73" x2="255.87" y2="81.27" stroke="#e5e7eb" stroke-width="1"/><line x1="287.62" y1="398.73" x2="287.62" y2="81.27" stroke="#e5e7eb" stroke-width="1"/><line x1="319.37" y1="398.73" x2="319.37" y2="81.27" stroke="#e5e7eb" stroke-width="1"/><line x1="351.11" y1="398.73" x2="351.11" y2="81.27" stroke="#e5e7eb" stroke-width="1"/><line x1="382.86" y1="398.73" x2="382.86" y2="81.27" stroke="#e5e7eb" stroke-width="1"/><line x1="97.14" y1="398.73" x2="382.86" y2="398.73" stroke="#e5e7eb" stroke-width="1"/><line x1="97.14" y1="366.98" x2="382.86" y2="366.98" stroke="#e5e7eb" stroke-width="1"/><line x1="97.14" y1="335.24" x2="382.86" y2="335.24" stroke="#e5e7eb" stroke-width="1"/><line x1="97.14" y1="303.49" x2="382.86" y2="303.49" stroke="#e5e7eb" stroke-width="1"/><line x1="97.14" y1="271.75" x2="382.86" y2="271.75" stroke="#e5e7eb" stroke-width="1"/><line x1="97.14" y1="240.00" x2="382.86" y2="240.00" stroke="#e5e7eb" stroke-width="1"/><line x1="97.14" y1="208.25" x2="382.86" y2="208.25" stroke="#e5e7eb" stroke-width="1"/><line x1="97.14" y1="176.51" x2="382.86" y2="176.51" stroke="#e5e7eb" stroke-width="1"/><line x1="97.14" y1="144.76" x2="382.86" y2="144.76" stroke="#e5e7eb" stroke-width="1"/><line x1="97.14" y1="113.02" x2="382.86" y2="113.02" stroke="#e5e7eb" stroke-width="1"/><line x1="97.14" y1="81.27" x2="382.86" y2="81.27" stroke="#e5e7eb" stroke-width="1"/><line x1="97.14" y1="240.00" x2="382.86" y2="240.00" stroke="#9ca3af" stroke-width="1.4" marker-end="url(#t2g-arrow)"/><line x1="192.38" y1="398.73" x2="192.38" y2="81.27" stroke="#9ca3af" stroke-width="1.4" marker-end="url(#t2g-arrow)"/><defs><marker id="t2g-arrow" viewBox="0 0 10 10" refX="9" refY="5" markerUnits="strokeWidth" markerWidth="8" markerHeight="8" orient="auto"><path d="M0,0 L10,5 L0,10 Z" fill="#9ca3af"/></marker></defs><line x1="97.14" y1="236.00" x2="97.14" y2="244.00" stroke="#9ca3af" stroke-width="1"/><text x="97.14" y="256.00" text-anchor="middle" fill="#6b7280" font-size="11">-3</text><line x1="128.89" y1="236.00" x2="128.89" y2="244.00" stroke="#9ca3af" stroke-width="1"/><text x="128.89" y="256.00" text-anchor="middle" fill="#6b7280" font-size="11">-2</text><line x1="160.63" y1="236.00" x2="160.63" y2="244.00" stroke="#9ca3af" stroke-width="1"/><text x="160.63" y="256.00" text-anchor="middle" fill="#6b7280" font-size="11">-1</text><line x1="224.13" y1="236.00" x2="224.13" y2="244.00" stroke="#9ca3af" stroke-width="1"/><text x="224.13" y="256.00" text-anchor="middle" fill="#6b7280" font-size="11">1</text><line x1="255.87" y1="236.00" x2="255.87" y2="244.00" stroke="#9ca3af" stroke-width="1"/><text x="255.87" y="256.00" text-anchor="middle" fill="#6b7280" font-size="11">2</text><line x1="287.62" y1="236.00" x2="287.62" y2="244.00" stroke="#9ca3af" stroke-width="1"/><text x="287.62" y="256.00" text-anchor="middle" fill="#6b7280" font-size="11">3</text><line x1="319.37" y1="236.00" x2="319.37" y2="244.00" stroke="#9ca3af" stroke-width="1"/><text x="319.37" y="256.00" text-anchor="middle" fill="#6b7280" font-size="11">4</text><line x1="351.11" y1="236.00" x2="351.11" y2="244.00" stroke="#9ca3af" stroke-width="1"/><text x="351.11" y="256.00" text-anchor="middle" fill="#6b7280" font-size="11">5</text><line x1="382.86" y1="236.00" x2="382.86" y2="244.00" stroke="#9ca3af" stroke-width="1"/><text x="382.86" y="256.00" text-anchor="middle" fill="#6b7280" font-size="11">6</text><line x1="188.38" y1="398.73" x2="196.38" y2="398.73" stroke="#9ca3af" stroke-width="1"/><text x="184.38" y="402.73" text-anchor="end" fill="#6b7280" font-size="11">-5</text><line x1="188.38" y1="366.98" x2="196.38" y2="366.98" stroke="#9ca3af" stroke-width="1"/><text x="184.38" y="370.98" text-anchor="end" fill="#6b7280" font-size="11">-4</text><line x1="188.38" y1="335.24" x2="196.38" y2="335.24" stroke="#9ca3af" stroke-width="1"/><text x="184.38" y="339.24" text-anchor="end" fill="#6b7280" font-size="11">-3</text><line x1="188.38" y1="303.49" x2="196.38" y2="303.49" stroke="#9ca3af" stroke-width="1"/><text x="184.38" y="307.49" text-anchor="end" fill="#6b7280" font-size="11">-2</text><line x1="188.38" y1="271.75" x2="196.38" y2="271.75" stroke="#9ca3af" stroke-width="1"/><text x="184.38" y="275.75" text-anchor="end" fill="#6b7280" font-size="11">-1</text><line x1="188.38" y1="208.25" x2="196.38" y2="208.25" stroke="#9ca3af" stroke-width="1"/><text x="184.38" y="212.25" text-anchor="end" fill="#6b7280" font-size="11">1</text><line x1="188.38" y1="176.51" x2="196.38" y2="176.51" stroke="#9ca3af" stroke-width="1"/><text x="184.38" y="180.51" text-anchor="end" fill="#6b7280" font-size="11">2</text><line x1="188.38" y1="144.76" x2="196.38" y2="144.76" stroke="#9ca3af" stroke-width="1"/><text x="184.38" y="148.76" text-anchor="end" fill="#6b7280" font-size="11">3</text><line x1="188.38" y1="113.02" x2="196.38" y2="113.02" stroke="#9ca3af" stroke-width="1"/><text x="184.38" y="117.02" text-anchor="end" fill="#6b7280" font-size="11">4</text><line x1="188.38" y1="81.27" x2="196.38" y2="81.27" stroke="#9ca3af" stroke-width="1"/><text x="184.38" y="85.27" text-anchor="end" fill="#6b7280" font-size="11">5</text><text x="392.86" y="244.00" text-anchor="start" fill="#9ca3af" font-size="13" font-style="italic">x</text><text x="192.38" y="73.27" text-anchor="middle" fill="#9ca3af" font-size="13" font-style="italic">y</text><text x="184.38" y="254.00" text-anchor="end" fill="#6b7280" font-size="11">O</text><polyline data-id="c_upper" class="t2g-obj t2g-curve" points="192.38,240.00 193.02,231.01 193.66,227.28 194.29,224.42 194.93,222.01 195.57,219.89 196.20,217.97 196.84,216.20 197.48,214.56 198.11,213.02 198.75,211.56 199.39,210.17 200.03,208.84 200.66,207.57 201.30,206.35 201.94,205.17 202.57,204.02 203.21,202.92 203.85,201.84 204.48,200.80 205.12,199.78 205.76,198.78 206.40,197.81 207.03,196.87 207.67,195.94 208.31,195.03 208.94,194.14 209.58,193.27 210.22,192.41 210.86,191.57 211.49,190.74 212.13,189.92 212.77,189.12 213.40,188.33 214.04,187.56 214.68,186.79 215.31,186.04 215.95,185.29 216.59,184.56 217.23,183.83 217.86,183.12 218.50,182.41 219.14,181.71 219.77,181.02 220.41,180.34 221.05,179.67 221.68,179.00 222.32,178.34 222.96,177.69 223.60,177.04 224.23,176.40 224.87,175.77 225.51,175.14 226.14,174.52 226.78,173.91 227.42,173.30 228.06,172.69 228.69,172.10 229.33,171.50 229.97,170.91 230.60,170.33 231.24,169.75 231.88,169.18 232.51,168.61 233.15,168.05 233.79,167.49 234.43,166.93 235.06,166.38 235.70,165.83 236.34,165.29 236.97,164.75 237.61,164.21 238.25,163.68 238.89,163.15 239.52,162.63 240.16,162.11 240.80,161.59 241.43,161.08 242.07,160.57 242.71,160.06 243.34,159.55 243.98,159.05 244.62,158.55 245.26,158.06 245.89,157.57 246.53,157.08 247.17,156.59 247.80,156.11 248.44,155.63 249.08,155.15 249.71,154.67 250.35,154.20 250.99,153.73 251.63,153.26 252.26,152.80 252.90,152.34 253.54,151.88 254.17,151.42 254.81,150.96 255.45,150.51 256.09,150.06 256.72,149.61 257.36,149.16 258.00,148.72 258.63,148.28 259.27,147.84 259.91,147.40 260.54,146.96 261.18,146.53 261.82,146.10 262.46,145.67 263.09,145.24 263.73,144.82 264.37,144.39 265.00,143.97 265.64,143.55 266.28,143.13 266.92,142.71 267.55,142.30 268.19,141.89 268.83,141.47 269.46,141.06 270.10,140.66 270.74,140.25 271.37,139.85 272.01,139.44 272.65,139.04 273.29,138.64 273.92,138.24 274.56,137.85 275.20,137.45 275.83,137.06 276.47,136.67 277.11,136.27 277.74,135.89 278.38,135.50 279.02,135.11 279.66,134.73 280.29,134.34 280.93,133.96 281.57,133.58 282.20,133.20 282.84,132.82 283.48,132.45 284.12,132.07 284.75,131.70 285.39,131.32 286.03,130.95 286.66,130.58 287.30,130.21 287.94,129.84 288.57,129.48 289.21,129.11 289.85,128.75 290.49,128.39 291.12,128.02 291.76,127.66 292.40,127.30 293.03,126.95 293.67,126.59 294.31,126.23 294.95,125.88 295.58,125.52 296.22,125.17 296.86,124.82 297.49,124.47 298.13,124.12 298.77,123.77 299.40,123.42 300.04,123.08 300.68,122.73 301.32,122.39 301.95,122.04 302.59,121.70 303.23,121.36 303.86,121.02 304.50,120.68 305.14,120.34 305.77,120.00 306.41,119.67 307.05,119.33 307.69,119.00 308.32,118.66 308.96,118.33 309.60,118.00 310.23,117.67 310.87,117.34 311.51,117.01 312.15,116.68 312.78,116.35 313.42,116.02 314.06,115.70 314.69,115.37 315.33,115.05 315.97,114.73 316.60,114.40 317.24,114.08 317.88,113.76 318.52,113.44 319.15,113.12 319.79,112.80 320.43,112.49 321.06,112.17 321.70,111.85 322.34,111.54 322.97,111.22 323.61,110.91 324.25,110.60 324.89,110.28 325.52,109.97 326.16,109.66 326.80,109.35 327.43,109.04 328.07,108.73 328.71,108.43 329.35,108.12 329.98,107.81 330.62,107.51 331.26,107.20 331.89,106.90 332.53,106.60 333.17,106.29 333.80,105.99 334.44,105.69 335.08,105.39 335.72,105.09 336.35,104.79 336.99,104.49 337.63,104.19 338.26,103.89 338.90,103.60 339.54,103.30 340.18,103.01 340.81,102.71 341.45,102.42 342.09,102.12 342.72,101.83 343.36,101.54 344.00,101.25 344.63,100.95 345.27,100.66 345.91,100.37 346.55,100.08 347.18,99.80 347.82,99.51 348.46,99.22 349.09,98.93 349.73,98.65 350.37,98.36 351.00,98.07 351.64,97.79 352.28,97.51 352.92,97.22 353.55,96.94 354.19,96.66 354.83,96.38 355.46,96.09 356.10,95.81 356.74,95.53 357.38,95.25 358.01,94.97 358.65,94.70 359.29,94.42 359.92,94.14 360.56,93.86 361.20,93.59 361.83,93.31 362.47,93.03 363.11,92.76 363.75,92.49 364.38,92.21 365.02,91.94 365.66,91.66 366.29,91.39 366.93,91.12 367.57,90.85 368.21,90.58 368.84,90.31 369.48,90.04 370.12,89.77 370.75,89.50 371.39,89.23 372.03,88.96 372.66,88.70 373.30,88.43 373.94,88.16 374.58,87.90 375.21,87.63 375.85,87.36 376.49,87.10 377.12,86.84 377.76,86.57 378.40,86.31 379.03,86.05 379.67,85.78 380.31,85.52 380.95,85.26 381.58,85.00 382.22,84.74 382.86,84.48" fill="none" stroke="#0d6efd" stroke-width="1.6"/><polyline data-id="c_lower" class="t2g-obj t2g-curve" points="192.38,240.00 193.02,248.99 193.66,252.72 194.29,255.58 194.93,257.99 195.57,260.11 196.20,262.03 196.84,263.80 197.48,265.44 198.11,266.98 198.75,268.44 199.39,269.83 200.03,271.16 200.66,272.43 201.30,273.65 201.94,274.83 202.57,275.98 203.21,277.08 203.85,278.16 204.48,279.20 205.12,280.22 205.76,281.22 206.40,282.19 207.03,283.13 207.67,284.06 208.31,284.97 208.94,285.86 209.58,286.73 210.22,287.59 210.86,288.43 211.49,289.26 212.13,290.08 212.77,290.88 213.40,291.67 214.04,292.44 214.68,293.21 215.31,293.96 215.95,294.71 216.59,295.44 217.23,296.17 217.86,296.88 218.50,297.59 219.14,298.29 219.77,298.98 220.41,299.66 221.05,300.33 221.68,301.00 222.32,301.66 222.96,302.31 223.60,302.96 224.23,303.60 224.87,304.23 225.51,304.86 226.14,305.48 226.78,306.09 227.42,306.70 228.06,307.31 228.69,307.90 229.33,308.50 229.97,309.09 230.60,309.67 231.24,310.25 231.88,310.82 232.51,311.39 233.15,311.95 233.79,312.51 234.43,313.07 235.06,313.62 235.70,314.17 236.34,314.71 236.97,315.25 237.61,315.79 238.25,316.32 238.89,316.85 239.52,317.37 240.16,317.89 240.80,318.41 241.43,318.92 242.07,319.43 242.71,319.94 243.34,320.45 243.98,320.95 244.62,321.45 245.26,321.94 245.89,322.43 246.53,322.92 247.17,323.41 247.80,323.89 248.44,324.37 249.08,324.85 249.71,325.33 250.35,325.80 250.99,326.27 251.63,326.74 252.26,327.20 252.90,327.66 253.54,328.12 254.17,328.58 254.81,329.04 255.45,329.49 256.09,329.94 256.72,330.39 257.36,330.84 258.00,331.28 258.63,331.72 259.27,332.16 259.91,332.60 260.54,333.04 261.18,333.47 261.82,333.90 262.46,334.33 263.09,334.76 263.73,335.18 264.37,335.61 265.00,336.03 265.64,336.45 266.28,336.87 266.92,337.29 267.55,337.70 268.19,338.11 268.83,338.53 269.46,338.94 270.10,339.34 270.74,339.75 271.37,340.15 272.01,340.56 272.65,340.96 273.29,341.36 273.92,341.76 274.56,342.15 275.20,342.55 275.83,342.94 276.47,343.33 277.11,343.73 277.74,344.11 278.38,344.50 279.02,344.89 279.66,345.27 280.29,345.66 280.93,346.04 281.57,346.42 282.20,346.80 282.84,347.18 283.48,347.55 284.12,347.93 284.75,348.30 285.39,348.68 286.03,349.05 286.66,349.42 287.30,349.79 287.94,350.16 288.57,350.52 289.21,350.89 289.85,351.25 290.49,351.61 291.12,351.98 291.76,352.34 292.40,352.70 293.03,353.05 293.67,353.41 294.31,353.77 294.95,354.12 295.58,354.48 296.22,354.83 296.86,355.18 297.49,355.53 298.13,355.88 298.77,356.23 299.40,356.58 300.04,356.92 300.68,357.27 301.32,357.61 301.95,357.96 302.59,358.30 303.23,358.64 303.86,358.98 304.50,359.32 305.14,359.66 305.77,360.00 306.41,360.33 307.05,360.67 307.69,361.00 308.32,361.34 308.96,361.67 309.60,362.00 310.23,362.33 310.87,362.66 311.51,362.99 312.15,363.32 312.78,363.65 313.42,363.98 314.06,364.30 314.69,364.63 315.33,364.95 315.97,365.27 316.60,365.60 317.24,365.92 317.88,366.24 318.52,366.56 319.15,366.88 319.79,367.20 320.43,367.51 321.06,367.83 321.70,368.15 322.34,368.46 322.97,368.78 323.61,369.09 324.25,369.40 324.89,369.72 325.52,370.03 326.16,370.34 326.80,370.65 327.43,370.96 328.07,371.27 328.71,371.57 329.35,371.88 329.98,372.19 330.62,372.49 331.26,372.80 331.89,373.10 332.53,373.40 333.17,373.71 333.80,374.01 334.44,374.31 335.08,374.61 335.72,374.91 336.35,375.21 336.99,375.51 337.63,375.81 338.26,376.11 338.90,376.40 339.54,376.70 340.18,376.99 340.81,377.29 341.45,377.58 342.09,377.88 342.72,378.17 343.36,378.46 344.00,378.75 344.63,379.05 345.27,379.34 345.91,379.63 346.55,379.92 347.18,380.20 347.82,380.49 348.46,380.78 349.09,381.07 349.73,381.35 350.37,381.64 351.00,381.93 351.64,382.21 352.28,382.49 352.92,382.78 353.55,383.06 354.19,383.34 354.83,383.62 355.46,383.91 356.10,384.19 356.74,384.47 357.38,384.75 358.01,385.03 358.65,385.30 359.29,385.58 359.92,385.86 360.56,386.14 361.20,386.41 361.83,386.69 362.47,386.97 363.11,387.24 363.75,387.51 364.38,387.79 365.02,388.06 365.66,388.34 366.29,388.61 366.93,388.88 367.57,389.15 368.21,389.42 368.84,389.69 369.48,389.96 370.12,390.23 370.75,390.50 371.39,390.77 372.03,391.04 372.66,391.30 373.30,391.57 373.94,391.84 374.58,392.10 375.21,392.37 375.85,392.64 376.49,392.90 377.12,393.16 377.76,393.43 378.40,393.69 379.03,393.95 379.67,394.22 380.31,394.48 380.95,394.74 381.58,395.00 382.22,395.26 382.86,395.52" fill="none" stroke="#0d6efd" stroke-width="1.6"/><line data-id="AB" class="t2g-obj t2g-seg" x1="319.37" y1="113.02" x2="160.63" y2="113.02" stroke="#222" stroke-width="1.6"/><line data-id="BF" class="t2g-obj t2g-seg" x1="160.63" y1="113.02" x2="224.13" y2="240.00" stroke="#222" stroke-width="1.6"/><line x1="160.63" y1="-878.73" x2="160.63" y2="1358.73" stroke="#222" stroke-width="1.6" stroke-dasharray="5 4"/><circle data-id="O" class="t2g-obj t2g-point" cx="192.38" cy="240.00" r="3.0" fill="#222"/><text x="189.47" y="255.64" text-anchor="middle" fill="#222">O</text><circle data-id="F" class="t2g-obj t2g-point" cx="224.13" cy="240.00" r="3.0" fill="#222"/><text x="229.49" y="254.73" text-anchor="middle" fill="#222">F</text><circle data-id="Dl_top" class="t2g-obj t2g-point" cx="160.63" cy="81.27" r="3.0" fill="#222"/><text x="156.53" y="73.99" text-anchor="middle" fill="#222">Dl_top</text><circle data-id="Dl_bot" class="t2g-obj t2g-point" cx="160.63" cy="398.73" r="3.0" fill="#222"/><text x="158.16" y="414.47" text-anchor="middle" fill="#222">Dl_bot</text><circle data-id="A" class="t2g-obj t2g-point" cx="319.37" cy="113.02" r="3.0" fill="#222"/><text x="329.07" y="109.96" text-anchor="middle" fill="#222">A</text><circle data-id="B" class="t2g-obj t2g-point" cx="160.63" cy="113.02" r="3.0" fill="#222"/><text x="155.27" y="106.28" text-anchor="middle" fill="#222">B</text></svg>