<svg xmlns="http://www.w3.org/2000/svg" viewBox="0 0 480 480" width="480" height="480" data-t2g-scale="47.218059642730736" data-t2g-offset-x="79.43726563747748" data-t2g-offset-y="40.0" data-t2g-bbox-minx="-5.9004517631185225" data-t2g-bbox-miny="-4.8690787352797065" data-t2g-canvas-size="480" font-family="PingFang SC, Source Han Sans SC, Noto Sans CJK SC, sans-serif" font-size="14.0"><rect width="100%" height="100%" fill="white"/><polygon data-id="tri" class="t2g-obj t2g-poly" points="358.05,210.09 121.95,210.09 334.44,397.48" fill="none" stroke="#222" stroke-width="1.6"/><polygon data-id="tri2" class="t2g-obj t2g-poly" points="322.47,274.66 185.29,82.52 156.24,364.33" fill="none" stroke="#222" stroke-width="1.6"/><line data-id="AB" class="t2g-obj t2g-seg" x1="358.05" y1="210.09" x2="121.95" y2="210.09" stroke="#222" stroke-width="1.6"/><line data-id="BC" class="t2g-obj t2g-seg" x1="121.95" y1="210.09" x2="334.44" y2="397.48" stroke="#222" stroke-width="1.6"/><line data-id="CA" class="t2g-obj t2g-seg" x1="334.44" y1="397.48" x2="358.05" y2="210.09" stroke="#222" stroke-width="1.6"/><line data-id="ApBp" class="t2g-obj t2g-seg" x1="322.47" y1="274.66" x2="185.29" y2="82.52" stroke="#222" stroke-width="1.6"/><line data-id="BpCp" class="t2g-obj t2g-seg" x1="185.29" y1="82.52" x2="156.24" y2="364.33" stroke="#222" stroke-width="1.6"/><line data-id="CpAp" class="t2g-obj t2g-seg" x1="156.24" y1="364.33" x2="322.47" y2="274.66" stroke="#222" stroke-width="1.6"/><circle data-id="A" class="t2g-obj t2g-point" cx="358.05" cy="210.09" r="3.0" fill="#222"/><text x="369.12" y="209.48" text-anchor="middle" fill="#222">A</text><circle data-id="B" class="t2g-obj t2g-point" cx="121.95" cy="210.09" r="3.0" fill="#222"/><text x="110.71" y="209.90" text-anchor="middle" fill="#222">B</text><circle data-id="C" class="t2g-obj t2g-point" cx="334.44" cy="397.48" r="3.0" fill="#222"/><text x="340.79" y="411.66" text-anchor="middle" fill="#222">C</text><circle data-id="Ap" class="t2g-obj t2g-point" cx="322.47" cy="274.66" r="3.0" fill="#222"/><text x="334.14" y="281.45" text-anchor="middle" fill="#222">A'</text><circle data-id="Bp" class="t2g-obj t2g-point" cx="185.29" cy="82.52" r="3.0" fill="#222"/><text x="181.31" y="75.20" text-anchor="middle" fill="#222">B'</text><circle data-id="Cp" class="t2g-obj t2g-point" cx="156.24" cy="364.33" r="3.0" fill="#222"/><text x="148.54" y="377.54" text-anchor="middle" fill="#222">C'</text><line x1="240.00" y1="213.09" x2="240.00" y2="207.09" stroke="#222" stroke-width="1.2"/><line x1="251.43" y1="180.33" x2="256.32" y2="176.85" stroke="#222" stroke-width="1.2"/><line x1="228.68" y1="300.21" x2="224.71" y2="304.71" stroke="#222" stroke-width="1.2"/><line x1="231.68" y1="302.86" x2="227.71" y2="307.36" stroke="#222" stroke-width="1.2"/><line x1="173.95" y1="221.74" x2="167.98" y2="221.13" stroke="#222" stroke-width="1.2"/><line x1="173.54" y1="225.72" x2="167.57" y2="225.11" stroke="#222" stroke-width="1.2"/><line x1="342.76" y1="307.38" x2="348.72" y2="308.13" stroke="#222" stroke-width="1.2"/><line x1="343.26" y1="303.41" x2="349.22" y2="304.16" stroke="#222" stroke-width="1.2"/><line x1="343.76" y1="299.44" x2="349.72" y2="300.19" stroke="#222" stroke-width="1.2"/><line x1="234.41" y1="318.76" x2="237.26" y2="324.04" stroke="#222" stroke-width="1.2"/><line x1="237.93" y1="316.86" x2="240.78" y2="322.14" stroke="#222" stroke-width="1.2"/><line x1="241.45" y1="314.96" x2="244.30" y2="320.24" stroke="#222" stroke-width="1.2"/></svg>