<svg xmlns="http://www.w3.org/2000/svg" viewBox="0 0 480 480" width="480" height="480" data-t2g-scale="52.35602094240837" data-t2g-offset-x="40.0" data-t2g-offset-y="40.0" data-t2g-bbox-minx="-6.82" data-t2g-bbox-miny="-4.82" data-t2g-canvas-size="480" font-family="PingFang SC, Source Han Sans SC, Noto Sans CJK SC, sans-serif" font-size="14.0"><rect width="100%" height="100%" fill="white"/><polygon data-id="rect" class="t2g-obj t2g-poly" points="397.07,187.64 82.93,187.64 82.93,397.07 397.07,397.07" fill="none" stroke="#222" stroke-width="1.6"/><polygon data-id="quad" class="t2g-obj t2g-poly" points="397.07,187.64 82.93,292.36 82.93,397.07 397.07,82.93" fill="none" stroke="#222" stroke-width="1.6"/><line data-id="AB" class="t2g-obj t2g-seg" x1="397.07" y1="187.64" x2="82.93" y2="187.64" stroke="#222" stroke-width="1.6"/><line data-id="BC" class="t2g-obj t2g-seg" x1="82.93" y1="187.64" x2="82.93" y2="397.07" stroke="#222" stroke-width="1.6"/><line data-id="CD" class="t2g-obj t2g-seg" x1="82.93" y1="397.07" x2="397.07" y2="397.07" stroke="#222" stroke-width="1.6"/><line data-id="DA" class="t2g-obj t2g-seg" x1="397.07" y1="397.07" x2="397.07" y2="187.64" stroke="#222" stroke-width="1.6"/><line data-id="AE" class="t2g-obj t2g-seg" x1="397.07" y1="187.64" x2="82.93" y2="292.36" stroke="#222" stroke-width="1.6"/><line data-id="CF" class="t2g-obj t2g-seg" x1="82.93" y1="397.07" x2="397.07" y2="82.93" stroke="#222" stroke-width="1.6"/><line data-id="AF" class="t2g-obj t2g-seg" x1="397.07" y1="187.64" x2="397.07" y2="82.93" stroke="#222" stroke-width="1.6"/><line data-id="EC" class="t2g-obj t2g-seg" x1="82.93" y1="292.36" x2="82.93" y2="397.07" stroke="#222" stroke-width="1.6"/><circle data-id="A" class="t2g-obj t2g-point" cx="397.07" cy="187.64" r="3.0" fill="#222"/><text x="408.03" y="186.77" text-anchor="middle" fill="#222">A</text><circle data-id="B" class="t2g-obj t2g-point" cx="82.93" cy="187.64" r="3.0" fill="#222"/><text x="71.97" y="186.77" text-anchor="middle" fill="#222">B</text><circle data-id="C" class="t2g-obj t2g-point" cx="82.93" cy="397.07" r="3.0" fill="#222"/><text x="73.96" y="409.04" text-anchor="middle" fill="#222">C</text><circle data-id="D" class="t2g-obj t2g-point" cx="397.07" cy="397.07" r="3.0" fill="#222"/><text x="406.04" y="409.04" text-anchor="middle" fill="#222">D</text><circle data-id="E" class="t2g-obj t2g-point" cx="82.93" cy="292.36" r="3.0" fill="#222"/><text x="71.22" y="298.96" text-anchor="middle" fill="#222">E</text><circle data-id="F" class="t2g-obj t2g-point" cx="397.07" cy="82.93" r="3.0" fill="#222"/><text x="405.10" y="78.01" text-anchor="middle" fill="#222">F</text><polyline points="92.93,187.64 92.93,197.64 82.93,197.64" fill="none" stroke="#222" stroke-width="1.2"/><polyline points="82.93,387.07 92.93,387.07 92.93,397.07" fill="none" stroke="#222" stroke-width="1.2"/><polyline points="387.07,397.07 387.07,387.07 397.07,387.07" fill="none" stroke="#222" stroke-width="1.2"/><line x1="394.07" y1="135.29" x2="400.07" y2="135.29" stroke="#222" stroke-width="1.2"/><line x1="85.93" y1="344.71" x2="79.93" y2="344.71" stroke="#222" stroke-width="1.2"/></svg>