<svg xmlns="http://www.w3.org/2000/svg" viewBox="0 0 480 480" width="480" height="480" data-t2g-scale="52.35602094240837" data-t2g-offset-x="40.0" data-t2g-offset-y="40.0" data-t2g-bbox-minx="-1.8199999999999998" data-t2g-bbox-miny="-1.8199999999999998" data-t2g-canvas-size="480" font-family="PingFang SC, Source Han Sans SC, Noto Sans CJK SC, sans-serif" font-size="14.0"><rect width="100%" height="100%" fill="white"/><line x1="82.93" y1="397.07" x2="82.93" y2="82.93" stroke="#e5e7eb" stroke-width="1"/><line x1="135.29" y1="397.07" x2="135.29" y2="82.93" stroke="#e5e7eb" stroke-width="1"/><line x1="187.64" y1="397.07" x2="187.64" y2="82.93" stroke="#e5e7eb" stroke-width="1"/><line x1="240.00" y1="397.07" x2="240.00" y2="82.93" stroke="#e5e7eb" stroke-width="1"/><line x1="292.36" y1="397.07" x2="292.36" y2="82.93" stroke="#e5e7eb" stroke-width="1"/><line x1="344.71" y1="397.07" x2="344.71" y2="82.93" stroke="#e5e7eb" stroke-width="1"/><line x1="397.07" y1="397.07" x2="397.07" y2="82.93" stroke="#e5e7eb" stroke-width="1"/><line x1="82.93" y1="397.07" x2="397.07" y2="397.07" stroke="#e5e7eb" stroke-width="1"/><line x1="82.93" y1="344.71" x2="397.07" y2="344.71" stroke="#e5e7eb" stroke-width="1"/><line x1="82.93" y1="292.36" x2="397.07" y2="292.36" stroke="#e5e7eb" stroke-width="1"/><line x1="82.93" y1="240.00" x2="397.07" y2="240.00" stroke="#e5e7eb" stroke-width="1"/><line x1="82.93" y1="187.64" x2="397.07" y2="187.64" stroke="#e5e7eb" stroke-width="1"/><line x1="82.93" y1="135.29" x2="397.07" y2="135.29" stroke="#e5e7eb" stroke-width="1"/><line x1="82.93" y1="82.93" x2="397.07" y2="82.93" stroke="#e5e7eb" stroke-width="1"/><line x1="82.93" y1="344.71" x2="397.07" y2="344.71" stroke="#9ca3af" stroke-width="1.4" marker-end="url(#t2g-arrow)"/><line x1="135.29" y1="397.07" x2="135.29" y2="82.93" stroke="#9ca3af" stroke-width="1.4" marker-end="url(#t2g-arrow)"/><defs><marker id="t2g-arrow" viewBox="0 0 10 10" refX="9" refY="5" markerUnits="strokeWidth" markerWidth="8" markerHeight="8" orient="auto"><path d="M0,0 L10,5 L0,10 Z" fill="#9ca3af"/></marker></defs><line x1="82.93" y1="340.71" x2="82.93" y2="348.71" stroke="#9ca3af" stroke-width="1"/><text x="82.93" y="360.71" text-anchor="middle" fill="#6b7280" font-size="11">-1</text><line x1="187.64" y1="340.71" x2="187.64" y2="348.71" stroke="#9ca3af" stroke-width="1"/><text x="187.64" y="360.71" text-anchor="middle" fill="#6b7280" font-size="11">1</text><line x1="240.00" y1="340.71" x2="240.00" y2="348.71" stroke="#9ca3af" stroke-width="1"/><text x="240.00" y="360.71" text-anchor="middle" fill="#6b7280" font-size="11">2</text><line x1="292.36" y1="340.71" x2="292.36" y2="348.71" stroke="#9ca3af" stroke-width="1"/><text x="292.36" y="360.71" text-anchor="middle" fill="#6b7280" font-size="11">3</text><line x1="344.71" y1="340.71" x2="344.71" y2="348.71" stroke="#9ca3af" stroke-width="1"/><text x="344.71" y="360.71" text-anchor="middle" fill="#6b7280" font-size="11">4</text><line x1="397.07" y1="340.71" x2="397.07" y2="348.71" stroke="#9ca3af" stroke-width="1"/><text x="397.07" y="360.71" text-anchor="middle" fill="#6b7280" font-size="11">5</text><line x1="131.29" y1="397.07" x2="139.29" y2="397.07" stroke="#9ca3af" stroke-width="1"/><text x="127.29" y="401.07" text-anchor="end" fill="#6b7280" font-size="11">-1</text><line x1="131.29" y1="292.36" x2="139.29" y2="292.36" stroke="#9ca3af" stroke-width="1"/><text x="127.29" y="296.36" text-anchor="end" fill="#6b7280" font-size="11">1</text><line x1="131.29" y1="240.00" x2="139.29" y2="240.00" stroke="#9ca3af" stroke-width="1"/><text x="127.29" y="244.00" text-anchor="end" fill="#6b7280" font-size="11">2</text><line x1="131.29" y1="187.64" x2="139.29" y2="187.64" stroke="#9ca3af" stroke-width="1"/><text x="127.29" y="191.64" text-anchor="end" fill="#6b7280" font-size="11">3</text><line x1="131.29" y1="135.29" x2="139.29" y2="135.29" stroke="#9ca3af" stroke-width="1"/><text x="127.29" y="139.29" text-anchor="end" fill="#6b7280" font-size="11">4</text><line x1="131.29" y1="82.93" x2="139.29" y2="82.93" stroke="#9ca3af" stroke-width="1"/><text x="127.29" y="86.93" text-anchor="end" fill="#6b7280" font-size="11">5</text><text x="407.07" y="348.71" text-anchor="start" fill="#9ca3af" font-size="13" font-style="italic">x</text><text x="135.29" y="74.93" text-anchor="middle" fill="#9ca3af" font-size="13" font-style="italic">y</text><text x="127.29" y="358.71" text-anchor="end" fill="#6b7280" font-size="11">O</text><polyline data-id="c_line" class="t2g-obj t2g-curve" points="109.11,-47.96 109.72,-46.12 110.34,-44.28 110.95,-42.44 111.56,-40.60 112.17,-38.77 112.79,-36.93 113.40,-35.09 114.01,-33.25 114.63,-31.41 115.24,-29.57 115.85,-27.73 116.46,-25.90 117.08,-24.06 117.69,-22.22 118.30,-20.38 118.92,-18.54 119.53,-16.70 120.14,-14.86 120.75,-13.02 121.37,-11.19 121.98,-9.35 122.59,-7.51 123.21,-5.67 123.82,-3.83 124.43,-1.99 125.04,-0.15 125.66,1.68 126.27,3.52 126.88,5.36 127.50,7.20 128.11,9.04 128.72,10.88 129.33,12.72 129.95,14.55 130.56,16.39 131.17,18.23 131.79,20.07 132.40,21.91 133.01,23.75 133.62,25.59 134.24,27.42 134.85,29.26 135.46,31.10 136.08,32.94 136.69,34.78 137.30,36.62 137.91,38.46 138.53,40.29 139.14,42.13 139.75,43.97 140.37,45.81 140.98,47.65 141.59,49.49 142.20,51.33 142.82,53.16 143.43,55.00 144.04,56.84 144.66,58.68 145.27,60.52 145.88,62.36 146.49,64.20 147.11,66.03 147.72,67.87 148.33,69.71 148.95,71.55 149.56,73.39 150.17,75.23 150.78,77.07 151.40,78.90 152.01,80.74 152.62,82.58 153.24,84.42 153.85,86.26 154.46,88.10 155.07,89.94 155.69,91.77 156.30,93.61 156.91,95.45 157.53,97.29 158.14,99.13 158.75,100.97 159.36,102.81 159.98,104.64 160.59,106.48 161.20,108.32 161.82,110.16 162.43,112.00 163.04,113.84 163.65,115.68 164.27,117.51 164.88,119.35 165.49,121.19 166.11,123.03 166.72,124.87 167.33,126.71 167.94,128.55 168.56,130.39 169.17,132.22 169.78,134.06 170.40,135.90 171.01,137.74 171.62,139.58 172.23,141.42 172.85,143.26 173.46,145.09 174.07,146.93 174.69,148.77 175.30,150.61 175.91,152.45 176.52,154.29 177.14,156.13 177.75,157.96 178.36,159.80 178.98,161.64 179.59,163.48 180.20,165.32 180.81,167.16 181.43,169.00 182.04,170.83 182.65,172.67 183.27,174.51 183.88,176.35 184.49,178.19 185.10,180.03 185.72,181.87 186.33,183.70 186.94,185.54 187.56,187.38 188.17,189.22 188.78,191.06 189.40,192.90 190.01,194.74 190.62,196.57 191.23,198.41 191.85,200.25 192.46,202.09 193.07,203.93 193.69,205.77 194.30,207.61 194.91,209.44 195.52,211.28 196.14,213.12 196.75,214.96 197.36,216.80 197.98,218.64 198.59,220.48 199.20,222.31 199.81,224.15 200.43,225.99 201.04,227.83 201.65,229.67 202.27,231.51 202.88,233.35 203.49,235.18 204.10,237.02 204.72,238.86 205.33,240.70 205.94,242.54 206.56,244.38 207.17,246.22 207.78,248.05 208.39,249.89 209.01,251.73 209.62,253.57 210.23,255.41 210.85,257.25 211.46,259.09 212.07,260.92 212.68,262.76 213.30,264.60 213.91,266.44 214.52,268.28 215.14,270.12 215.75,271.96 216.36,273.80 216.97,275.63 217.59,277.47 218.20,279.31 218.81,281.15 219.43,282.99 220.04,284.83 220.65,286.67 221.26,288.50 221.88,290.34 222.49,292.18 223.10,294.02 223.72,295.86 224.33,297.70 224.94,299.54 225.55,301.37 226.17,303.21 226.78,305.05 227.39,306.89 228.01,308.73 228.62,310.57 229.23,312.41 229.84,314.24 230.46,316.08 231.07,317.92 231.68,319.76 232.30,321.60 232.91,323.44 233.52,325.28 234.13,327.11 234.75,328.95 235.36,330.79 235.97,332.63 236.59,334.47 237.20,336.31 237.81,338.15 238.42,339.98 239.04,341.82 239.65,343.66 240.26,345.50 240.88,347.34 241.49,349.18 242.10,351.02 242.71,352.85 243.33,354.69 243.94,356.53 244.55,358.37 245.17,360.21 245.78,362.05 246.39,363.89 247.00,365.72 247.62,367.56 248.23,369.40 248.84,371.24 249.46,373.08 250.07,374.92 250.68,376.76 251.29,378.59 251.91,380.43 252.52,382.27 253.13,384.11 253.75,385.95 254.36,387.79 254.97,389.63 255.58,391.46 256.20,393.30 256.81,395.14 257.42,396.98 258.04,398.82 258.65,400.66 259.26,402.50 259.87,404.33 260.49,406.17 261.10,408.01 261.71,409.85 262.33,411.69 262.94,413.53 263.55,415.37 264.16,417.20 264.78,419.04 265.39,420.88 266.00,422.72 266.62,424.56 267.23,426.40 267.84,428.24 268.45,430.08 269.07,431.91 269.68,433.75 270.29,435.59 270.91,437.43 271.52,439.27 272.13,441.11 272.74,442.95 273.36,444.78 273.97,446.62 274.58,448.46 275.20,450.30 275.81,452.14 276.42,453.98 277.03,455.82 277.65,457.65 278.26,459.49 278.87,461.33 279.49,463.17 280.10,465.01 280.71,466.85 281.32,468.69 281.94,470.52 282.55,472.36 283.16,474.20 283.78,476.04 284.39,477.88 285.00,479.72 285.61,481.56 286.23,483.39 286.84,485.23 287.45,487.07 288.07,488.91 288.68,490.75 289.29,492.59 289.90,494.43 290.52,496.26 291.13,498.10 291.74,499.94 292.36,501.78" fill="none" stroke="#0d6efd" stroke-width="1.6"/><polyline data-id="c_rec" class="t2g-obj t2g-curve" points="156.23,-440.63 157.04,-411.54 157.84,-384.53 158.65,-359.39 159.45,-335.92 160.26,-313.96 161.06,-293.38 161.87,-274.04 162.67,-255.84 163.48,-238.68 164.29,-222.48 165.09,-207.15 165.90,-192.63 166.70,-178.85 167.51,-165.76 168.31,-153.31 169.12,-141.45 169.92,-130.14 170.73,-119.35 171.53,-109.04 172.34,-99.18 173.15,-89.73 173.95,-80.68 174.76,-72.00 175.56,-63.66 176.37,-55.66 177.17,-47.96 177.98,-40.55 178.78,-33.41 179.59,-26.54 180.39,-19.91 181.20,-13.51 182.01,-7.34 182.81,-1.37 183.62,4.40 184.42,9.98 185.23,15.38 186.03,20.60 186.84,25.67 187.64,30.58 188.45,35.34 189.25,39.95 190.06,44.43 190.87,48.79 191.67,53.01 192.48,57.12 193.28,61.12 194.09,65.00 194.89,68.78 195.70,72.46 196.50,76.04 197.31,79.53 198.12,82.93 198.92,86.25 199.73,89.48 200.53,92.63 201.34,95.70 202.14,98.70 202.95,101.63 203.75,104.49 204.56,107.28 205.36,110.01 206.17,112.68 206.98,115.29 207.78,117.84 208.59,120.33 209.39,122.77 210.20,125.15 211.00,127.49 211.81,129.78 212.61,132.02 213.42,134.21 214.22,136.36 215.03,138.46 215.84,140.52 216.64,142.55 217.45,144.53 218.25,146.47 219.06,148.38 219.86,150.25 220.67,152.08 221.47,153.88 222.28,155.65 223.08,157.38 223.89,159.09 224.70,160.76 225.50,162.40 226.31,164.01 227.11,165.60 227.92,167.16 228.72,168.69 229.53,170.19 230.33,171.67 231.14,173.13 231.95,174.55 232.75,175.96 233.56,177.34 234.36,178.71 235.17,180.04 235.97,181.36 236.78,182.66 237.58,183.93 238.39,185.19 239.19,186.43 240.00,187.64 240.81,188.84 241.61,190.02 242.42,191.19 243.22,192.33 244.03,193.46 244.83,194.57 245.64,195.67 246.44,196.75 247.25,197.81 248.05,198.86 248.86,199.90 249.67,200.92 250.47,201.92 251.28,202.91 252.08,203.89 252.89,204.86 253.69,205.81 254.50,206.75 255.30,207.67 256.11,208.59 256.92,209.49 257.72,210.38 258.53,211.26 259.33,212.12 260.14,212.98 260.94,213.82 261.75,214.66 262.55,215.48 263.36,216.29 264.16,217.09 264.97,217.89 265.78,218.67 266.58,219.44 267.39,220.21 268.19,220.96 269.00,221.71 269.80,222.44 270.61,223.17 271.41,223.89 272.22,224.60 273.02,225.30 273.83,226.00 274.64,226.68 275.44,227.36 276.25,228.03 277.05,228.70 277.86,229.35 278.66,230.00 279.47,230.64 280.27,231.27 281.08,231.90 281.88,232.52 282.69,233.13 283.50,233.74 284.30,234.34 285.11,234.93 285.91,235.52 286.72,236.10 287.52,236.68 288.33,237.24 289.13,237.81 289.94,238.36 290.75,238.91 291.55,239.46 292.36,240.00 293.16,240.53 293.97,241.06 294.77,241.59 295.58,242.10 296.38,242.62 297.19,243.13 297.99,243.63 298.80,244.13 299.61,244.62 300.41,245.11 301.22,245.59 302.02,246.07 302.83,246.54 303.63,247.01 304.44,247.48 305.24,247.94 306.05,248.40 306.85,248.85 307.66,249.30 308.47,249.74 309.27,250.18 310.08,250.62 310.88,251.05 311.69,251.48 312.49,251.90 313.30,252.32 314.10,252.74 314.91,253.15 315.71,253.56 316.52,253.96 317.33,254.36 318.13,254.76 318.94,255.16 319.74,255.55 320.55,255.93 321.35,256.32 322.16,256.70 322.96,257.08 323.77,257.45 324.58,257.82 325.38,258.19 326.19,258.56 326.99,258.92 327.80,259.28 328.60,259.63 329.41,259.99 330.21,260.34 331.02,260.68 331.82,261.03 332.63,261.37 333.44,261.71 334.24,262.04 335.05,262.38 335.85,262.71 336.66,263.04 337.46,263.36 338.27,263.68 339.07,264.01 339.88,264.32 340.68,264.64 341.49,264.95 342.30,265.26 343.10,265.57 343.91,265.87 344.71,266.18 345.52,266.48 346.32,266.78 347.13,267.07 347.93,267.37 348.74,267.66 349.54,267.95 350.35,268.24 351.16,268.52 351.96,268.81 352.77,269.09 353.57,269.37 354.38,269.64 355.18,269.92 355.99,270.19 356.79,270.46 357.60,270.73 358.41,271.00 359.21,271.26 360.02,271.53 360.82,271.79 361.63,272.05 362.43,272.30 363.24,272.56 364.04,272.81 364.85,273.07 365.65,273.32 366.46,273.57 367.27,273.81 368.07,274.06 368.88,274.30 369.68,274.54 370.49,274.78 371.29,275.02 372.10,275.26 372.90,275.50 373.71,275.73 374.51,275.96 375.32,276.19 376.13,276.42 376.93,276.65 377.74,276.88 378.54,277.10 379.35,277.32 380.15,277.54 380.96,277.76 381.76,277.98 382.57,278.20 383.37,278.42 384.18,278.63 384.99,278.84 385.79,279.06 386.60,279.27 387.40,279.48 388.21,279.68 389.01,279.89 389.82,280.10 390.62,280.30 391.43,280.50 392.24,280.70 393.04,280.90 393.85,281.10 394.65,281.30 395.46,281.50 396.26,281.69 397.07,281.88" fill="none" stroke="#0d6efd" stroke-width="1.6"/><polygon data-id="rect" class="t2g-obj t2g-poly" points="135.29,344.71 135.29,187.64 240.00,187.64 240.00,344.71" fill="none" stroke="#222" stroke-width="1.6"/><line data-id="OA" class="t2g-obj t2g-seg" x1="135.29" y1="344.71" x2="135.29" y2="187.64" stroke="#222" stroke-width="1.6"/><line data-id="AB" class="t2g-obj t2g-seg" x1="135.29" y1="187.64" x2="240.00" y2="187.64" stroke="#222" stroke-width="1.6"/><line data-id="BC" class="t2g-obj t2g-seg" x1="240.00" y1="187.64" x2="240.00" y2="344.71" stroke="#222" stroke-width="1.6"/><line data-id="CO" class="t2g-obj t2g-seg" x1="240.00" y1="344.71" x2="135.29" y2="344.71" stroke="#222" stroke-width="1.6"/><circle data-id="O" class="t2g-obj t2g-point" cx="135.29" cy="344.71" r="3.0" fill="#222"/><text x="129.46" y="359.20" text-anchor="middle" fill="#222">O</text><circle data-id="A" class="t2g-obj t2g-point" cx="135.29" cy="187.64" r="3.0" fill="#222"/><text x="127.61" y="182.43" text-anchor="middle" fill="#222">A</text><circle data-id="B" class="t2g-obj t2g-point" cx="240.00" cy="187.64" r="3.0" fill="#222"/><text x="247.68" y="182.43" text-anchor="middle" fill="#222">B</text><circle data-id="C" class="t2g-obj t2g-point" cx="240.00" cy="344.71" r="3.0" fill="#222"/><text x="245.83" y="359.20" text-anchor="middle" fill="#222">C</text><polyline points="135.29,197.64 145.29,197.64 145.29,187.64" fill="none" stroke="#222" stroke-width="1.2"/><polyline points="230.00,187.64 230.00,197.64 240.00,197.64" fill="none" stroke="#222" stroke-width="1.2"/><polyline points="240.00,334.71 230.00,334.71 230.00,344.71" fill="none" stroke="#222" stroke-width="1.2"/></svg>