<svg xmlns="http://www.w3.org/2000/svg" viewBox="0 0 480 480" width="480" height="480" data-t2g-scale="39.52569177870703" data-t2g-offset-x="40.0" data-t2g-offset-y="198.1010728555956" data-t2g-bbox-minx="-1.0599999980400292" data-t2g-bbox-miny="-1.0600857112239328" data-t2g-canvas-size="480" font-family="PingFang SC, Source Han Sans SC, Noto Sans CJK SC, sans-serif" font-size="14.0"><rect width="100%" height="100%" fill="white"/><polygon data-id="quad" class="t2g-obj t2g-poly" points="81.90,240.00 240.00,240.00 398.10,240.00 398.10,240.00" fill="none" stroke="#222" stroke-width="1.6"/><line data-id="AB" class="t2g-obj t2g-seg" x1="81.90" y1="240.00" x2="240.00" y2="240.00" stroke="#222" stroke-width="1.6"/><line data-id="BC" class="t2g-obj t2g-seg" x1="240.00" y1="240.00" x2="398.10" y2="240.00" stroke="#222" stroke-width="1.6"/><line data-id="CD" class="t2g-obj t2g-seg" x1="398.10" y1="240.00" x2="398.10" y2="240.00" stroke="#222" stroke-width="1.6"/><line data-id="DA" class="t2g-obj t2g-seg" x1="398.10" y1="240.00" x2="81.90" y2="240.00" stroke="#222" stroke-width="1.6"/><line data-id="AC" class="t2g-obj t2g-seg" x1="81.90" y1="240.00" x2="398.10" y2="240.00" stroke="#222" stroke-width="1.6"/><line data-id="BD" class="t2g-obj t2g-seg" x1="240.00" y1="240.00" x2="398.10" y2="240.00" stroke="#222" stroke-width="1.6"/><line data-id="DF" class="t2g-obj t2g-seg" x1="398.10" y1="240.00" x2="398.10" y2="240.00" stroke="#222" stroke-width="1.6"/><line data-id="AF" class="t2g-obj t2g-seg" x1="81.90" y1="240.00" x2="398.10" y2="240.00" stroke="#222" stroke-width="1.6"/><circle data-id="A" class="t2g-obj t2g-point" cx="81.90" cy="240.00" r="3.0" fill="#222"/><text x="69.90" y="244.00" text-anchor="middle" fill="#222">A</text><circle data-id="B" class="t2g-obj t2g-point" cx="240.00" cy="240.00" r="3.0" fill="#222"/><text x="228.00" y="244.00" text-anchor="middle" fill="#222">B</text><circle data-id="C" class="t2g-obj t2g-point" cx="398.10" cy="240.00" r="3.0" fill="#222"/><text x="410.10" y="244.00" text-anchor="middle" fill="#222">C</text><circle data-id="D" class="t2g-obj t2g-point" cx="398.10" cy="240.00" r="3.0" fill="#222"/><text x="410.10" y="244.00" text-anchor="middle" fill="#222">D</text><circle data-id="E" class="t2g-obj t2g-point" cx="319.05" cy="240.00" r="3.0" fill="#222"/><text x="331.05" y="244.00" text-anchor="middle" fill="#222">E</text><circle data-id="F" class="t2g-obj t2g-point" cx="398.10" cy="240.00" r="3.0" fill="#222"/><text x="410.10" y="244.00" text-anchor="middle" fill="#222">F</text><path d="M 386.10 240.00 A 12.00 12.00 0 0 1 387.71 234.00" fill="none" stroke="#888" stroke-width="1"/><text x="160.95" y="211.54" text-anchor="middle" fill="#555" font-style="italic">4</text><text x="240.00" y="183.08" text-anchor="middle" fill="#555" font-style="italic">8</text><text x="409.96" y="228.14" text-anchor="middle" fill="#555" font-style="italic">30°</text></svg>