<svg xmlns="http://www.w3.org/2000/svg" viewBox="0 0 480 480" width="480" height="480" data-t2g-scale="31.70587121863791" data-t2g-offset-x="59.83322378700592" data-t2g-offset-y="40.0" data-t2g-bbox-minx="-10.063339616442915" data-t2g-bbox-miny="-6.933517841887266" data-t2g-canvas-size="480" font-family="PingFang SC, Source Han Sans SC, Noto Sans CJK SC, sans-serif" font-size="14.0"><rect width="100%" height="100%" fill="white"/><circle data-id="circ" class="t2g-obj t2g-circle" cx="240.00" cy="220.17" r="138.90" fill="none" stroke="#222" stroke-width="1.6"/><polygon data-id="tri" class="t2g-obj t2g-poly" points="378.90,220.17 101.10,220.17 166.09,398.73" fill="none" stroke="#222" stroke-width="1.6"/><line data-id="AB" class="t2g-obj t2g-seg" x1="378.90" y1="220.17" x2="101.10" y2="220.17" stroke="#222" stroke-width="1.6"/><line data-id="BC" class="t2g-obj t2g-seg" x1="101.10" y1="220.17" x2="166.09" y2="398.73" stroke="#222" stroke-width="1.6"/><line data-id="CA" class="t2g-obj t2g-seg" x1="166.09" y1="398.73" x2="378.90" y2="220.17" stroke="#222" stroke-width="1.6"/><line data-id="OD" class="t2g-obj t2g-seg" x1="240.00" y1="220.17" x2="133.60" y2="309.45" stroke="#222" stroke-width="1.6"/><line data-id="DE" class="t2g-obj t2g-seg" x1="133.60" y1="309.45" x2="190.99" y2="377.85" stroke="#222" stroke-width="1.6"/><circle data-id="A" class="t2g-obj t2g-point" cx="378.90" cy="220.17" r="3.0" fill="#222"/><text x="390.04" y="219.71" text-anchor="middle" fill="#222">A</text><circle data-id="B" class="t2g-obj t2g-point" cx="101.10" cy="220.17" r="3.0" fill="#222"/><text x="91.29" y="217.26" text-anchor="middle" fill="#222">B</text><circle data-id="C" class="t2g-obj t2g-point" cx="166.09" cy="398.73" r="3.0" fill="#222"/><text x="162.32" y="414.12" text-anchor="middle" fill="#222">C</text><circle data-id="O" class="t2g-obj t2g-point" cx="240.00" cy="220.17" r="3.0" fill="#222"/><text x="245.69" y="213.60" text-anchor="middle" fill="#222">O</text><circle data-id="D" class="t2g-obj t2g-point" cx="133.60" cy="309.45" r="3.0" fill="#222"/><text x="122.01" y="316.57" text-anchor="middle" fill="#222">D</text><circle data-id="E" class="t2g-obj t2g-point" cx="190.99" cy="377.85" r="3.0" fill="#222"/><text x="189.51" y="393.75" text-anchor="middle" fill="#222">E</text><polyline points="141.26,303.02 147.68,310.68 140.02,317.11" fill="none" stroke="#222" stroke-width="1.2"/><line x1="240.00" y1="223.17" x2="240.00" y2="217.17" stroke="#222" stroke-width="1.2"/><line x1="270.57" y1="307.15" x2="274.42" y2="311.75" stroke="#222" stroke-width="1.2"/><path d="M 125.10 220.17 A 24.00 24.00 0 0 1 109.31 242.72" fill="none" stroke="#888" stroke-width="1"/></svg>