<svg xmlns="http://www.w3.org/2000/svg" viewBox="0 0 480 480" width="480" height="480" data-t2g-scale="57.34367466884905" data-t2g-offset-x="40.0" data-t2g-offset-y="167.99399535357156" data-t2g-bbox-minx="-6.219793808954287" data-t2g-bbox-miny="-0.7556921938165307" data-t2g-canvas-size="480" font-family="PingFang SC, Source Han Sans SC, Noto Sans CJK SC, sans-serif" font-size="14.0"><rect width="100%" height="100%" fill="white"/><line data-id="AB" class="t2g-obj t2g-seg" x1="396.67" y1="268.67" x2="281.98" y2="268.67" stroke="#222" stroke-width="1.6"/><line data-id="BC" class="t2g-obj t2g-seg" x1="281.98" y1="268.67" x2="182.66" y2="211.33" stroke="#222" stroke-width="1.6"/><line data-id="CD" class="t2g-obj t2g-seg" x1="182.66" y1="211.33" x2="281.98" y2="268.67" stroke="#222" stroke-width="1.6"/><line data-id="DE" class="t2g-obj t2g-seg" x1="281.98" y1="268.67" x2="182.66" y2="211.33" stroke="#222" stroke-width="1.6"/><line data-id="EF" class="t2g-obj t2g-seg" x1="182.66" y1="211.33" x2="83.33" y2="268.67" stroke="#222" stroke-width="1.6"/><circle data-id="A" class="t2g-obj t2g-point" cx="396.67" cy="268.67" r="3.0" fill="#222"/><text x="408.58" y="274.08" text-anchor="middle" fill="#222">A</text><circle data-id="B" class="t2g-obj t2g-point" cx="281.98" cy="268.67" r="3.0" fill="#222"/><text x="293.10" y="277.18" text-anchor="middle" fill="#222">B</text><circle data-id="C" class="t2g-obj t2g-point" cx="182.66" cy="211.33" r="3.0" fill="#222"/><text x="172.97" y="208.24" text-anchor="middle" fill="#222">C</text><circle data-id="D" class="t2g-obj t2g-point" cx="281.98" cy="268.67" r="3.0" fill="#222"/><text x="293.10" y="277.18" text-anchor="middle" fill="#222">D</text><circle data-id="E" class="t2g-obj t2g-point" cx="182.66" cy="211.33" r="3.0" fill="#222"/><text x="172.97" y="208.24" text-anchor="middle" fill="#222">E</text><circle data-id="F" class="t2g-obj t2g-point" cx="83.33" cy="268.67" r="3.0" fill="#222"/><text x="71.43" y="274.17" text-anchor="middle" fill="#222">F</text><line x1="339.32" y1="271.67" x2="339.32" y2="265.67" stroke="#222" stroke-width="1.2"/><line x1="230.82" y1="242.60" x2="233.82" y2="237.40" stroke="#222" stroke-width="1.2"/><line x1="233.82" y1="237.40" x2="230.82" y2="242.60" stroke="#222" stroke-width="1.2"/><line x1="230.82" y1="242.60" x2="233.82" y2="237.40" stroke="#222" stroke-width="1.2"/><line x1="134.50" y1="242.60" x2="131.50" y2="237.40" stroke="#222" stroke-width="1.2"/><path d="M 372.67 268.67 A 24.00 24.00 0 0 1 373.48 262.46" fill="none" stroke="#888" stroke-width="1"/><text x="413.87" y="251.47" text-anchor="middle" fill="#555" font-style="italic">15°</text></svg>