<svg xmlns="http://www.w3.org/2000/svg" viewBox="0 0 480 480" width="480" height="480" data-t2g-scale="14.55604075691412" data-t2g-offset-x="40.0" data-t2g-offset-y="99.26923973398092" data-t2g-bbox-minx="-9.74" data-t2g-bbox-miny="-6.2041016151377555" data-t2g-canvas-size="480" font-family="PingFang SC, Source Han Sans SC, Noto Sans CJK SC, sans-serif" font-size="14.0"><rect width="100%" height="100%" fill="white"/><polygon data-id="tri1" class="t2g-obj t2g-poly" points="181.78,290.42 159.94,252.61 138.11,290.42" fill="none" stroke="#222" stroke-width="1.6"/><polygon data-id="tri2" class="t2g-obj t2g-poly" points="138.11,290.42 109.00,340.85 79.88,290.42" fill="none" stroke="#222" stroke-width="1.6"/><line data-id="AB" class="t2g-obj t2g-seg" x1="181.78" y1="290.42" x2="159.94" y2="252.61" stroke="#222" stroke-width="1.6"/><line data-id="BC" class="t2g-obj t2g-seg" x1="159.94" y1="252.61" x2="138.11" y2="290.42" stroke="#222" stroke-width="1.6"/><line data-id="CA" class="t2g-obj t2g-seg" x1="138.11" y1="290.42" x2="181.78" y2="290.42" stroke="#222" stroke-width="1.6"/><line data-id="CD" class="t2g-obj t2g-seg" x1="138.11" y1="290.42" x2="109.00" y2="340.85" stroke="#222" stroke-width="1.6"/><line data-id="DE" class="t2g-obj t2g-seg" x1="109.00" y1="340.85" x2="79.88" y2="290.42" stroke="#222" stroke-width="1.6"/><line data-id="EC" class="t2g-obj t2g-seg" x1="79.88" y1="290.42" x2="138.11" y2="290.42" stroke="#222" stroke-width="1.6"/><line data-id="AE" class="t2g-obj t2g-seg" x1="181.78" y1="290.42" x2="79.88" y2="290.42" stroke="#222" stroke-width="1.6"/><line data-id="AD" class="t2g-obj t2g-seg" x1="181.78" y1="290.42" x2="109.00" y2="340.85" stroke="#222" stroke-width="1.6"/><line data-id="BE" class="t2g-obj t2g-seg" x1="159.94" y1="252.61" x2="79.88" y2="290.42" stroke="#222" stroke-width="1.6"/><line data-id="PQ" class="t2g-obj t2g-seg" x1="109.00" y1="340.85" x2="159.94" y2="252.61" stroke="#222" stroke-width="1.6"/><circle data-id="A" class="t2g-obj t2g-point" cx="181.78" cy="290.42" r="3.0" fill="#222"/><text x="189.92" y="303.24" text-anchor="middle" fill="#222">A</text><circle data-id="C" class="t2g-obj t2g-point" cx="138.11" cy="290.42" r="3.0" fill="#222"/><text x="127.55" y="300.14" text-anchor="middle" fill="#222">C</text><circle data-id="E" class="t2g-obj t2g-point" cx="79.88" cy="290.42" r="3.0" fill="#222"/><text x="68.07" y="296.55" text-anchor="middle" fill="#222">E</text><circle data-id="B" class="t2g-obj t2g-point" cx="159.94" cy="252.61" r="3.0" fill="#222"/><text x="156.18" y="245.21" text-anchor="middle" fill="#222">B</text><circle data-id="D" class="t2g-obj t2g-point" cx="109.00" cy="340.85" r="3.0" fill="#222"/><text x="101.07" y="353.86" text-anchor="middle" fill="#222">D</text><circle data-id="O" class="t2g-obj t2g-point" cx="400.12" cy="139.15" r="3.0" fill="#222"/><text x="410.49" y="137.12" text-anchor="middle" fill="#222">O</text><circle data-id="P" class="t2g-obj t2g-point" cx="109.00" cy="340.85" r="3.0" fill="#222"/><text x="101.07" y="353.86" text-anchor="middle" fill="#222">P</text><circle data-id="Q" class="t2g-obj t2g-point" cx="159.94" cy="252.61" r="3.0" fill="#222"/><text x="156.18" y="245.21" text-anchor="middle" fill="#222">Q</text><line x1="168.26" y1="273.01" x2="173.46" y2="270.01" stroke="#222" stroke-width="1.2"/><line x1="151.62" y1="273.01" x2="146.43" y2="270.01" stroke="#222" stroke-width="1.2"/><line x1="159.94" y1="287.42" x2="159.94" y2="293.42" stroke="#222" stroke-width="1.2"/><line x1="127.15" y1="315.40" x2="121.95" y2="312.40" stroke="#222" stroke-width="1.2"/><line x1="125.15" y1="318.87" x2="119.95" y2="315.87" stroke="#222" stroke-width="1.2"/><line x1="92.84" y1="318.87" x2="98.04" y2="315.87" stroke="#222" stroke-width="1.2"/><line x1="90.84" y1="315.40" x2="96.04" y2="312.40" stroke="#222" stroke-width="1.2"/><line x1="107.00" y1="287.42" x2="107.00" y2="293.42" stroke="#222" stroke-width="1.2"/><line x1="111.00" y1="287.42" x2="111.00" y2="293.42" stroke="#222" stroke-width="1.2"/></svg>