<svg xmlns="http://www.w3.org/2000/svg" viewBox="0 0 480 480" width="480" height="480" data-t2g-scale="38.87727999668583" data-t2g-offset-x="113.47123989566515" data-t2g-offset-y="40.0" data-t2g-bbox-minx="-1.4328023478614127" data-t2g-bbox-miny="-5.212451541666803" data-t2g-canvas-size="480" font-family="PingFang SC, Source Han Sans SC, Noto Sans CJK SC, sans-serif" font-size="14.0"><rect width="100%" height="100%" fill="white"/><polygon data-id="sq" class="t2g-obj t2g-poly" points="169.17,237.35 324.68,237.35 324.68,81.84 169.17,81.84" fill="none" stroke="#222" stroke-width="1.6"/><polygon data-id="tri" class="t2g-obj t2g-poly" points="303.26,239.29 155.32,287.19 191.24,398.16" fill="none" stroke="#222" stroke-width="1.6"/><line data-id="AB" class="t2g-obj t2g-seg" x1="169.17" y1="237.35" x2="324.68" y2="237.35" stroke="#222" stroke-width="1.6"/><line data-id="BC" class="t2g-obj t2g-seg" x1="324.68" y1="237.35" x2="324.68" y2="81.84" stroke="#222" stroke-width="1.6"/><line data-id="CD" class="t2g-obj t2g-seg" x1="324.68" y1="81.84" x2="169.17" y2="81.84" stroke="#222" stroke-width="1.6"/><line data-id="DA" class="t2g-obj t2g-seg" x1="169.17" y1="81.84" x2="169.17" y2="237.35" stroke="#222" stroke-width="1.6"/><line data-id="EF" class="t2g-obj t2g-seg" x1="303.26" y1="239.29" x2="155.32" y2="287.19" stroke="#222" stroke-width="1.6"/><line data-id="FG" class="t2g-obj t2g-seg" x1="155.32" y1="287.19" x2="191.24" y2="398.16" stroke="#222" stroke-width="1.6"/><line data-id="GE" class="t2g-obj t2g-seg" x1="191.24" y1="398.16" x2="303.26" y2="239.29" stroke="#222" stroke-width="1.6"/><circle data-id="A" class="t2g-obj t2g-point" cx="169.17" cy="237.35" r="3.0" fill="#222"/><text x="157.45" y="243.90" text-anchor="middle" fill="#222">A</text><circle data-id="B" class="t2g-obj t2g-point" cx="324.68" cy="237.35" r="3.0" fill="#222"/><text x="336.54" y="243.19" text-anchor="middle" fill="#222">B</text><circle data-id="C" class="t2g-obj t2g-point" cx="324.68" cy="81.84" r="3.0" fill="#222"/><text x="331.16" y="75.74" text-anchor="middle" fill="#222">C</text><circle data-id="D" class="t2g-obj t2g-point" cx="169.17" cy="81.84" r="3.0" fill="#222"/><text x="164.18" y="74.93" text-anchor="middle" fill="#222">D</text><circle data-id="E" class="t2g-obj t2g-point" cx="303.26" cy="239.29" r="3.0" fill="#222"/><text x="314.96" y="245.99" text-anchor="middle" fill="#222">E</text><circle data-id="F" class="t2g-obj t2g-point" cx="155.32" cy="287.19" r="3.0" fill="#222"/><text x="146.00" y="298.76" text-anchor="middle" fill="#222">F</text><circle data-id="G" class="t2g-obj t2g-point" cx="191.24" cy="398.16" r="3.0" fill="#222"/><text x="188.40" y="413.81" text-anchor="middle" fill="#222">G</text><polyline points="314.68,237.35 314.68,227.35 324.68,227.35" fill="none" stroke="#222" stroke-width="1.2"/><polyline points="324.68,91.84 314.68,91.84 314.68,81.84" fill="none" stroke="#222" stroke-width="1.2"/><polyline points="164.83,284.11 167.91,293.63 158.40,296.71" fill="none" stroke="#222" stroke-width="1.2"/><line x1="246.93" y1="234.35" x2="246.93" y2="240.35" stroke="#222" stroke-width="1.2"/><line x1="321.68" y1="159.60" x2="327.68" y2="159.60" stroke="#222" stroke-width="1.2"/><line x1="246.93" y1="84.84" x2="246.93" y2="78.84" stroke="#222" stroke-width="1.2"/><line x1="172.17" y1="159.60" x2="166.17" y2="159.60" stroke="#222" stroke-width="1.2"/></svg>