<svg xmlns="http://www.w3.org/2000/svg" viewBox="0 0 480 480" width="480" height="480" data-t2g-scale="35.21126760563381" data-t2g-offset-x="39.99999999999997" data-t2g-offset-y="145.6338028169014" data-t2g-bbox-minx="-10.18" data-t2g-bbox-miny="-1.1800000000000002" data-t2g-canvas-size="480" font-family="PingFang SC, Source Han Sans SC, Noto Sans CJK SC, sans-serif" font-size="14.0"><rect width="100%" height="100%" fill="white"/><polygon data-id="trap" class="t2g-obj t2g-poly" points="398.45,292.82 292.82,292.82 292.82,187.18 81.55,187.18" fill="none" stroke="#222" stroke-width="1.6"/><line data-id="AB" class="t2g-obj t2g-seg" x1="398.45" y1="292.82" x2="292.82" y2="292.82" stroke="#222" stroke-width="1.6"/><line data-id="BC" class="t2g-obj t2g-seg" x1="292.82" y1="292.82" x2="292.82" y2="187.18" stroke="#222" stroke-width="1.6"/><line data-id="CD" class="t2g-obj t2g-seg" x1="292.82" y1="187.18" x2="81.55" y2="187.18" stroke="#222" stroke-width="1.6"/><line data-id="DA" class="t2g-obj t2g-seg" x1="81.55" y1="187.18" x2="398.45" y2="292.82" stroke="#222" stroke-width="1.6"/><circle data-id="A" class="t2g-obj t2g-point" cx="398.45" cy="292.82" r="3.0" fill="#222"/><text x="409.59" y="301.27" text-anchor="middle" fill="#222">A</text><circle data-id="B" class="t2g-obj t2g-point" cx="292.82" cy="292.82" r="3.0" fill="#222"/><text x="298.18" y="307.55" text-anchor="middle" fill="#222">B</text><circle data-id="C" class="t2g-obj t2g-point" cx="292.82" cy="187.18" r="3.0" fill="#222"/><text x="298.18" y="180.45" text-anchor="middle" fill="#222">C</text><circle data-id="D" class="t2g-obj t2g-point" cx="81.55" cy="187.18" r="3.0" fill="#222"/><text x="70.01" y="187.89" text-anchor="middle" fill="#222">D</text><polyline points="302.82,292.82 302.82,282.82 292.82,282.82" fill="none" stroke="#222" stroke-width="1.2"/><text x="345.63" y="311.83" text-anchor="middle" fill="#555" font-style="italic">3</text><text x="187.18" y="225.21" text-anchor="middle" fill="#555" font-style="italic">6</text><text x="273.80" y="240.00" text-anchor="middle" fill="#555" font-style="italic">3</text></svg>