<svg xmlns="http://www.w3.org/2000/svg" viewBox="0 0 480 480" width="480" height="480" data-t2g-scale="52.35602094240837" data-t2g-offset-x="79.26701570680629" data-t2g-offset-y="40.0" data-t2g-bbox-minx="-3.82" data-t2g-bbox-miny="-6.82" data-t2g-canvas-size="480" font-family="PingFang SC, Source Han Sans SC, Noto Sans CJK SC, sans-serif" font-size="14.0"><rect width="100%" height="100%" fill="white"/><polygon data-id="tri" class="t2g-obj t2g-poly" points="279.27,82.93 122.20,82.93 279.27,292.36" fill="none" stroke="#222" stroke-width="1.6"/><polygon data-id="tri2" class="t2g-obj t2g-poly" points="357.80,187.64 200.73,187.64 357.80,397.07" fill="none" stroke="#222" stroke-width="1.6"/><polygon data-id="para1" class="t2g-obj t2g-poly" points="279.27,82.93 122.20,82.93 200.73,187.64 357.80,187.64" fill="none" stroke="#222" stroke-width="1.6"/><polygon data-id="para2" class="t2g-obj t2g-poly" points="279.27,82.93 279.27,292.36 357.80,397.07 357.80,187.64" fill="none" stroke="#222" stroke-width="1.6"/><line data-id="AB" class="t2g-obj t2g-seg" x1="279.27" y1="82.93" x2="122.20" y2="82.93" stroke="#222" stroke-width="1.6"/><line data-id="BC" class="t2g-obj t2g-seg" x1="122.20" y1="82.93" x2="279.27" y2="292.36" stroke="#222" stroke-width="1.6"/><line data-id="CA" class="t2g-obj t2g-seg" x1="279.27" y1="292.36" x2="279.27" y2="82.93" stroke="#222" stroke-width="1.6"/><line data-id="DE" class="t2g-obj t2g-seg" x1="357.80" y1="187.64" x2="200.73" y2="187.64" stroke="#222" stroke-width="1.6"/><line data-id="EF" class="t2g-obj t2g-seg" x1="200.73" y1="187.64" x2="357.80" y2="397.07" stroke="#222" stroke-width="1.6"/><line data-id="FD" class="t2g-obj t2g-seg" x1="357.80" y1="397.07" x2="357.80" y2="187.64" stroke="#222" stroke-width="1.6"/><line data-id="AE" class="t2g-obj t2g-seg" x1="279.27" y1="82.93" x2="200.73" y2="187.64" stroke="#222" stroke-width="1.6"/><line data-id="AD" class="t2g-obj t2g-seg" x1="279.27" y1="82.93" x2="357.80" y2="187.64" stroke="#222" stroke-width="1.6"/><line data-id="BE" class="t2g-obj t2g-seg" x1="122.20" y1="82.93" x2="200.73" y2="187.64" stroke="#222" stroke-width="1.6"/><line data-id="CF" class="t2g-obj t2g-seg" x1="279.27" y1="292.36" x2="357.80" y2="397.07" stroke="#222" stroke-width="1.6"/><circle data-id="A" class="t2g-obj t2g-point" cx="279.27" cy="82.93" r="3.0" fill="#222"/><text x="280.55" y="75.00" text-anchor="middle" fill="#222">A</text><circle data-id="B" class="t2g-obj t2g-point" cx="122.20" cy="82.93" r="3.0" fill="#222"/><text x="113.05" y="79.17" text-anchor="middle" fill="#222">B</text><circle data-id="C" class="t2g-obj t2g-point" cx="279.27" cy="292.36" r="3.0" fill="#222"/><text x="281.05" y="308.22" text-anchor="middle" fill="#222">C</text><circle data-id="D" class="t2g-obj t2g-point" cx="357.80" cy="187.64" r="3.0" fill="#222"/><text x="369.59" y="189.40" text-anchor="middle" fill="#222">D</text><circle data-id="E" class="t2g-obj t2g-point" cx="200.73" cy="187.64" r="3.0" fill="#222"/><text x="189.14" y="188.55" text-anchor="middle" fill="#222">E</text><circle data-id="F" class="t2g-obj t2g-point" cx="357.80" cy="397.07" r="3.0" fill="#222"/><text x="362.97" y="411.90" text-anchor="middle" fill="#222">F</text><polyline points="269.27,82.93 269.27,92.93 279.27,92.93" fill="none" stroke="#222" stroke-width="1.2"/><text x="200.73" y="111.20" text-anchor="middle" fill="#555" font-style="italic">3</text><text x="241.57" y="187.64" text-anchor="middle" fill="#555" font-style="italic">4</text><text x="294.97" y="67.23" text-anchor="middle" fill="#555" font-style="italic">90°</text><text x="180.31" y="121.15" text-anchor="middle" fill="#555" font-style="italic">2.5</text></svg>