<svg xmlns="http://www.w3.org/2000/svg" viewBox="0 0 480 480" width="480" height="480" data-t2g-scale="39.52569169960474" data-t2g-offset-x="39.99999999999997" data-t2g-offset-y="39.99999999999997" data-t2g-bbox-minx="-9.06" data-t2g-bbox-miny="-1.06" data-t2g-canvas-size="480" font-family="PingFang SC, Source Han Sans SC, Noto Sans CJK SC, sans-serif" font-size="14.0"><rect width="100%" height="100%" fill="white"/><polygon data-id="rect" class="t2g-obj t2g-poly" points="398.10,398.10 81.90,398.10 81.90,240.00 398.10,240.00" fill="none" stroke="#222" stroke-width="1.6"/><polygon data-id="top" class="t2g-obj t2g-poly" points="398.10,240.00 81.90,240.00 81.90,81.90 398.10,81.90" fill="none" stroke="#222" stroke-width="1.6"/><line data-id="AB" class="t2g-obj t2g-seg" x1="398.10" y1="398.10" x2="81.90" y2="398.10" stroke="#222" stroke-width="1.6"/><line data-id="BC" class="t2g-obj t2g-seg" x1="81.90" y1="398.10" x2="81.90" y2="240.00" stroke="#222" stroke-width="1.6"/><line data-id="CD" class="t2g-obj t2g-seg" x1="81.90" y1="240.00" x2="398.10" y2="240.00" stroke="#222" stroke-width="1.6"/><line data-id="DA" class="t2g-obj t2g-seg" x1="398.10" y1="240.00" x2="398.10" y2="398.10" stroke="#222" stroke-width="1.6"/><line data-id="CE" class="t2g-obj t2g-seg" x1="81.90" y1="240.00" x2="81.90" y2="81.90" stroke="#222" stroke-width="1.6"/><line data-id="EF" class="t2g-obj t2g-seg" x1="81.90" y1="81.90" x2="398.10" y2="81.90" stroke="#222" stroke-width="1.6"/><line data-id="FD" class="t2g-obj t2g-seg" x1="398.10" y1="81.90" x2="398.10" y2="240.00" stroke="#222" stroke-width="1.6"/><line data-id="MN" class="t2g-obj t2g-seg" x1="240.00" y1="81.90" x2="240.00" y2="240.00" stroke="#222" stroke-width="1.6"/><circle data-id="A" class="t2g-obj t2g-point" cx="398.10" cy="398.10" r="3.0" fill="#222"/><text x="406.08" y="411.07" text-anchor="middle" fill="#222">A</text><circle data-id="B" class="t2g-obj t2g-point" cx="81.90" cy="398.10" r="3.0" fill="#222"/><text x="73.92" y="411.07" text-anchor="middle" fill="#222">B</text><circle data-id="C" class="t2g-obj t2g-point" cx="81.90" cy="240.00" r="3.0" fill="#222"/><text x="69.99" y="245.49" text-anchor="middle" fill="#222">C</text><circle data-id="D" class="t2g-obj t2g-point" cx="398.10" cy="240.00" r="3.0" fill="#222"/><text x="410.01" y="245.49" text-anchor="middle" fill="#222">D</text><circle data-id="E" class="t2g-obj t2g-point" cx="81.90" cy="81.90" r="3.0" fill="#222"/><text x="72.87" y="78.00" text-anchor="middle" fill="#222">E</text><circle data-id="F" class="t2g-obj t2g-point" cx="398.10" cy="81.90" r="3.0" fill="#222"/><text x="407.13" y="78.00" text-anchor="middle" fill="#222">F</text><circle data-id="M" class="t2g-obj t2g-point" cx="240.00" cy="81.90" r="3.0" fill="#222"/><text x="240.00" y="73.90" text-anchor="middle" fill="#222">M</text><circle data-id="N" class="t2g-obj t2g-point" cx="240.00" cy="240.00" r="3.0" fill="#222"/><text x="240.00" y="256.00" text-anchor="middle" fill="#222">N</text><polyline points="91.90,398.10 91.90,388.10 81.90,388.10" fill="none" stroke="#222" stroke-width="1.2"/><polyline points="81.90,250.00 91.90,250.00 91.90,240.00" fill="none" stroke="#222" stroke-width="1.2"/><polyline points="388.10,240.00 388.10,250.00 398.10,250.00" fill="none" stroke="#222" stroke-width="1.2"/><polyline points="91.90,240.00 91.90,230.00 81.90,230.00" fill="none" stroke="#222" stroke-width="1.2"/><polyline points="81.90,91.90 91.90,91.90 91.90,81.90" fill="none" stroke="#222" stroke-width="1.2"/><polyline points="388.10,81.90 388.10,91.90 398.10,91.90" fill="none" stroke="#222" stroke-width="1.2"/></svg>