<svg xmlns="http://www.w3.org/2000/svg" viewBox="0 0 480 480" width="480" height="480" data-t2g-scale="31.746031746031747" data-t2g-offset-x="40.0" data-t2g-offset-y="40.0" data-t2g-bbox-minx="-6.3" data-t2g-bbox-miny="-6.3" data-t2g-canvas-size="480" font-family="PingFang SC, Source Han Sans SC, Noto Sans CJK SC, sans-serif" font-size="14.0"><rect width="100%" height="100%" fill="white"/><line x1="81.27" y1="398.73" x2="81.27" y2="81.27" stroke="#e5e7eb" stroke-width="1"/><line x1="113.02" y1="398.73" x2="113.02" y2="81.27" stroke="#e5e7eb" stroke-width="1"/><line x1="144.76" y1="398.73" x2="144.76" y2="81.27" stroke="#e5e7eb" stroke-width="1"/><line x1="176.51" y1="398.73" x2="176.51" y2="81.27" stroke="#e5e7eb" stroke-width="1"/><line x1="208.25" y1="398.73" x2="208.25" y2="81.27" stroke="#e5e7eb" stroke-width="1"/><line x1="240.00" y1="398.73" x2="240.00" y2="81.27" stroke="#e5e7eb" stroke-width="1"/><line x1="271.75" y1="398.73" x2="271.75" y2="81.27" stroke="#e5e7eb" stroke-width="1"/><line x1="303.49" y1="398.73" x2="303.49" y2="81.27" stroke="#e5e7eb" stroke-width="1"/><line x1="335.24" y1="398.73" x2="335.24" y2="81.27" stroke="#e5e7eb" stroke-width="1"/><line x1="366.98" y1="398.73" x2="366.98" y2="81.27" stroke="#e5e7eb" stroke-width="1"/><line x1="398.73" y1="398.73" x2="398.73" y2="81.27" stroke="#e5e7eb" stroke-width="1"/><line x1="81.27" y1="398.73" x2="398.73" y2="398.73" stroke="#e5e7eb" stroke-width="1"/><line x1="81.27" y1="366.98" x2="398.73" y2="366.98" stroke="#e5e7eb" stroke-width="1"/><line x1="81.27" y1="335.24" x2="398.73" y2="335.24" stroke="#e5e7eb" stroke-width="1"/><line x1="81.27" y1="303.49" x2="398.73" y2="303.49" stroke="#e5e7eb" stroke-width="1"/><line x1="81.27" y1="271.75" x2="398.73" y2="271.75" stroke="#e5e7eb" stroke-width="1"/><line x1="81.27" y1="240.00" x2="398.73" y2="240.00" stroke="#e5e7eb" stroke-width="1"/><line x1="81.27" y1="208.25" x2="398.73" y2="208.25" stroke="#e5e7eb" stroke-width="1"/><line x1="81.27" y1="176.51" x2="398.73" y2="176.51" stroke="#e5e7eb" stroke-width="1"/><line x1="81.27" y1="144.76" x2="398.73" y2="144.76" stroke="#e5e7eb" stroke-width="1"/><line x1="81.27" y1="113.02" x2="398.73" y2="113.02" stroke="#e5e7eb" stroke-width="1"/><line x1="81.27" y1="81.27" x2="398.73" y2="81.27" stroke="#e5e7eb" stroke-width="1"/><line x1="81.27" y1="240.00" x2="398.73" y2="240.00" stroke="#9ca3af" stroke-width="1.4" marker-end="url(#t2g-arrow)"/><line x1="240.00" y1="398.73" x2="240.00" y2="81.27" stroke="#9ca3af" stroke-width="1.4" marker-end="url(#t2g-arrow)"/><defs><marker id="t2g-arrow" viewBox="0 0 10 10" refX="9" refY="5" markerUnits="strokeWidth" markerWidth="8" markerHeight="8" orient="auto"><path d="M0,0 L10,5 L0,10 Z" fill="#9ca3af"/></marker></defs><line x1="81.27" y1="236.00" x2="81.27" y2="244.00" stroke="#9ca3af" stroke-width="1"/><text x="81.27" y="256.00" text-anchor="middle" fill="#6b7280" font-size="11">-5</text><line x1="113.02" y1="236.00" x2="113.02" y2="244.00" stroke="#9ca3af" stroke-width="1"/><text x="113.02" y="256.00" text-anchor="middle" fill="#6b7280" font-size="11">-4</text><line x1="144.76" y1="236.00" x2="144.76" y2="244.00" stroke="#9ca3af" stroke-width="1"/><text x="144.76" y="256.00" text-anchor="middle" fill="#6b7280" font-size="11">-3</text><line x1="176.51" y1="236.00" x2="176.51" y2="244.00" stroke="#9ca3af" stroke-width="1"/><text x="176.51" y="256.00" text-anchor="middle" fill="#6b7280" font-size="11">-2</text><line x1="208.25" y1="236.00" x2="208.25" y2="244.00" stroke="#9ca3af" stroke-width="1"/><text x="208.25" y="256.00" text-anchor="middle" fill="#6b7280" font-size="11">-1</text><line x1="271.75" y1="236.00" x2="271.75" y2="244.00" stroke="#9ca3af" stroke-width="1"/><text x="271.75" y="256.00" text-anchor="middle" fill="#6b7280" font-size="11">1</text><line x1="303.49" y1="236.00" x2="303.49" y2="244.00" stroke="#9ca3af" stroke-width="1"/><text x="303.49" y="256.00" text-anchor="middle" fill="#6b7280" font-size="11">2</text><line x1="335.24" y1="236.00" x2="335.24" y2="244.00" stroke="#9ca3af" stroke-width="1"/><text x="335.24" y="256.00" text-anchor="middle" fill="#6b7280" font-size="11">3</text><line x1="366.98" y1="236.00" x2="366.98" y2="244.00" stroke="#9ca3af" stroke-width="1"/><text x="366.98" y="256.00" text-anchor="middle" fill="#6b7280" font-size="11">4</text><line x1="398.73" y1="236.00" x2="398.73" y2="244.00" stroke="#9ca3af" stroke-width="1"/><text x="398.73" y="256.00" text-anchor="middle" fill="#6b7280" font-size="11">5</text><line x1="236.00" y1="398.73" x2="244.00" y2="398.73" stroke="#9ca3af" stroke-width="1"/><text x="232.00" y="402.73" text-anchor="end" fill="#6b7280" font-size="11">-5</text><line x1="236.00" y1="366.98" x2="244.00" y2="366.98" stroke="#9ca3af" stroke-width="1"/><text x="232.00" y="370.98" text-anchor="end" fill="#6b7280" font-size="11">-4</text><line x1="236.00" y1="335.24" x2="244.00" y2="335.24" stroke="#9ca3af" stroke-width="1"/><text x="232.00" y="339.24" text-anchor="end" fill="#6b7280" font-size="11">-3</text><line x1="236.00" y1="303.49" x2="244.00" y2="303.49" stroke="#9ca3af" stroke-width="1"/><text x="232.00" y="307.49" text-anchor="end" fill="#6b7280" font-size="11">-2</text><line x1="236.00" y1="271.75" x2="244.00" y2="271.75" stroke="#9ca3af" stroke-width="1"/><text x="232.00" y="275.75" text-anchor="end" fill="#6b7280" font-size="11">-1</text><line x1="236.00" y1="208.25" x2="244.00" y2="208.25" stroke="#9ca3af" stroke-width="1"/><text x="232.00" y="212.25" text-anchor="end" fill="#6b7280" font-size="11">1</text><line x1="236.00" y1="176.51" x2="244.00" y2="176.51" stroke="#9ca3af" stroke-width="1"/><text x="232.00" y="180.51" text-anchor="end" fill="#6b7280" font-size="11">2</text><line x1="236.00" y1="144.76" x2="244.00" y2="144.76" stroke="#9ca3af" stroke-width="1"/><text x="232.00" y="148.76" text-anchor="end" fill="#6b7280" font-size="11">3</text><line x1="236.00" y1="113.02" x2="244.00" y2="113.02" stroke="#9ca3af" stroke-width="1"/><text x="232.00" y="117.02" text-anchor="end" fill="#6b7280" font-size="11">4</text><line x1="236.00" y1="81.27" x2="244.00" y2="81.27" stroke="#9ca3af" stroke-width="1"/><text x="232.00" y="85.27" text-anchor="end" fill="#6b7280" font-size="11">5</text><text x="408.73" y="244.00" text-anchor="start" fill="#9ca3af" font-size="13" font-style="italic">x</text><text x="240.00" y="73.27" text-anchor="middle" fill="#9ca3af" font-size="13" font-style="italic">y</text><text x="232.00" y="254.00" text-anchor="end" fill="#6b7280" font-size="11">O</text><polygon data-id="tri" class="t2g-obj t2g-poly" points="144.76,144.76 240.00,240.00 366.98,240.00" fill="none" stroke="#222" stroke-width="1.6"/><line data-id="OA" class="t2g-obj t2g-seg" x1="240.00" y1="240.00" x2="144.76" y2="144.76" stroke="#222" stroke-width="1.6"/><line data-id="OB" class="t2g-obj t2g-seg" x1="240.00" y1="240.00" x2="366.98" y2="240.00" stroke="#222" stroke-width="1.6"/><line data-id="AB" class="t2g-obj t2g-seg" x1="144.76" y1="144.76" x2="366.98" y2="240.00" stroke="#222" stroke-width="1.6"/><circle data-id="O" class="t2g-obj t2g-point" cx="240.00" cy="240.00" r="3.0" fill="#222"/><text x="240.00" y="256.00" text-anchor="middle" fill="#222">O</text><circle data-id="A" class="t2g-obj t2g-point" cx="144.76" cy="144.76" r="3.0" fill="#222"/><text x="134.47" y="142.59" text-anchor="middle" fill="#222">A</text><circle data-id="B" class="t2g-obj t2g-point" cx="366.98" cy="240.00" r="3.0" fill="#222"/><text x="378.48" y="247.45" text-anchor="middle" fill="#222">B</text><circle data-id="C" class="t2g-obj t2g-point" cx="192.38" cy="192.38" r="3.0" fill="#222"/><text x="180.61" y="194.03" text-anchor="middle" fill="#222">C</text><circle data-id="D" class="t2g-obj t2g-point" cx="255.87" cy="192.38" r="3.0" fill="#222"/><text x="266.16" y="190.21" text-anchor="middle" fill="#222">D</text></svg>