<svg xmlns="http://www.w3.org/2000/svg" viewBox="0 0 480 480" width="480" height="480" data-t2g-scale="31.74603172694539" data-t2g-offset-x="40.0" data-t2g-offset-y="40.00000009697101" data-t2g-bbox-minx="-6.300000006842273" data-t2g-bbox-miny="-6.3000000007331005" data-t2g-canvas-size="480" font-family="PingFang SC, Source Han Sans SC, Noto Sans CJK SC, sans-serif" font-size="14.0"><rect width="100%" height="100%" fill="white"/><circle data-id="circ" class="t2g-obj t2g-circle" cx="240.00" cy="240.00" r="158.73" fill="none" stroke="#222" stroke-width="1.6"/><line data-id="AB" class="t2g-obj t2g-seg" x1="81.27" y1="240.00" x2="81.27" y2="240.00" stroke="#222" stroke-width="1.6"/><line data-id="AD" class="t2g-obj t2g-seg" x1="81.27" y1="240.00" x2="88.87" y2="288.54" stroke="#222" stroke-width="1.6"/><line data-id="AC" class="t2g-obj t2g-seg" x1="81.27" y1="240.00" x2="83.18" y2="264.57" stroke="#222" stroke-width="1.6"/><line data-id="BD" class="t2g-obj t2g-seg" x1="81.27" y1="240.00" x2="88.87" y2="288.54" stroke="#222" stroke-width="1.6"/><line data-id="BC" class="t2g-obj t2g-seg" x1="81.27" y1="240.00" x2="83.18" y2="264.57" stroke="#222" stroke-width="1.6"/><line data-id="CD" class="t2g-obj t2g-seg" x1="83.18" y1="264.57" x2="88.87" y2="288.54" stroke="#222" stroke-width="1.6"/><line data-id="CE" class="t2g-obj t2g-seg" x1="83.18" y1="264.57" x2="85.07" y2="264.27" stroke="#222" stroke-width="1.6"/><circle data-id="O" class="t2g-obj t2g-point" cx="240.00" cy="240.00" r="3.0" fill="#222"/><text x="251.94" y="242.76" text-anchor="middle" fill="#222">O</text><circle data-id="A" class="t2g-obj t2g-point" cx="81.27" cy="240.00" r="3.0" fill="#222"/><text x="70.83" y="238.09" text-anchor="middle" fill="#222">A</text><circle data-id="B" class="t2g-obj t2g-point" cx="81.27" cy="240.00" r="3.0" fill="#222"/><text x="70.83" y="238.09" text-anchor="middle" fill="#222">B</text><circle data-id="C" class="t2g-obj t2g-point" cx="83.18" cy="264.57" r="3.0" fill="#222"/><text x="72.32" y="273.67" text-anchor="middle" fill="#222">C</text><circle data-id="D" class="t2g-obj t2g-point" cx="88.87" cy="288.54" r="3.0" fill="#222"/><text x="83.59" y="303.32" text-anchor="middle" fill="#222">D</text><circle data-id="E" class="t2g-obj t2g-point" cx="85.07" cy="264.27" r="3.0" fill="#222"/><text x="74.33" y="273.63" text-anchor="middle" fill="#222">E</text><circle data-id="F" class="t2g-obj t2g-point" cx="81.27" cy="240.00" r="3.0" fill="#222"/><text x="70.83" y="238.09" text-anchor="middle" fill="#222">F</text><line x1="85.22" y1="252.05" x2="79.24" y2="252.52" stroke="#222" stroke-width="1.2"/><line x1="88.95" y1="275.86" x2="83.11" y2="277.25" stroke="#222" stroke-width="1.2"/></svg>