<svg xmlns="http://www.w3.org/2000/svg" viewBox="0 0 480 480" width="480" height="480" data-t2g-scale="26.52519893899204" data-t2g-offset-x="66.52519893899205" data-t2g-offset-y="40.0" data-t2g-bbox-minx="-6.54" data-t2g-bbox-miny="-7.54" data-t2g-canvas-size="480" font-family="PingFang SC, Source Han Sans SC, Noto Sans CJK SC, sans-serif" font-size="14.0"><rect width="100%" height="100%" fill="white"/><line x1="107.37" y1="399.15" x2="107.37" y2="80.85" stroke="#e5e7eb" stroke-width="1"/><line x1="133.90" y1="399.15" x2="133.90" y2="80.85" stroke="#e5e7eb" stroke-width="1"/><line x1="160.42" y1="399.15" x2="160.42" y2="80.85" stroke="#e5e7eb" stroke-width="1"/><line x1="186.95" y1="399.15" x2="186.95" y2="80.85" stroke="#e5e7eb" stroke-width="1"/><line x1="213.47" y1="399.15" x2="213.47" y2="80.85" stroke="#e5e7eb" stroke-width="1"/><line x1="240.00" y1="399.15" x2="240.00" y2="80.85" stroke="#e5e7eb" stroke-width="1"/><line x1="266.53" y1="399.15" x2="266.53" y2="80.85" stroke="#e5e7eb" stroke-width="1"/><line x1="293.05" y1="399.15" x2="293.05" y2="80.85" stroke="#e5e7eb" stroke-width="1"/><line x1="319.58" y1="399.15" x2="319.58" y2="80.85" stroke="#e5e7eb" stroke-width="1"/><line x1="346.10" y1="399.15" x2="346.10" y2="80.85" stroke="#e5e7eb" stroke-width="1"/><line x1="372.63" y1="399.15" x2="372.63" y2="80.85" stroke="#e5e7eb" stroke-width="1"/><line x1="107.37" y1="399.15" x2="372.63" y2="399.15" stroke="#e5e7eb" stroke-width="1"/><line x1="107.37" y1="372.63" x2="372.63" y2="372.63" stroke="#e5e7eb" stroke-width="1"/><line x1="107.37" y1="346.10" x2="372.63" y2="346.10" stroke="#e5e7eb" stroke-width="1"/><line x1="107.37" y1="319.58" x2="372.63" y2="319.58" stroke="#e5e7eb" stroke-width="1"/><line x1="107.37" y1="293.05" x2="372.63" y2="293.05" stroke="#e5e7eb" stroke-width="1"/><line x1="107.37" y1="266.53" x2="372.63" y2="266.53" stroke="#e5e7eb" stroke-width="1"/><line x1="107.37" y1="240.00" x2="372.63" y2="240.00" stroke="#e5e7eb" stroke-width="1"/><line x1="107.37" y1="213.47" x2="372.63" y2="213.47" stroke="#e5e7eb" stroke-width="1"/><line x1="107.37" y1="186.95" x2="372.63" y2="186.95" stroke="#e5e7eb" stroke-width="1"/><line x1="107.37" y1="160.42" x2="372.63" y2="160.42" stroke="#e5e7eb" stroke-width="1"/><line x1="107.37" y1="133.90" x2="372.63" y2="133.90" stroke="#e5e7eb" stroke-width="1"/><line x1="107.37" y1="107.37" x2="372.63" y2="107.37" stroke="#e5e7eb" stroke-width="1"/><line x1="107.37" y1="80.85" x2="372.63" y2="80.85" stroke="#e5e7eb" stroke-width="1"/><line x1="107.37" y1="240.00" x2="372.63" y2="240.00" stroke="#9ca3af" stroke-width="1.4" marker-end="url(#t2g-arrow)"/><line x1="240.00" y1="399.15" x2="240.00" y2="80.85" stroke="#9ca3af" stroke-width="1.4" marker-end="url(#t2g-arrow)"/><defs><marker id="t2g-arrow" viewBox="0 0 10 10" refX="9" refY="5" markerUnits="strokeWidth" markerWidth="8" markerHeight="8" orient="auto"><path d="M0,0 L10,5 L0,10 Z" fill="#9ca3af"/></marker></defs><line x1="107.37" y1="236.00" x2="107.37" y2="244.00" stroke="#9ca3af" stroke-width="1"/><text x="107.37" y="256.00" text-anchor="middle" fill="#6b7280" font-size="11">-5</text><line x1="133.90" y1="236.00" x2="133.90" y2="244.00" stroke="#9ca3af" stroke-width="1"/><text x="133.90" y="256.00" text-anchor="middle" fill="#6b7280" font-size="11">-4</text><line x1="160.42" y1="236.00" x2="160.42" y2="244.00" stroke="#9ca3af" stroke-width="1"/><text x="160.42" y="256.00" text-anchor="middle" fill="#6b7280" font-size="11">-3</text><line x1="186.95" y1="236.00" x2="186.95" y2="244.00" stroke="#9ca3af" stroke-width="1"/><text x="186.95" y="256.00" text-anchor="middle" fill="#6b7280" font-size="11">-2</text><line x1="213.47" y1="236.00" x2="213.47" y2="244.00" stroke="#9ca3af" stroke-width="1"/><text x="213.47" y="256.00" text-anchor="middle" fill="#6b7280" font-size="11">-1</text><line x1="266.53" y1="236.00" x2="266.53" y2="244.00" stroke="#9ca3af" stroke-width="1"/><text x="266.53" y="256.00" text-anchor="middle" fill="#6b7280" font-size="11">1</text><line x1="293.05" y1="236.00" x2="293.05" y2="244.00" stroke="#9ca3af" stroke-width="1"/><text x="293.05" y="256.00" text-anchor="middle" fill="#6b7280" font-size="11">2</text><line x1="319.58" y1="236.00" x2="319.58" y2="244.00" stroke="#9ca3af" stroke-width="1"/><text x="319.58" y="256.00" text-anchor="middle" fill="#6b7280" font-size="11">3</text><line x1="346.10" y1="236.00" x2="346.10" y2="244.00" stroke="#9ca3af" stroke-width="1"/><text x="346.10" y="256.00" text-anchor="middle" fill="#6b7280" font-size="11">4</text><line x1="372.63" y1="236.00" x2="372.63" y2="244.00" stroke="#9ca3af" stroke-width="1"/><text x="372.63" y="256.00" text-anchor="middle" fill="#6b7280" font-size="11">5</text><line x1="236.00" y1="399.15" x2="244.00" y2="399.15" stroke="#9ca3af" stroke-width="1"/><text x="232.00" y="403.15" text-anchor="end" fill="#6b7280" font-size="11">-6</text><line x1="236.00" y1="372.63" x2="244.00" y2="372.63" stroke="#9ca3af" stroke-width="1"/><text x="232.00" y="376.63" text-anchor="end" fill="#6b7280" font-size="11">-5</text><line x1="236.00" y1="346.10" x2="244.00" y2="346.10" stroke="#9ca3af" stroke-width="1"/><text x="232.00" y="350.10" text-anchor="end" fill="#6b7280" font-size="11">-4</text><line x1="236.00" y1="319.58" x2="244.00" y2="319.58" stroke="#9ca3af" stroke-width="1"/><text x="232.00" y="323.58" text-anchor="end" fill="#6b7280" font-size="11">-3</text><line x1="236.00" y1="293.05" x2="244.00" y2="293.05" stroke="#9ca3af" stroke-width="1"/><text x="232.00" y="297.05" text-anchor="end" fill="#6b7280" font-size="11">-2</text><line x1="236.00" y1="266.53" x2="244.00" y2="266.53" stroke="#9ca3af" stroke-width="1"/><text x="232.00" y="270.53" text-anchor="end" fill="#6b7280" font-size="11">-1</text><line x1="236.00" y1="213.47" x2="244.00" y2="213.47" stroke="#9ca3af" stroke-width="1"/><text x="232.00" y="217.47" text-anchor="end" fill="#6b7280" font-size="11">1</text><line x1="236.00" y1="186.95" x2="244.00" y2="186.95" stroke="#9ca3af" stroke-width="1"/><text x="232.00" y="190.95" text-anchor="end" fill="#6b7280" font-size="11">2</text><line x1="236.00" y1="160.42" x2="244.00" y2="160.42" stroke="#9ca3af" stroke-width="1"/><text x="232.00" y="164.42" text-anchor="end" fill="#6b7280" font-size="11">3</text><line x1="236.00" y1="133.90" x2="244.00" y2="133.90" stroke="#9ca3af" stroke-width="1"/><text x="232.00" y="137.90" text-anchor="end" fill="#6b7280" font-size="11">4</text><line x1="236.00" y1="107.37" x2="244.00" y2="107.37" stroke="#9ca3af" stroke-width="1"/><text x="232.00" y="111.37" text-anchor="end" fill="#6b7280" font-size="11">5</text><line x1="236.00" y1="80.85" x2="244.00" y2="80.85" stroke="#9ca3af" stroke-width="1"/><text x="232.00" y="84.85" text-anchor="end" fill="#6b7280" font-size="11">6</text><text x="382.63" y="244.00" text-anchor="start" fill="#9ca3af" font-size="13" font-style="italic">x</text><text x="240.00" y="72.85" text-anchor="middle" fill="#9ca3af" font-size="13" font-style="italic">y</text><text x="232.00" y="254.00" text-anchor="end" fill="#6b7280" font-size="11">O</text><polyline data-id="c1" class="t2g-obj t2g-curve" points="200.21,399.15 200.61,397.55 201.01,395.95 201.41,394.35 201.81,392.75 202.21,391.15 202.61,389.55 203.01,387.95 203.41,386.36 203.81,384.76 204.21,383.16 204.61,381.56 205.01,379.96 205.41,378.36 205.81,376.76 206.21,375.16 206.61,373.56 207.01,371.96 207.41,370.36 207.81,368.76 208.21,367.16 208.61,365.56 209.01,363.96 209.41,362.36 209.81,360.76 210.21,359.16 210.61,357.56 211.01,355.96 211.41,354.36 211.81,352.77 212.21,351.17 212.61,349.57 213.01,347.97 213.41,346.37 213.81,344.77 214.21,343.17 214.61,341.57 215.01,339.97 215.41,338.37 215.81,336.77 216.21,335.17 216.61,333.57 217.01,331.97 217.41,330.37 217.81,328.77 218.21,327.17 218.61,325.57 219.01,323.97 219.41,322.37 219.81,320.78 220.21,319.18 220.61,317.58 221.01,315.98 221.41,314.38 221.81,312.78 222.21,311.18 222.61,309.58 223.01,307.98 223.41,306.38 223.80,304.78 224.20,303.18 224.60,301.58 225.00,299.98 225.40,298.38 225.80,296.78 226.20,295.18 226.60,293.58 227.00,291.98 227.40,290.38 227.80,288.79 228.20,287.19 228.60,285.59 229.00,283.99 229.40,282.39 229.80,280.79 230.20,279.19 230.60,277.59 231.00,275.99 231.40,274.39 231.80,272.79 232.20,271.19 232.60,269.59 233.00,267.99 233.40,266.39 233.80,264.79 234.20,263.19 234.60,261.59 235.00,259.99 235.40,258.39 235.80,256.79 236.20,255.20 236.60,253.60 237.00,252.00 237.40,250.40 237.80,248.80 238.20,247.20 238.60,245.60 239.00,244.00 239.40,242.40 239.80,240.80 240.20,239.20 240.60,237.60 241.00,236.00 241.40,234.40 241.80,232.80 242.20,231.20 242.60,229.60 243.00,228.00 243.40,226.40 243.80,224.80 244.20,223.21 244.60,221.61 245.00,220.01 245.40,218.41 245.80,216.81 246.20,215.21 246.60,213.61 247.00,212.01 247.40,210.41 247.80,208.81 248.20,207.21 248.60,205.61 249.00,204.01 249.40,202.41 249.80,200.81 250.20,199.21 250.60,197.61 251.00,196.01 251.40,194.41 251.80,192.81 252.20,191.21 252.60,189.62 253.00,188.02 253.40,186.42 253.80,184.82 254.20,183.22 254.60,181.62 255.00,180.02 255.40,178.42 255.80,176.82 256.20,175.22 256.59,173.62 256.99,172.02 257.39,170.42 257.79,168.82 258.19,167.22 258.59,165.62 258.99,164.02 259.39,162.42 259.79,160.82 260.19,159.22 260.59,157.63 260.99,156.03 261.39,154.43 261.79,152.83 262.19,151.23 262.59,149.63 262.99,148.03 263.39,146.43 263.79,144.83 264.19,143.23 264.59,141.63 264.99,140.03 265.39,138.43 265.79,136.83 266.19,135.23 266.59,133.63 266.99,132.03 267.39,130.43 267.79,128.83 268.19,127.23 268.59,125.64 268.99,124.04 269.39,122.44 269.79,120.84 270.19,119.24 270.59,117.64 270.99,116.04 271.39,114.44 271.79,112.84 272.19,111.24 272.59,109.64 272.99,108.04 273.39,106.44 273.79,104.84 274.19,103.24 274.59,101.64 274.99,100.04 275.39,98.44 275.79,96.84 276.19,95.24 276.59,93.64 276.99,92.05 277.39,90.45 277.79,88.85 278.19,87.25 278.59,85.65 278.99,84.05 279.39,82.45 279.79,80.85" fill="none" stroke="#0d6efd" stroke-width="1.6"/><polyline data-id="c2" class="t2g-obj t2g-curve" points="107.37,261.22 108.04,261.33 108.70,261.44 109.37,261.54 110.03,261.65 110.70,261.77 111.36,261.88 112.03,261.99 112.69,262.11 113.36,262.22 114.02,262.34 114.69,262.46 115.35,262.58 116.02,262.70 116.68,262.82 117.35,262.95 118.01,263.07 118.68,263.20 119.34,263.32 120.01,263.45 120.67,263.58 121.33,263.72 122.00,263.85 122.66,263.99 123.33,264.12 123.99,264.26 124.66,264.40 125.32,264.54 125.99,264.68 126.65,264.83 127.32,264.98 127.98,265.12 128.65,265.27 129.31,265.43 129.98,265.58 130.64,265.74 131.31,265.89 131.97,266.05 132.64,266.21 133.30,266.38 133.97,266.54 134.63,266.71 135.30,266.88 135.96,267.05 136.62,267.22 137.29,267.40 137.95,267.58 138.62,267.76 139.28,267.94 139.95,268.13 140.61,268.32 141.28,268.51 141.94,268.70 142.61,268.90 143.27,269.10 143.94,269.30 144.60,269.50 145.27,269.71 145.93,269.92 146.60,270.13 147.26,270.35 147.93,270.57 148.59,270.79 149.26,271.01 149.92,271.24 150.59,271.48 151.25,271.71 151.92,271.95 152.58,272.19 153.24,272.44 153.91,272.69 154.57,272.94 155.24,273.20 155.90,273.47 156.57,273.73 157.23,274.00 157.90,274.28 158.56,274.56 159.23,274.84 159.89,275.13 160.56,275.43 161.22,275.73 161.89,276.03 162.55,276.34 163.22,276.65 163.88,276.97 164.55,277.30 165.21,277.63 165.88,277.97 166.54,278.31 167.21,278.66 167.87,279.02 168.53,279.38 169.20,279.75 169.86,280.13 170.53,280.51 171.19,280.90 171.86,281.30 172.52,281.71 173.19,282.12 173.85,282.55 174.52,282.98 175.18,283.42 175.85,283.87 176.51,284.33 177.18,284.80 177.84,285.28 178.51,285.77 179.17,286.27 179.84,286.78 180.50,287.30 181.17,287.84 181.83,288.38 182.50,288.94 183.16,289.51 183.83,290.10 184.49,290.70 185.15,291.31 185.82,291.94 186.48,292.59 187.15,293.25 187.81,293.93 188.48,294.62 189.14,295.34 189.81,296.07 190.47,296.82 191.14,297.60 191.80,298.39 192.47,299.21 193.13,300.05 193.80,300.91 194.46,301.80 195.13,302.72 195.79,303.66 196.46,304.63 197.12,305.63 197.79,306.67 198.45,307.73 199.12,308.84 199.78,309.97 200.44,311.15 201.11,312.37 201.77,313.62 202.44,314.93 203.10,316.28 203.77,317.68 204.43,319.13 205.10,320.64 205.76,322.20 206.43,323.83 207.09,325.52 207.76,327.29 208.42,329.12 209.09,331.04 209.75,333.04 210.42,335.13 211.08,337.32 211.75,339.61 212.41,342.01 213.08,344.53 213.74,347.18 214.41,349.96 215.07,352.89 215.74,355.98 216.40,359.25 217.06,362.71 217.73,366.37 218.39,370.26 219.06,374.39 219.72,378.80 220.39,383.51 221.05,388.54 221.72,393.94 222.38,399.75 223.05,406.02 223.71,412.79 224.38,420.15 225.04,428.15 225.71,436.90 226.37,446.51 227.04,457.10 227.70,468.83 228.37,481.91 229.03,496.57 229.70,513.12 230.36,531.96 231.03,553.59 231.69,578.67 232.35,608.12 233.02,643.18 233.68,685.62 234.35,738.05 235.01,804.46 235.68,891.30 236.34,1009.71 237.01,1180.76 237.67,1449.55 238.34,1933.37 239.00,3062.28 239.67,8706.84 240.33,-8226.84 241.00,-2582.28 241.66,-1453.37 242.33,-969.55 242.99,-700.76 243.66,-529.71 244.32,-411.30 244.99,-324.46 245.65,-258.05 246.32,-205.62 246.98,-163.18 247.65,-128.12 248.31,-98.67 248.97,-73.59 249.64,-51.96 250.30,-33.12 250.97,-16.57 251.63,-1.91 252.30,11.17 252.96,22.90 253.63,33.49 254.29,43.10 254.96,51.85 255.62,59.85 256.29,67.21 256.95,73.98 257.62,80.25 258.28,86.06 258.95,91.46 259.61,96.49 260.28,101.20 260.94,105.61 261.61,109.74 262.27,113.63 262.94,117.29 263.60,120.75 264.26,124.02 264.93,127.11 265.59,130.04 266.26,132.82 266.92,135.47 267.59,137.99 268.25,140.39 268.92,142.68 269.58,144.87 270.25,146.96 270.91,148.96 271.58,150.88 272.24,152.71 272.91,154.48 273.57,156.17 274.24,157.80 274.90,159.36 275.57,160.87 276.23,162.32 276.90,163.72 277.56,165.07 278.23,166.38 278.89,167.63 279.56,168.85 280.22,170.03 280.88,171.16 281.55,172.27 282.21,173.33 282.88,174.37 283.54,175.37 284.21,176.34 284.87,177.28 285.54,178.20 286.20,179.09 286.87,179.95 287.53,180.79 288.20,181.61 288.86,182.40 289.53,183.18 290.19,183.93 290.86,184.66 291.52,185.38 292.19,186.07 292.85,186.75 293.52,187.41 294.18,188.06 294.85,188.69 295.51,189.30 296.17,189.90 296.84,190.49 297.50,191.06 298.17,191.62 298.83,192.16 299.50,192.70 300.16,193.22 300.83,193.73 301.49,194.23 302.16,194.72 302.82,195.20 303.49,195.67 304.15,196.13 304.82,196.58 305.48,197.02 306.15,197.45 306.81,197.88 307.48,198.29 308.14,198.70 308.81,199.10 309.47,199.49 310.14,199.87 310.80,200.25 311.47,200.62 312.13,200.98 312.79,201.34 313.46,201.69 314.12,202.03 314.79,202.37 315.45,202.70 316.12,203.03 316.78,203.35 317.45,203.66 318.11,203.97 318.78,204.27 319.44,204.57 320.11,204.87 320.77,205.16 321.44,205.44 322.10,205.72 322.77,206.00 323.43,206.27 324.10,206.53 324.76,206.80 325.43,207.06 326.09,207.31 326.76,207.56 327.42,207.81 328.08,208.05 328.75,208.29 329.41,208.52 330.08,208.76 330.74,208.99 331.41,209.21 332.07,209.43 332.74,209.65 333.40,209.87 334.07,210.08 334.73,210.29 335.40,210.50 336.06,210.70 336.73,210.90 337.39,211.10 338.06,211.30 338.72,211.49 339.39,211.68 340.05,211.87 340.72,212.06 341.38,212.24 342.05,212.42 342.71,212.60 343.38,212.78 344.04,212.95 344.70,213.12 345.37,213.29 346.03,213.46 346.70,213.62 347.36,213.79 348.03,213.95 348.69,214.11 349.36,214.26 350.02,214.42 350.69,214.57 351.35,214.73 352.02,214.88 352.68,215.02 353.35,215.17 354.01,215.32 354.68,215.46 355.34,215.60 356.01,215.74 356.67,215.88 357.34,216.01 358.00,216.15 358.67,216.28 359.33,216.42 359.99,216.55 360.66,216.68 361.32,216.80 361.99,216.93 362.65,217.05 363.32,217.18 363.98,217.30 364.65,217.42 365.31,217.54 365.98,217.66 366.64,217.78 367.31,217.89 367.97,218.01 368.64,218.12 369.30,218.23 369.97,218.35 370.63,218.46 371.30,218.56 371.96,218.67 372.63,218.78" fill="none" stroke="#0d6efd" stroke-width="1.6"/><line data-id="AB" class="t2g-obj t2g-seg" x1="290.05" y1="183.77" x2="189.94" y2="296.22" stroke="#222" stroke-width="1.6"/><line data-id="BC" class="t2g-obj t2g-seg" x1="189.94" y1="296.22" x2="290.23" y2="183.93" stroke="#222" stroke-width="1.6"/><line data-id="AC" class="t2g-obj t2g-seg" x1="290.05" y1="183.77" x2="290.23" y2="183.93" stroke="#222" stroke-width="1.6"/><circle data-id="O" class="t2g-obj t2g-point" cx="240.00" cy="240.00" r="3.0" fill="#222"/><text x="231.99" y="252.94" text-anchor="middle" fill="#222">O</text><circle data-id="A" class="t2g-obj t2g-point" cx="290.05" cy="183.77" r="3.0" fill="#222"/><text x="298.02" y="178.80" text-anchor="middle" fill="#222">A</text><circle data-id="B" class="t2g-obj t2g-point" cx="189.94" cy="296.22" r="3.0" fill="#222"/><text x="181.95" y="309.18" text-anchor="middle" fill="#222">B</text><circle data-id="C" class="t2g-obj t2g-point" cx="290.23" cy="183.93" r="3.0" fill="#222"/><text x="298.24" y="178.99" text-anchor="middle" fill="#222">C</text><polyline points="283.57,191.39 276.11,184.73 282.77,177.27" fill="none" stroke="#222" stroke-width="1.2"/></svg>