<svg xmlns="http://www.w3.org/2000/svg" viewBox="0 0 480 480" width="480" height="480" data-t2g-scale="62.5" data-t2g-offset-x="40.0" data-t2g-offset-y="83.16708287664622" data-t2g-bbox-minx="-0.7" data-t2g-bbox-miny="-0.8794228634059945" data-t2g-canvas-size="480" font-family="PingFang SC, Source Han Sans SC, Noto Sans CJK SC, sans-serif" font-size="14.0"><rect width="100%" height="100%" fill="white"/><polygon data-id="quad" class="t2g-obj t2g-poly" points="83.75,341.87 396.25,341.87 196.25,191.87 176.83,353.08" fill="none" stroke="#222" stroke-width="1.6"/><line data-id="AB" class="t2g-obj t2g-seg" x1="83.75" y1="341.87" x2="396.25" y2="341.87" stroke="#222" stroke-width="1.6"/><line data-id="BC" class="t2g-obj t2g-seg" x1="396.25" y1="341.87" x2="196.25" y2="191.87" stroke="#222" stroke-width="1.6"/><line data-id="CD" class="t2g-obj t2g-seg" x1="196.25" y1="191.87" x2="176.83" y2="353.08" stroke="#222" stroke-width="1.6"/><line data-id="DA" class="t2g-obj t2g-seg" x1="176.83" y1="353.08" x2="83.75" y2="341.87" stroke="#222" stroke-width="1.6"/><line data-id="AC" class="t2g-obj t2g-seg" x1="83.75" y1="341.87" x2="196.25" y2="191.87" stroke="#222" stroke-width="1.6"/><line data-id="AE" class="t2g-obj t2g-seg" x1="83.75" y1="341.87" x2="109.65" y2="126.92" stroke="#222" stroke-width="1.6"/><line data-id="EF" class="t2g-obj t2g-seg" x1="109.65" y1="126.92" x2="109.65" y2="341.87" stroke="#222" stroke-width="1.6"/><circle data-id="A" class="t2g-obj t2g-point" cx="83.75" cy="341.87" r="3.0" fill="#222"/><text x="73.55" y="352.20" text-anchor="middle" fill="#222">A</text><circle data-id="B" class="t2g-obj t2g-point" cx="396.25" cy="341.87" r="3.0" fill="#222"/><text x="407.83" y="349.01" text-anchor="middle" fill="#222">B</text><circle data-id="C" class="t2g-obj t2g-point" cx="196.25" cy="191.87" r="3.0" fill="#222"/><text x="198.52" y="184.09" text-anchor="middle" fill="#222">C</text><circle data-id="D" class="t2g-obj t2g-point" cx="176.83" cy="353.08" r="3.0" fill="#222"/><text x="176.50" y="369.08" text-anchor="middle" fill="#222">D</text><circle data-id="E" class="t2g-obj t2g-point" cx="109.65" cy="126.92" r="3.0" fill="#222"/><text x="104.79" y="119.94" text-anchor="middle" fill="#222">E</text><circle data-id="F" class="t2g-obj t2g-point" cx="109.65" cy="341.87" r="3.0" fill="#222"/><text x="100.52" y="353.66" text-anchor="middle" fill="#222">F</text><path d="M 106.78 150.74 A 24.00 24.00 0 0 0 128.85 141.32" fill="none" stroke="#888" stroke-width="1"/><path d="M 97.81 323.12 A 23.44 23.44 0 0 1 107.02 344.67" fill="none" stroke="#888" stroke-width="1"/><text x="215.00" y="173.12" text-anchor="middle" fill="#555" font-style="italic">90°</text><text x="128.40" y="323.12" text-anchor="middle" fill="#555" font-style="italic">90°</text></svg>