<svg xmlns="http://www.w3.org/2000/svg" viewBox="0 0 480 480" width="480" height="480" data-t2g-scale="60.06300425424867" data-t2g-offset-x="40.0" data-t2g-offset-y="76.25903947754918" data-t2g-bbox-minx="-1.9329522325460113" data-t2g-bbox-miny="-0.7251296971536221" data-t2g-canvas-size="480" font-family="PingFang SC, Source Han Sans SC, Noto Sans CJK SC, sans-serif" font-size="14.0"><rect width="100%" height="100%" fill="white"/><polygon data-id="tri_abc" class="t2g-obj t2g-poly" points="396.45,360.01 156.71,119.81 156.10,360.19" fill="none" stroke="#222" stroke-width="1.6"/><polygon data-id="tri_dce" class="t2g-obj t2g-poly" points="83.55,264.76 251.05,287.57 156.10,360.19" fill="none" stroke="#222" stroke-width="1.6"/><line data-id="AB" class="t2g-obj t2g-seg" x1="396.45" y1="360.01" x2="156.71" y2="119.81" stroke="#222" stroke-width="1.6"/><line data-id="BC" class="t2g-obj t2g-seg" x1="156.71" y1="119.81" x2="156.10" y2="360.19" stroke="#222" stroke-width="1.6"/><line data-id="CA" class="t2g-obj t2g-seg" x1="156.10" y1="360.19" x2="396.45" y2="360.01" stroke="#222" stroke-width="1.6"/><line data-id="DE" class="t2g-obj t2g-seg" x1="83.55" y1="264.76" x2="251.05" y2="287.57" stroke="#222" stroke-width="1.6"/><line data-id="EC" class="t2g-obj t2g-seg" x1="251.05" y1="287.57" x2="156.10" y2="360.19" stroke="#222" stroke-width="1.6"/><line data-id="CD" class="t2g-obj t2g-seg" x1="156.10" y1="360.19" x2="83.55" y2="264.76" stroke="#222" stroke-width="1.6"/><line data-id="AD" class="t2g-obj t2g-seg" x1="396.45" y1="360.01" x2="83.55" y2="264.76" stroke="#222" stroke-width="1.6"/><line data-id="BE" class="t2g-obj t2g-seg" x1="156.71" y1="119.81" x2="251.05" y2="287.57" stroke="#222" stroke-width="1.6"/><circle data-id="C" class="t2g-obj t2g-point" cx="156.10" cy="360.19" r="3.0" fill="#222"/><text x="148.36" y="373.36" text-anchor="middle" fill="#222">C</text><circle data-id="A" class="t2g-obj t2g-point" cx="396.45" cy="360.01" r="3.0" fill="#222"/><text x="407.51" y="368.65" text-anchor="middle" fill="#222">A</text><circle data-id="B" class="t2g-obj t2g-point" cx="156.71" cy="119.81" r="3.0" fill="#222"/><text x="152.49" y="112.58" text-anchor="middle" fill="#222">B</text><circle data-id="E" class="t2g-obj t2g-point" cx="251.05" cy="287.57" r="3.0" fill="#222"/><text x="263.02" y="292.29" text-anchor="middle" fill="#222">E</text><circle data-id="D" class="t2g-obj t2g-point" cx="83.55" cy="264.76" r="3.0" fill="#222"/><text x="71.69" y="266.93" text-anchor="middle" fill="#222">D</text><polyline points="166.10,360.18 166.12,350.18 156.12,350.19" fill="none" stroke="#222" stroke-width="1.2"/><polyline points="150.05,352.23 157.99,346.15 164.04,354.11" fill="none" stroke="#222" stroke-width="1.2"/><line x1="276.27" y1="357.10" x2="276.27" y2="363.10" stroke="#222" stroke-width="1.2"/><line x1="159.40" y1="240.01" x2="153.40" y2="239.99" stroke="#222" stroke-width="1.2"/><line x1="118.65" y1="315.88" x2="123.42" y2="312.25" stroke="#222" stroke-width="1.2"/><line x1="116.23" y1="312.70" x2="121.00" y2="309.06" stroke="#222" stroke-width="1.2"/><line x1="206.98" y1="325.05" x2="203.34" y2="320.28" stroke="#222" stroke-width="1.2"/><line x1="203.81" y1="327.48" x2="200.16" y2="322.71" stroke="#222" stroke-width="1.2"/></svg>