<svg xmlns="http://www.w3.org/2000/svg" viewBox="0 0 480 480" width="480" height="480" data-t2g-scale="56.36133006237361" data-t2g-offset-x="52.31914574239556" data-t2g-offset-y="40.0" data-t2g-bbox-minx="-4.76745786383861" data-t2g-bbox-miny="-6.329606729160357" data-t2g-canvas-size="480" font-family="PingFang SC, Source Han Sans SC, Noto Sans CJK SC, sans-serif" font-size="14.0"><rect width="100%" height="100%" fill="white"/><polygon data-id="trap" class="t2g-obj t2g-poly" points="321.02,83.25 95.57,83.25 222.39,396.75 384.43,240.00" fill="none" stroke="#222" stroke-width="1.6"/><line data-id="AB" class="t2g-obj t2g-seg" x1="321.02" y1="83.25" x2="95.57" y2="83.25" stroke="#222" stroke-width="1.6"/><line data-id="BC" class="t2g-obj t2g-seg" x1="95.57" y1="83.25" x2="222.39" y2="396.75" stroke="#222" stroke-width="1.6"/><line data-id="CD" class="t2g-obj t2g-seg" x1="222.39" y1="396.75" x2="384.43" y2="240.00" stroke="#222" stroke-width="1.6"/><line data-id="AD" class="t2g-obj t2g-seg" x1="321.02" y1="83.25" x2="384.43" y2="240.00" stroke="#222" stroke-width="1.6"/><line data-id="AC" class="t2g-obj t2g-seg" x1="321.02" y1="83.25" x2="222.39" y2="396.75" stroke="#222" stroke-width="1.6"/><line data-id="BD" class="t2g-obj t2g-seg" x1="95.57" y1="83.25" x2="384.43" y2="240.00" stroke="#222" stroke-width="1.6"/><circle data-id="A" class="t2g-obj t2g-point" cx="321.02" cy="83.25" r="3.0" fill="#222"/><text x="326.48" y="76.57" text-anchor="middle" fill="#222">A</text><circle data-id="B" class="t2g-obj t2g-point" cx="95.57" cy="83.25" r="3.0" fill="#222"/><text x="85.69" y="80.44" text-anchor="middle" fill="#222">B</text><circle data-id="C" class="t2g-obj t2g-point" cx="222.39" cy="396.75" r="3.0" fill="#222"/><text x="220.02" y="412.51" text-anchor="middle" fill="#222">C</text><circle data-id="D" class="t2g-obj t2g-point" cx="384.43" cy="240.00" r="3.0" fill="#222"/><text x="395.78" y="247.89" text-anchor="middle" fill="#222">D</text><circle data-id="O" class="t2g-obj t2g-point" cx="288.14" cy="187.75" r="3.0" fill="#222"/><text x="299.27" y="187.25" text-anchor="middle" fill="#222">O</text></svg>