<svg xmlns="http://www.w3.org/2000/svg" viewBox="0 0 480 480" width="480" height="480" data-t2g-scale="52.35602094240837" data-t2g-offset-x="118.53403141361258" data-t2g-offset-y="40.0" data-t2g-bbox-minx="-3.82" data-t2g-bbox-miny="-6.82" data-t2g-canvas-size="480" font-family="PingFang SC, Source Han Sans SC, Noto Sans CJK SC, sans-serif" font-size="14.0"><rect width="100%" height="100%" fill="white"/><polygon data-id="quad" class="t2g-obj t2g-poly" points="318.53,82.93 161.47,82.93 161.47,397.07 318.53,279.27" fill="none" stroke="#222" stroke-width="1.6"/><line data-id="AB" class="t2g-obj t2g-seg" x1="318.53" y1="82.93" x2="161.47" y2="82.93" stroke="#222" stroke-width="1.6"/><line data-id="BC" class="t2g-obj t2g-seg" x1="161.47" y1="82.93" x2="161.47" y2="397.07" stroke="#222" stroke-width="1.6"/><line data-id="CD" class="t2g-obj t2g-seg" x1="161.47" y1="397.07" x2="318.53" y2="279.27" stroke="#222" stroke-width="1.6"/><line data-id="DA" class="t2g-obj t2g-seg" x1="318.53" y1="279.27" x2="318.53" y2="82.93" stroke="#222" stroke-width="1.6"/><line data-id="AC" class="t2g-obj t2g-seg" x1="318.53" y1="82.93" x2="161.47" y2="397.07" stroke="#222" stroke-width="1.6"/><line data-id="BE" class="t2g-obj t2g-seg" x1="161.47" y1="82.93" x2="275.70" y2="311.39" stroke="#222" stroke-width="1.6"/><circle data-id="A" class="t2g-obj t2g-point" cx="318.53" cy="82.93" r="3.0" fill="#222"/><text x="323.78" y="76.14" text-anchor="middle" fill="#222">A</text><circle data-id="B" class="t2g-obj t2g-point" cx="161.47" cy="82.93" r="3.0" fill="#222"/><text x="155.56" y="76.49" text-anchor="middle" fill="#222">B</text><circle data-id="C" class="t2g-obj t2g-point" cx="161.47" cy="397.07" r="3.0" fill="#222"/><text x="155.99" y="411.75" text-anchor="middle" fill="#222">C</text><circle data-id="D" class="t2g-obj t2g-point" cx="318.53" cy="279.27" r="3.0" fill="#222"/><text x="328.61" y="289.79" text-anchor="middle" fill="#222">D</text><circle data-id="O" class="t2g-obj t2g-point" cx="240.00" cy="240.00" r="3.0" fill="#222"/><text x="232.68" y="253.51" text-anchor="middle" fill="#222">O</text><circle data-id="E" class="t2g-obj t2g-point" cx="275.70" cy="311.39" r="3.0" fill="#222"/><text x="279.92" y="326.63" text-anchor="middle" fill="#222">E</text><line x1="315.53" y1="181.10" x2="321.53" y2="181.10" stroke="#222" stroke-width="1.2"/><line x1="238.20" y1="335.77" x2="241.80" y2="340.57" stroke="#222" stroke-width="1.2"/></svg>