<svg xmlns="http://www.w3.org/2000/svg" viewBox="0 0 480 480" width="480" height="480" data-t2g-scale="39.52569169960474" data-t2g-offset-x="39.99999999999997" data-t2g-offset-y="39.99999999999997" data-t2g-bbox-minx="-5.0600000000000005" data-t2g-bbox-miny="-5.0600000000000005" data-t2g-canvas-size="480" font-family="PingFang SC, Source Han Sans SC, Noto Sans CJK SC, sans-serif" font-size="14.0"><rect width="100%" height="100%" fill="white"/><circle data-id="circ" class="t2g-obj t2g-circle" cx="240.00" cy="240.00" r="158.10" fill="none" stroke="#222" stroke-width="1.6"/><line data-id="AB" class="t2g-obj t2g-seg" x1="81.90" y1="240.00" x2="210.34" y2="84.70" stroke="#222" stroke-width="1.6"/><line data-id="AC" class="t2g-obj t2g-seg" x1="81.90" y1="240.00" x2="144.39" y2="114.08" stroke="#222" stroke-width="1.6"/><line data-id="BC" class="t2g-obj t2g-seg" x1="210.34" y1="84.70" x2="144.39" y2="114.08" stroke="#222" stroke-width="1.6"/><line data-id="BE" class="t2g-obj t2g-seg" x1="210.34" y1="84.70" x2="98.38" y2="310.29" stroke="#222" stroke-width="1.6"/><line data-id="AD" class="t2g-obj t2g-seg" x1="81.90" y1="240.00" x2="98.38" y2="169.71" stroke="#222" stroke-width="1.6"/><line data-id="DC" class="t2g-obj t2g-seg" x1="98.38" y1="169.71" x2="144.39" y2="114.08" stroke="#222" stroke-width="1.6"/><line data-id="CB" class="t2g-obj t2g-seg" x1="144.39" y1="114.08" x2="210.34" y2="84.70" stroke="#222" stroke-width="1.6"/><circle data-id="O" class="t2g-obj t2g-point" cx="240.00" cy="240.00" r="3.0" fill="#222"/><text x="250.75" y="249.33" text-anchor="middle" fill="#222">O</text><circle data-id="A" class="t2g-obj t2g-point" cx="81.90" cy="240.00" r="3.0" fill="#222"/><text x="72.23" y="251.11" text-anchor="middle" fill="#222">A</text><circle data-id="B" class="t2g-obj t2g-point" cx="210.34" cy="84.70" r="3.0" fill="#222"/><text x="216.49" y="78.40" text-anchor="middle" fill="#222">B</text><circle data-id="C" class="t2g-obj t2g-point" cx="144.39" cy="114.08" r="3.0" fill="#222"/><text x="144.21" y="106.08" text-anchor="middle" fill="#222">C</text><circle data-id="D" class="t2g-obj t2g-point" cx="98.38" cy="169.71" r="3.0" fill="#222"/><text x="87.63" y="168.38" text-anchor="middle" fill="#222">D</text><circle data-id="E" class="t2g-obj t2g-point" cx="98.38" cy="310.29" r="3.0" fill="#222"/><text x="93.90" y="325.42" text-anchor="middle" fill="#222">E</text><line x1="87.22" y1="204.17" x2="93.06" y2="205.54" stroke="#222" stroke-width="1.2"/><line x1="119.07" y1="139.98" x2="123.70" y2="143.81" stroke="#222" stroke-width="1.2"/><line x1="176.15" y1="96.65" x2="178.59" y2="102.13" stroke="#222" stroke-width="1.2"/></svg>