<svg xmlns="http://www.w3.org/2000/svg" viewBox="0 0 480 480" width="480" height="480" data-t2g-scale="58.33948404536496" data-t2g-offset-x="40.0" data-t2g-offset-y="86.94316016443912" data-t2g-bbox-minx="-6.112250242098996" data-t2g-bbox-miny="-4.502940151939955" data-t2g-canvas-size="480" font-family="PingFang SC, Source Han Sans SC, Noto Sans CJK SC, sans-serif" font-size="14.0"><rect width="100%" height="100%" fill="white"/><polygon data-id="rh" class="t2g-obj t2g-poly" points="396.59,130.36 163.23,130.36 83.41,349.64 316.77,349.64" fill="none" stroke="#222" stroke-width="1.6"/><line data-id="AB" class="t2g-obj t2g-seg" x1="396.59" y1="130.36" x2="163.23" y2="130.36" stroke="#222" stroke-width="1.6"/><line data-id="BC" class="t2g-obj t2g-seg" x1="163.23" y1="130.36" x2="83.41" y2="349.64" stroke="#222" stroke-width="1.6"/><line data-id="CD" class="t2g-obj t2g-seg" x1="83.41" y1="349.64" x2="316.77" y2="349.64" stroke="#222" stroke-width="1.6"/><line data-id="DA" class="t2g-obj t2g-seg" x1="316.77" y1="349.64" x2="396.59" y2="130.36" stroke="#222" stroke-width="1.6"/><line data-id="AC" class="t2g-obj t2g-seg" x1="396.59" y1="130.36" x2="83.41" y2="349.64" stroke="#222" stroke-width="1.6"/><line data-id="BD" class="t2g-obj t2g-seg" x1="163.23" y1="130.36" x2="316.77" y2="349.64" stroke="#222" stroke-width="1.6"/><line data-id="OE" class="t2g-obj t2g-seg" x1="240.00" y1="240.00" x2="279.91" y2="130.36" stroke="#222" stroke-width="1.6"/><circle data-id="A" class="t2g-obj t2g-point" cx="396.59" cy="130.36" r="3.0" fill="#222"/><text x="406.83" y="128.11" text-anchor="middle" fill="#222">A</text><circle data-id="B" class="t2g-obj t2g-point" cx="163.23" cy="130.36" r="3.0" fill="#222"/><text x="155.14" y="125.50" text-anchor="middle" fill="#222">B</text><circle data-id="C" class="t2g-obj t2g-point" cx="83.41" cy="349.64" r="3.0" fill="#222"/><text x="73.97" y="361.04" text-anchor="middle" fill="#222">C</text><circle data-id="D" class="t2g-obj t2g-point" cx="316.77" cy="349.64" r="3.0" fill="#222"/><text x="322.54" y="364.17" text-anchor="middle" fill="#222">D</text><circle data-id="O" class="t2g-obj t2g-point" cx="240.00" cy="240.00" r="3.0" fill="#222"/><text x="235.90" y="255.28" text-anchor="middle" fill="#222">O</text><circle data-id="E" class="t2g-obj t2g-point" cx="279.91" cy="130.36" r="3.0" fill="#222"/><text x="284.01" y="123.08" text-anchor="middle" fill="#222">E</text><line x1="279.91" y1="133.36" x2="279.91" y2="127.36" stroke="#222" stroke-width="1.2"/><line x1="126.14" y1="241.03" x2="120.50" y2="238.97" stroke="#222" stroke-width="1.2"/><line x1="200.09" y1="346.64" x2="200.09" y2="352.64" stroke="#222" stroke-width="1.2"/><line x1="353.86" y1="238.97" x2="359.50" y2="241.03" stroke="#222" stroke-width="1.2"/><path d="M 388.38 152.91 A 24.00 24.00 0 0 1 372.59 130.36" fill="none" stroke="#888" stroke-width="1"/></svg>