<svg xmlns="http://www.w3.org/2000/svg" viewBox="0 0 480 480" width="480" height="480" data-t2g-scale="94.94808117088435" data-t2g-offset-x="98.68291480081683" data-t2g-offset-y="40.0" data-t2g-bbox-minx="-0.48836222922970607" data-t2g-bbox-miny="-0.4883382598974073" data-t2g-canvas-size="480" font-family="PingFang SC, Source Han Sans SC, Noto Sans CJK SC, sans-serif" font-size="14.0"><rect width="100%" height="100%" fill="white"/><polygon data-id="sq" class="t2g-obj t2g-poly" points="145.05,393.63 334.95,393.63 334.95,203.73 145.05,203.73" fill="none" stroke="#222" stroke-width="1.6"/><line data-id="AB" class="t2g-obj t2g-seg" x1="145.05" y1="393.63" x2="334.95" y2="393.63" stroke="#222" stroke-width="1.6"/><line data-id="BC" class="t2g-obj t2g-seg" x1="334.95" y1="393.63" x2="334.95" y2="203.73" stroke="#222" stroke-width="1.6"/><line data-id="CD" class="t2g-obj t2g-seg" x1="334.95" y1="203.73" x2="145.05" y2="203.73" stroke="#222" stroke-width="1.6"/><line data-id="DA" class="t2g-obj t2g-seg" x1="145.05" y1="203.73" x2="145.05" y2="393.63" stroke="#222" stroke-width="1.6"/><line data-id="CF" class="t2g-obj t2g-seg" x1="334.95" y1="203.73" x2="334.95" y2="86.37" stroke="#222" stroke-width="1.6"/><line data-id="ED" class="t2g-obj t2g-seg" x1="334.95" y1="298.68" x2="145.05" y2="203.73" stroke="#222" stroke-width="1.6"/><line data-id="EF" class="t2g-obj t2g-seg" x1="334.95" y1="298.68" x2="334.95" y2="86.37" stroke="#222" stroke-width="1.6"/><line data-id="FG" class="t2g-obj t2g-seg" x1="334.95" y1="86.37" x2="181.31" y2="393.63" stroke="#222" stroke-width="1.6"/><circle data-id="A" class="t2g-obj t2g-point" cx="145.05" cy="393.63" r="3.0" fill="#222"/><text x="136.88" y="406.42" text-anchor="middle" fill="#222">A</text><circle data-id="B" class="t2g-obj t2g-point" cx="334.95" cy="393.63" r="3.0" fill="#222"/><text x="341.20" y="407.88" text-anchor="middle" fill="#222">B</text><circle data-id="C" class="t2g-obj t2g-point" cx="334.95" cy="203.73" r="3.0" fill="#222"/><text x="343.93" y="199.78" text-anchor="middle" fill="#222">C</text><circle data-id="D" class="t2g-obj t2g-point" cx="145.05" cy="203.73" r="3.0" fill="#222"/><text x="134.67" y="201.70" text-anchor="middle" fill="#222">D</text><circle data-id="E" class="t2g-obj t2g-point" cx="334.95" cy="298.68" r="3.0" fill="#222"/><text x="346.18" y="306.91" text-anchor="middle" fill="#222">E</text><circle data-id="F" class="t2g-obj t2g-point" cx="334.95" cy="86.37" r="3.0" fill="#222"/><text x="339.49" y="79.26" text-anchor="middle" fill="#222">F</text><circle data-id="G" class="t2g-obj t2g-point" cx="181.31" cy="393.63" r="3.0" fill="#222"/><text x="174.87" y="407.76" text-anchor="middle" fill="#222">G</text><polyline points="324.95,393.63 324.95,383.63 334.95,383.63" fill="none" stroke="#222" stroke-width="1.2"/><polyline points="334.95,213.73 324.95,213.73 324.95,203.73" fill="none" stroke="#222" stroke-width="1.2"/><line x1="240.00" y1="390.63" x2="240.00" y2="396.63" stroke="#222" stroke-width="1.2"/><line x1="331.95" y1="298.68" x2="337.95" y2="298.68" stroke="#222" stroke-width="1.2"/><line x1="240.00" y1="206.73" x2="240.00" y2="200.73" stroke="#222" stroke-width="1.2"/><line x1="148.05" y1="298.68" x2="142.05" y2="298.68" stroke="#222" stroke-width="1.2"/><line x1="331.95" y1="194.52" x2="337.95" y2="194.52" stroke="#222" stroke-width="1.2"/><line x1="331.95" y1="190.52" x2="337.95" y2="190.52" stroke="#222" stroke-width="1.2"/><line x1="240.45" y1="254.79" x2="243.13" y2="249.42" stroke="#222" stroke-width="1.2"/><line x1="236.87" y1="253.00" x2="239.55" y2="247.63" stroke="#222" stroke-width="1.2"/></svg>