<svg xmlns="http://www.w3.org/2000/svg" viewBox="0 0 480 480" width="480" height="480" data-t2g-scale="18.793081829809484" data-t2g-offset-x="40.04798147851281" data-t2g-offset-y="40.0" data-t2g-bbox-minx="-2.1404285310383195" data-t2g-bbox-miny="-2.140454352968904" data-t2g-canvas-size="480" font-family="PingFang SC, Source Han Sans SC, Noto Sans CJK SC, sans-serif" font-size="14.0"><rect width="100%" height="100%" fill="white"/><line data-id="AD" class="t2g-obj t2g-seg" x1="80.27" y1="399.77" x2="399.73" y2="399.77" stroke="#222" stroke-width="1.6"/><line data-id="BD" class="t2g-obj t2g-seg" x1="399.72" y1="80.23" x2="399.73" y2="399.77" stroke="#222" stroke-width="1.6"/><line data-id="BC" class="t2g-obj t2g-seg" x1="399.72" y1="80.23" x2="399.72" y2="155.40" stroke="#222" stroke-width="1.6"/><line data-id="AB" class="t2g-obj t2g-seg" x1="80.27" y1="399.77" x2="399.72" y2="80.23" stroke="#222" stroke-width="1.6"/><line data-id="AC" class="t2g-obj t2g-seg" x1="80.27" y1="399.77" x2="399.72" y2="155.40" stroke="#222" stroke-width="1.6"/><circle data-id="A" class="t2g-obj t2g-point" cx="80.27" cy="399.77" r="3.0" fill="#222"/><text x="69.93" y="409.86" text-anchor="middle" fill="#222">A</text><circle data-id="D" class="t2g-obj t2g-point" cx="399.73" cy="399.77" r="3.0" fill="#222"/><text x="405.64" y="414.22" text-anchor="middle" fill="#222">D</text><circle data-id="B" class="t2g-obj t2g-point" cx="399.72" cy="80.23" r="3.0" fill="#222"/><text x="404.62" y="73.27" text-anchor="middle" fill="#222">B</text><circle data-id="C" class="t2g-obj t2g-point" cx="399.72" cy="155.40" r="3.0" fill="#222"/><text x="407.06" y="149.90" text-anchor="middle" fill="#222">C</text><polyline points="389.73,399.77 389.73,389.77 399.73,389.77" fill="none" stroke="#222" stroke-width="1.2"/><path d="M 97.24 382.80 A 24.00 24.00 0 0 1 104.27 399.77" fill="none" stroke="#888" stroke-width="1"/><path d="M 99.34 385.19 A 24.00 24.00 0 0 1 104.27 399.77" fill="none" stroke="#888" stroke-width="1"/><text x="413.25" y="117.81" text-anchor="middle" fill="#555" font-style="italic">4</text><text x="85.91" y="394.14" text-anchor="middle" fill="#555" font-style="italic">45.01°</text><text x="85.91" y="394.14" text-anchor="middle" fill="#555" font-style="italic">37.42°</text></svg>