<svg xmlns="http://www.w3.org/2000/svg" viewBox="0 0 480 480" width="480" height="480" data-t2g-scale="50.681708212846196" data-t2g-offset-x="95.83967162165871" data-t2g-offset-y="40.0" data-t2g-bbox-minx="-4.844425207077003" data-t2g-bbox-miny="-4.844425207077003" data-t2g-canvas-size="480" font-family="PingFang SC, Source Han Sans SC, Noto Sans CJK SC, sans-serif" font-size="14.0"><rect width="100%" height="100%" fill="white"/><polygon data-id="sq" class="t2g-obj t2g-poly" points="341.36,194.48 138.64,194.48 138.64,397.20 341.36,397.20" fill="none" stroke="#222" stroke-width="1.6"/><polygon data-id="tri" class="t2g-obj t2g-poly" points="341.36,194.48 211.38,101.10 323.06,82.80" fill="none" stroke="#222" stroke-width="1.6"/><line data-id="AB" class="t2g-obj t2g-seg" x1="341.36" y1="194.48" x2="138.64" y2="194.48" stroke="#222" stroke-width="1.6"/><line data-id="BC" class="t2g-obj t2g-seg" x1="138.64" y1="194.48" x2="138.64" y2="397.20" stroke="#222" stroke-width="1.6"/><line data-id="CD" class="t2g-obj t2g-seg" x1="138.64" y1="397.20" x2="341.36" y2="397.20" stroke="#222" stroke-width="1.6"/><line data-id="DA" class="t2g-obj t2g-seg" x1="341.36" y1="397.20" x2="341.36" y2="194.48" stroke="#222" stroke-width="1.6"/><line data-id="AE" class="t2g-obj t2g-seg" x1="341.36" y1="194.48" x2="211.38" y2="101.10" stroke="#222" stroke-width="1.6"/><line data-id="EF" class="t2g-obj t2g-seg" x1="211.38" y1="101.10" x2="323.06" y2="82.80" stroke="#222" stroke-width="1.6"/><line data-id="FA" class="t2g-obj t2g-seg" x1="323.06" y1="82.80" x2="341.36" y2="194.48" stroke="#222" stroke-width="1.6"/><line data-id="FH" class="t2g-obj t2g-seg" x1="323.06" y1="82.80" x2="175.01" y2="249.15" stroke="#222" stroke-width="1.6"/><circle data-id="A" class="t2g-obj t2g-point" cx="341.36" cy="194.48" r="3.0" fill="#222"/><text x="352.67" y="194.47" text-anchor="middle" fill="#222">A</text><circle data-id="B" class="t2g-obj t2g-point" cx="138.64" cy="194.48" r="3.0" fill="#222"/><text x="127.36" y="194.36" text-anchor="middle" fill="#222">B</text><circle data-id="C" class="t2g-obj t2g-point" cx="138.64" cy="397.20" r="3.0" fill="#222"/><text x="132.46" y="411.49" text-anchor="middle" fill="#222">C</text><circle data-id="D" class="t2g-obj t2g-point" cx="341.36" cy="397.20" r="3.0" fill="#222"/><text x="347.68" y="411.41" text-anchor="middle" fill="#222">D</text><circle data-id="E" class="t2g-obj t2g-point" cx="211.38" cy="101.10" r="3.0" fill="#222"/><text x="208.93" y="93.35" text-anchor="middle" fill="#222">E</text><circle data-id="F" class="t2g-obj t2g-point" cx="323.06" cy="82.80" r="3.0" fill="#222"/><text x="329.01" y="76.38" text-anchor="middle" fill="#222">F</text><circle data-id="H" class="t2g-obj t2g-point" cx="175.01" cy="249.15" r="3.0" fill="#222"/><text x="163.47" y="256.47" text-anchor="middle" fill="#222">H</text><polyline points="148.64,194.48 148.64,204.48 138.64,204.48" fill="none" stroke="#222" stroke-width="1.2"/><polyline points="138.64,387.20 148.64,387.20 148.64,397.20" fill="none" stroke="#222" stroke-width="1.2"/><polyline points="324.68,92.67 314.81,94.28 313.19,84.41" fill="none" stroke="#222" stroke-width="1.2"/><line x1="240.00" y1="197.48" x2="240.00" y2="191.48" stroke="#222" stroke-width="1.2"/><line x1="141.64" y1="295.84" x2="135.64" y2="295.84" stroke="#222" stroke-width="1.2"/><line x1="240.00" y1="394.20" x2="240.00" y2="400.20" stroke="#222" stroke-width="1.2"/><line x1="338.36" y1="295.84" x2="344.36" y2="295.84" stroke="#222" stroke-width="1.2"/><line x1="334.85" y1="136.18" x2="328.93" y2="137.15" stroke="#222" stroke-width="1.2"/><line x1="335.50" y1="140.13" x2="329.57" y2="141.10" stroke="#222" stroke-width="1.2"/><line x1="264.76" y1="89.31" x2="265.73" y2="95.23" stroke="#222" stroke-width="1.2"/><line x1="268.71" y1="88.67" x2="269.68" y2="94.59" stroke="#222" stroke-width="1.2"/></svg>